<svg id="Capa_1" data-name="Capa 1" xmlns="http://www.w3.org/2000/svg" viewBox="0 0 80.5 82.26"><defs><style>.cls-1{fill:#fff;}</style></defs><ellipse cx="40.25" cy="41.13" rx="40.25" ry="41.13"/><path class="cls-1" d="M52.74,25.57a2.83,2.83,0,1,0,2.77,2.83A2.8,2.8,0,0,0,52.74,25.57Z"/><path class="cls-1" d="M40.44,29.2A11.88,11.88,0,1,0,52.06,41.07,11.76,11.76,0,0,0,40.44,29.2Zm0,19.48a7.61,7.61,0,1,1,7.45-7.61A7.53,7.53,0,0,1,40.44,48.68Z"/><path class="cls-1" d="M49.67,65.19H30.83A14.35,14.35,0,0,1,16.65,50.7V31.45A14.35,14.35,0,0,1,30.83,17H49.67A14.35,14.35,0,0,1,63.84,31.45V50.7A14.35,14.35,0,0,1,49.67,65.19ZM30.83,21.5a9.86,9.86,0,0,0-9.74,10V50.7a9.86,9.86,0,0,0,9.74,9.95H49.67A9.85,9.85,0,0,0,59.4,50.7V31.45a9.85,9.85,0,0,0-9.73-9.95Z"/></svg>