<svg id="Capa_1" data-name="Capa 1" xmlns="http://www.w3.org/2000/svg" viewBox="0 0 80.5 82.26"><defs><style>.cls-1{fill:#fff;}</style></defs><path d="M80.5,42A40.25,40.25,0,1,0,34,81.77V53.65H23.74V42H34V33.15c0-10.09,6-15.66,15.2-15.66a62.25,62.25,0,0,1,9,.78v9.91H53.1c-5,0-6.56,3.1-6.56,6.28V42H57.7L55.92,53.65H46.54V81.77A40.26,40.26,0,0,0,80.5,42Z"/><path class="cls-1" d="M55.92,53.65,57.7,42H46.54V34.46c0-3.18,1.56-6.28,6.56-6.28h5.07V18.27a62.25,62.25,0,0,0-9-.78C40,17.49,34,23.06,34,33.15V42H23.74V53.65H34V81.77a40.62,40.62,0,0,0,12.58,0V53.65Z"/></svg>