<svg id="Capa_1" data-name="Capa 1" xmlns="http://www.w3.org/2000/svg" viewBox="0 0 80.5 82.26"><defs><style>.cls-1{fill:#fff;}</style></defs><ellipse cx="40.25" cy="41.13" rx="40.25" ry="41.13"/><path class="cls-1" d="M62.49,27a18.21,18.21,0,0,1-4.44,1.29c.71-.12,1.76-1.44,2.18-2a8.35,8.35,0,0,0,1.47-2.74c0-.08.07-.18,0-.24a.23.23,0,0,0-.23,0,22.28,22.28,0,0,1-5.27,2.06.34.34,0,0,1-.36-.1,5.27,5.27,0,0,0-.46-.48,9.4,9.4,0,0,0-2.55-1.59,8.59,8.59,0,0,0-3.91-.65A9.33,9.33,0,0,0,45.2,23.7a9.72,9.72,0,0,0-3,2.5,9.42,9.42,0,0,0-1.79,3.66,10,10,0,0,0-.09,3.86c0,.22,0,.25-.19.22-7.22-1.1-13.22-3.75-18.08-9.41-.21-.25-.33-.25-.5,0-2.13,3.26-1.1,8.5,1.56,11.07.36.35.72.69,1.11,1a8.9,8.9,0,0,1-3.48-1c-.22-.13-.32-.06-.34.19a5.52,5.52,0,0,0,.06,1.06,9.44,9.44,0,0,0,5.71,7.55,4.87,4.87,0,0,0,1.16.36,10,10,0,0,1-3.42.11c-.25,0-.35.08-.25.33,1.51,4.19,4.76,5.44,7.19,6.15.33.06.65.06,1,.14l-.06.06c-.81,1.25-3.61,2.19-4.91,2.66a17.37,17.37,0,0,1-7.46,1c-.4-.06-.48-.05-.59,0s0,.17.11.28c.51.34,1,.64,1.56.94a24.49,24.49,0,0,0,5,2c9,2.52,19.06.67,25.79-6.17,5.28-5.36,7.13-12.76,7.13-20.17,0-.29.34-.45.53-.6a17.28,17.28,0,0,0,3.51-3.73,1.18,1.18,0,0,0,.24-.71v0C62.67,26.92,62.66,27,62.49,27Z"/></svg>