<svg id="Capa_1" data-name="Capa 1" xmlns="http://www.w3.org/2000/svg" xmlns:xlink="http://www.w3.org/1999/xlink" viewBox="0 0 520.54 562.33"><defs><style>.cls-1,.cls-11,.cls-12,.cls-13{fill:none;}.cls-2{fill:#781b1b;fill-rule:evenodd;}.cls-3{fill:#2a2143;}.cls-4{clip-path:url(#clip-path);}.cls-5{fill:#d9a169;}.cls-6{fill:#f7f7f7;}.cls-7{fill:#1d1d51;}.cls-8{fill:#cfcfe5;}.cls-11,.cls-12,.cls-13,.cls-9{stroke:#000;stroke-miterlimit:10;}.cls-10{fill:#fff;}.cls-12{stroke-width:2px;}.cls-13{stroke-width:4px;}</style><clipPath id="clip-path"><ellipse class="cls-1" cx="238.22" cy="273.25" rx="191" ry="181.59"/></clipPath></defs><path class="cls-2" d="M517.45,252.38C504.18,164.3,449.22,106.75,374.2,48.46L334.75,17.81l.37-.37S319.71,7.88,318.28,7.21C306.17,1.6,292.5-1.15,279.18.45c-7.62.92-14.36,3.79-21.81,5.05Q229.7,10.16,202,14.79q-7.68,10.76-15.33,21.55c-14.53,11.21-44.35,12.22-69,7.93a10.21,10.21,0,0,0-11.85,11.51c13.4,15.59,16.88,43.52,37.79,49a51.58,51.58,0,0,1-12-30Q144.36,83.4,157.1,92c.63-1.29-11.29-24.4-10.32-24.73,11.73,5.72,25.76,12.91,37.48,18.63l-4-16.5c-.93-4.31,3.36-6.32,8.07-7.89,7.71-2.58,18.68.59,26.1,2.61,11.85,3.23,28.56,8,33.42,20.69,4.11,10.72-2.44,20.75-11.36,26.39-3.34,2.11-6.51,1.53-10.11,2.5-11.07,3-25.76-1.16-36.72-9.07,1.37,5.52,5.33,12.27,6.68,17.78-1.55,8.11-7.44,3.64-8.7,4.62-7.49-1.22-15-4.07-22.44-5.29,15.5,26.66,46.91,26.85,45.87,18.36,5-4.85,8.67-9.59,15.88-11.24,5-1.13,10.12-1,15.22-1.09,13.86-.24,33.42,1.76,44.4-8.69a5.85,5.85,0,0,1,1.72-1.33,5.22,5.22,0,0,1,1.93-.26c12.53-.06,25.2-1.93,37.59-1.93,5.35-.91,18.61,9.29,23.08,12.14A158.86,158.86,0,0,1,372.11,144a160.55,160.55,0,0,1,35.2,45.83c41.08,80.33,10.53,183.83-63.18,233.86-64.18,43.55-151,40.89-214.6-2.2a213.47,213.47,0,0,1-48.71-46c-65.75-86.39-29.21-218,69.82-262-6.94,3.09-27.15-3.1-36.4-1.55A92.33,92.33,0,0,0,83.88,123c-26.63,15.3-46.42,51.16-59.32,78C9.31,232.86.16,267.89,0,303.24a210.41,210.41,0,0,0,1.93,29.25C9.45,387.81,35.26,444,73.81,484.62c81.13,85.53,212.55,99.92,315.17,45.84C473.45,486,518.5,395.34,520.47,302A290.94,290.94,0,0,0,517.45,252.38Z"/><ellipse class="cls-3" cx="238.22" cy="273.25" rx="191" ry="181.59"/><g class="cls-4"><path d="M177.92,292.94l.43.05-.4-.05a8.64,8.64,0,0,1,2.11.55,1,1,0,0,0,.59,0,1.12,1.12,0,0,0,.56-.18,1.57,1.57,0,0,0,.69-.89l0-.06a1.56,1.56,0,0,0-.15-1.16,1.52,1.52,0,0,0-.9-.69,1.49,1.49,0,0,0-1.15.15,1.55,1.55,0,0,0-.69.9l0,.06,1.84-1a10.06,10.06,0,0,0-2.93-.66,1.52,1.52,0,0,0-1.06.44,1.56,1.56,0,0,0-.44,1.06,1.54,1.54,0,0,0,.44,1.06l.31.24a1.41,1.41,0,0,0,.75.2Z"/><path d="M177.71,293l.27.09c-.19-.07,0,0,.12.06l.53.25a5.25,5.25,0,0,0,1.4.47,20,20,0,0,0,3,.12,4.32,4.32,0,0,0,1.77-.33,10.5,10.5,0,0,0,1-.57c.18-.11-.17,0,0,0l.28-.08c.17-.05.35-.07.53-.12a2.37,2.37,0,0,0,1.41-1,1.51,1.51,0,0,0-.54-2.05,1.53,1.53,0,0,0-2.05.54.77.77,0,0,1,.49-.38l-.22.05c-.16,0-.33.07-.49.12a5.28,5.28,0,0,0-1.15.48l-.48.29c-.06,0-.41.15-.14.07l-.08,0h-.89l-1.22,0h-.46l-.29,0c.16,0,.14,0,0,0s-.57-.19-.32-.09l-.4-.19a10.62,10.62,0,0,0-1.31-.54,1.5,1.5,0,1,0-.79,2.89Z"/><path d="M177.55,292.76a7,7,0,0,0,1.26.36,10.38,10.38,0,0,0,1.66.17,1.56,1.56,0,0,0,1.06-.44,1.52,1.52,0,0,0,.44-1.06,1.5,1.5,0,0,0-.44-1.06,1.54,1.54,0,0,0-1.06-.44,6.65,6.65,0,0,1-.89-.06l.4,0a7.08,7.08,0,0,1-1.63-.41,1.12,1.12,0,0,0-.6,0,1.16,1.16,0,0,0-.56.18,1.5,1.5,0,0,0-.53,2.05l.23.3a1.49,1.49,0,0,0,.66.39Z"/><path d="M178.36,293a4.83,4.83,0,0,0,2.55.88,9.32,9.32,0,0,0,2.62-.33,1.5,1.5,0,0,0-.8-2.89c-.41.09-.81.17-1.22.23l.4-.05a4.61,4.61,0,0,1-1.23,0l.4.06a4.31,4.31,0,0,1-.87-.24l.36.15a3.77,3.77,0,0,1-.7-.41,1.45,1.45,0,0,0-1.15-.15,1.48,1.48,0,0,0-1.05,1.84l.15.36a1.55,1.55,0,0,0,.54.54Z"/><path d="M156.45,352.73c2.12-.78,4.22-1.62,6.3-2.5a1.49,1.49,0,0,0,.53-2.05,1.47,1.47,0,0,0-.89-.69,1.73,1.73,0,0,0-1.16.15l-.17.07-.32.14-.76.31-1.4.56c-1,.38-1.94.75-2.93,1.11a1.5,1.5,0,0,0,.8,2.9Z"/><path d="M162.65,350.28a20.56,20.56,0,0,0,2.46-1.18,18.93,18.93,0,0,0,2.24-1.54,1.5,1.5,0,0,0,0-2.12,1.52,1.52,0,0,0-1.06-.44l-.4.05a1.49,1.49,0,0,0-.66.39l-.12.09.31-.24a16.58,16.58,0,0,1-3.66,2.13l.36-.15-.27.11a1.65,1.65,0,0,0-.89.69,1.57,1.57,0,0,0-.16,1.16,1.54,1.54,0,0,0,.69.89,1.48,1.48,0,0,0,1.16.16Z"/><path d="M42.85,379.64l-2.22.71a1.55,1.55,0,0,0-.9.69,1.09,1.09,0,0,0-.18.55,1.22,1.22,0,0,0,0,.6,1.52,1.52,0,0,0,.69.9,1.54,1.54,0,0,0,1.15.15l2.22-.71a1.59,1.59,0,0,0,.9-.69,1.12,1.12,0,0,0,.18-.56,1.19,1.19,0,0,0,0-.59,1.49,1.49,0,0,0-.69-.9,1.54,1.54,0,0,0-1.15-.15Z"/><path class="cls-5" d="M183.85,243s-1,2.67-5.45.71c0,0-16.78-11.44-11.53,19.48,0,0,1.33,13.61,4.62,22.76,0,0,7.66,13.83,17,5.12,0,0,4.79,40,33.26,54.95l1,.49c29.32,14.59,48.75,1.71,48.75,1.71S299.4,324.8,304.9,297c0,0,10.42,12.12,16.63-10.26l.63-17.81a1.51,1.51,0,0,1,.09-.48c1.05-2.75,10.87-28.72-5.88-22a3.05,3.05,0,0,0-1.14.84l-3.3,3.84s11.15-60.17-38.84-78.2c0,0-35.7-13-65.48,11.26C207.61,184.17,190.66,203.47,183.85,243Z"/><path class="cls-6" d="M268.39,241.85s13.15-14,27.09,1C295.48,242.8,283.52,248.71,268.39,241.85Z"/><ellipse cx="282.45" cy="240.53" rx="4.52" ry="4.97" transform="translate(32.17 514.39) rotate(-87.99)"/><path class="cls-6" d="M207.46,239.26s13.15-14,27.09,1C234.55,240.21,222.59,246.12,207.46,239.26Z"/><ellipse cx="221.52" cy="237.95" rx="4.52" ry="4.97" transform="translate(-24.04 451) rotate(-87.99)"/><path d="M266.45,220.09l-.26,7.22s26.47-7.21,38.95-2.25C305.14,225.06,301.6,210,266.45,220.09Z"/><path d="M238.91,219.12l-.26,7.22s-25.9-9-38.69-5C200,221.37,204.54,206.62,238.91,219.12Z"/><path d="M178.4,243.17l-2.56-39.3s-17.61-39.36,16.77-58.31c0,0,7.3-17.17,41.51-22.17,0,0,28-15.68,69.12,16,0,0,18.12,24.66,17.95,40.53,0,0,11,7.75-1.14,32.51l-8.12,38.15s11.68-58.66-38.84-78.2c0,0-35.91-12.54-65.48,11.26,0,0-19.89,27.54-23.76,58.83C183.85,242.45,183.28,245.13,178.4,243.17Z"/><path class="cls-5" d="M291.27,325.5l-5.72,52.22s-24.79,32.84-40.46,26.86c0,0-56.15-39.21-55.91-74L190.7,301s6.09,29.44,31,44.25c0,0,28.26,15.47,49.71,2.19C271.43,347.47,286.39,333,291.27,325.5Z"/><path class="cls-7" d="M188.27,330.73s-20.33,16.4-28.61,20.53c0,0-107.48,26.62-117.71,31.29,0,0-12.79-.06-16.34,35.07,0,0-37,138.44-35.81,203.57,0,0-10.94,46.69-6.2,60.8,0,0-3.15,189.34,15,235.89,0,0,26.62,3.26,43.88-8.34l27.43-53.08s46.75-57.06,59.93-101.35l27.52-72.26s13.83-96,13.18-127.39C170.51,555.46,173.19,346.6,188.27,330.73Z"/><path class="cls-7" d="M294,359.3s56.71,23.49,67.51,30.26c0,0,25.57,16.59,33.68,17.45,0,0,28.8,7.41,22.76,129.82,0,0-5.9,135.19-20.58,189.31,0,0-7.71,37.5-13.18,44.28a412.73,412.73,0,0,1-4.58,64.35s3.31,21.62-15.62,47.69l-12.54,26.29a24.83,24.83,0,0,0-17.91-19.81s-4.75-46.65-16.26-50c0,0-15.66-17.41-8.32-44.46a12,12,0,0,0,2.27-15s-1.82-80.84-6.95-100.2c0,0,14.58-117.46,6.36-164.82,0,0-1.27-79.67-11-100.35,0,0,1.71-15.63-7.09-13.32Z"/><path class="cls-8" d="M288.66,349.78s5.44,6,4.73,26.35l-.87,24.67s-25,5.81-34.89,11.85c0,0-7.89-7.06-16.45-.58,0,0-17.5-9.13-25.45-8.83,0,0-11.6-6.33-12,.69l-2.77,12.74L178.85,384.9s4.83-50.2,10.41-55a53,53,0,0,0,11.27,31.3s21,27.34,38,38.7l6.58,4.93s13.1,7.56,40.46-26.87Z"/><path class="cls-9" d="M201.08,415.94a7,7,0,0,1-.43,1.34c-1,2.42-4.64,11.38-2.59,14.79a74.77,74.77,0,0,1,2.86,14.25,7.7,7.7,0,0,0,.58,2.37c1,2.22,3.1,6.51,4.45,4.42a9,9,0,0,1,1.2-1.59,15.33,15.33,0,0,1,8-4.39,7.15,7.15,0,0,0,2.07-.66c4.23-2.1,18.95-9.56,23.6-13.83a7.21,7.21,0,0,1,5-1.9l7.45.05a7.39,7.39,0,0,1,5.07,2.09c3.67,3.56,11.68,10.52,18.85,11.24a6.68,6.68,0,0,1,2.1.57c3,1.35,11.24,4.56,11.69,0a8.89,8.89,0,0,1,.32-1.77c.94-3,3.68-12.28,3.54-19.08a7.34,7.34,0,0,1,2.53-5.94,6.15,6.15,0,0,0,1.62-2.22,7.21,7.21,0,0,0,.66-2.86c.11-3.72-.24-13.75-7.16-12,0,0-21.54,5.4-31.45,10a7.12,7.12,0,0,1-6.33-.17,11.65,11.65,0,0,0-10.71-.22,7.4,7.4,0,0,1-6.29.05c-5.46-2.55-16-7.17-20.83-7.27a7.31,7.31,0,0,1-2.65-.56c-3.17-1.29-10.39-3.69-10.57,1.34Z"/><path class="cls-9" d="M241.18,412.07s4.29,10.23,1.09,18.64l14.07.11s4.37-12.25,1.29-18.17C257.63,412.65,250.72,405.24,241.18,412.07Z"/><path class="cls-8" d="M234.13,437.35s1.14,83.19-1.24,100.93c0,0-12.25,111.54-13.15,126.23l-2.17,61.91s1.24,64-22,96.86c0,0,27,2.11,34.57-2.66l27.26-291.17-1.07-98.63-14.07-.11S240.1,433.92,234.13,437.35Z"/><circle class="cls-10" cx="246.54" cy="482.26" r="4.65"/><circle class="cls-10" cx="243.64" cy="561.19" r="4.65"/><path class="cls-8" d="M230.2,821.07c21.38-2.49,46.36-7.78,55.23-19.05,0,0,12.57-5,16.18-8.34,0,0,17.3,3.71,9.6-14.19,0,0-.79-82.36-6.95-100.2,0,0,14.38-150.4,6.36-164.82,0,0-1-87.79-11-100.35a13.34,13.34,0,0,1-2.21,3.74,8.67,8.67,0,0,0-2.53,5.94s-1.34,15.09-3.54,19.08c0,0,1.91,8.35-14.7,1.16,0,0-6.73.07-20.29-13.22l1.07,98.63L231.09,810.57l-.89,10.5a340.33,340.33,0,0,1-34.62,2.21"/><path class="cls-1" d="M183.1,261.77s-6.36-18.84-12.54-12.32a6.61,6.61,0,0,0-1.7,5c.24,3.94,1.06,12.12,3.75,17.8a6.55,6.55,0,0,0,6.75,3.5c1.19-.12,2.72.52,4.4,3.1"/><path class="cls-8" d="M178.85,384.9l22.23,31s-4.57,10.16-3,16.13c0,0,2.13,8.44,2.86,14.25,0,0,2.55,9.53,5,6.79,0,0,3.91-5.12,9.25-6l18.93-9.78s3.54,88.35-1.24,100.93L219.74,664.51l-2.17,61.91s-.46,73.14-22,96.86L184.74,823s-15,6.71-27.61,2.79l-52.81-16.45s17.28-30.2,26.43-54.21l27.52-72.26s12.42-90.13,13.18-127.39C171.45,555.5,173.27,446.75,178.85,384.9Z"/><path d="M191.75,143.35a8.09,8.09,0,0,0-6,3.55,1.52,1.52,0,0,0,.9,2.21c2.61.44,5.68.69,7.63-1.48a1.52,1.52,0,0,0-.67-2.5,8.06,8.06,0,0,0-5-.32l1.16,2.74,2.44-1.11-1.82-2.36a13.73,13.73,0,0,1-3.6,2.38,13.88,13.88,0,0,0-3.68,1.87,13.32,13.32,0,0,0-2.46,3.56L178,156.41a1.51,1.51,0,0,0,2.05,2.05C184.42,156.3,189,153.6,191,149c.46-1-.33-2.74-1.69-2.21a27.43,27.43,0,0,0-6.76,3.85l2.36,1.82a4.73,4.73,0,0,1,1.2-1.73L184,148.58c-4.47,5.14-10.38,9.45-11.3,16.69a1.51,1.51,0,0,0,1.5,1.5,1.54,1.54,0,0,0,1.5-1.5c.78-6.17,6.64-10.22,10.42-14.57a1.5,1.5,0,0,0-2.12-2.12,6.86,6.86,0,0,0-1.68,2.34,1.51,1.51,0,0,0,2.36,1.81,22.28,22.28,0,0,1,5.44-3.07l-1.7-2.21c-1.83,4.19-5.95,6.47-9.86,8.42l2,2,2.38-4.17c.66-1.16,1.26-2.68,2.41-3.44s2.47-1,3.64-1.65a17.21,17.21,0,0,0,3.42-2.45c1.35-1.23-.37-3-1.82-2.36L188.23,145c-1.6.73-.44,3.13,1.15,2.74a5.47,5.47,0,0,1,3.43.32l-.67-2.51c-1.15,1.29-3.16,1-4.7.7l.9,2.21a4.8,4.8,0,0,1,3.41-2.07,1.54,1.54,0,0,0,1.5-1.5,1.51,1.51,0,0,0-1.5-1.5Z"/><path d="M247.5,118a20.81,20.81,0,0,0-12.2,2.47,25.05,25.05,0,0,0-2.6,1.74,5.55,5.55,0,0,1-3.14.86l-7.55.66c-1.89.16-2,3,0,3,3.86,0,7.86-.18,11.22-2.29a1.5,1.5,0,0,0,.3-2.35,2.67,2.67,0,0,0-2.47-.64l.79,2.89,2.91-.8a1.5,1.5,0,0,0-.79-2.89l-2.91.8c-1.88.51-1.08,3.27.79,2.89l-.44-.13.3-2.36c-2.91,1.83-6.37,1.86-9.7,1.88v3l7.31-.64a13.72,13.72,0,0,0,3.44-.47,12.87,12.87,0,0,0,2.64-1.69A18,18,0,0,1,247.5,121c1.92.21,1.9-2.79,0-3Z"/><path d="M205.89,185.86l1.94-1.05a3.69,3.69,0,0,0,1-.69,2.14,2.14,0,0,0,.55-1.93,2.08,2.08,0,0,0-.81-1.2,2.61,2.61,0,0,0-1.42-.54,2.31,2.31,0,0,0-1.35.34,3.42,3.42,0,0,0-1,1c-.35.49-.53,1.09-.9,1.58l.24-.3a2.32,2.32,0,0,1-.35.35l.3-.23a1.69,1.69,0,0,1-.29.17l.36-.15-.19.05a1.52,1.52,0,0,0-1,1.85,1.53,1.53,0,0,0,1.84,1,3.2,3.2,0,0,0,1.91-1.53,14.05,14.05,0,0,1,.76-1.37l-.24.3a2,2,0,0,1,.32-.33l-.31.24a1.92,1.92,0,0,1,.31-.18l-.36.15a.8.8,0,0,1,.21,0l-.4,0h.22l-.4,0a1,1,0,0,1,.29.08l-.35-.15.22.13-.31-.23a.67.67,0,0,1,.15.14l-.24-.3a.6.6,0,0,1,.09.13l-.16-.36a.88.88,0,0,1,.05.15l-.06-.4a.38.38,0,0,1,0,.15l.06-.39a.56.56,0,0,1,0,.12l.15-.36a.35.35,0,0,1-.08.13l.24-.3a1.07,1.07,0,0,1-.19.18l.31-.23a12.72,12.72,0,0,1-1.2.67l-1.31.71a1.5,1.5,0,0,0,1.51,2.59Z"/><path d="M319,169.29c1-1.86.48-3.82-.69-5.47-1-1.35-3.35-3-2.57-4.9l-2.74.36a11.17,11.17,0,0,1,1.26,3.64c.28,1.6,2.43,1.23,2.89,0a4.74,4.74,0,0,0-.82-4.39,18.49,18.49,0,0,1-1.52-2.11A11.63,11.63,0,0,1,314,154a12.81,12.81,0,0,0-5.34-7.48c-1.53-1-2.77,1.13-1.81,2.36a18.83,18.83,0,0,1,3.34,7l2.74-1.16a37.2,37.2,0,0,1-3.1-6.26c-.76-2-1.37-3.93-2.92-5.49-.66-.67-1.42-1.24-2.05-1.94a22.82,22.82,0,0,1-1.82-2.84A6.16,6.16,0,0,0,298.5,135c-1.92-.2-1.9,2.8,0,3,1.69.18,2.48,2.56,3.29,3.76,1,1.49,2.51,2.42,3.58,3.82s1.55,3.52,2.27,5.22a41.36,41.36,0,0,0,2.74,5.34,1.51,1.51,0,0,0,2.74-1.16,22.25,22.25,0,0,0-4.11-8.29l-1.82,2.35a9.93,9.93,0,0,1,4.05,6.07,10.22,10.22,0,0,0,1.41,3.53c.7,1,2.08,2.12,1.58,3.45h2.89a13.64,13.64,0,0,0-1.56-4.36,1.53,1.53,0,0,0-2.75.36c-.75,1.79,0,3.63,1.11,5.1.78,1,3.28,3.05,2.46,4.55-.93,1.7,1.66,3.21,2.59,1.52Z"/><path d="M318.63,179.6a6.81,6.81,0,0,1,1,1l-.23-.3a6.89,6.89,0,0,1,.78,1.34l-.15-.36a6.47,6.47,0,0,1,.42,1.55l-.05-.4v.07a1.63,1.63,0,0,0,.44,1.06,1.54,1.54,0,0,0,1.06.44,1.56,1.56,0,0,0,1.06-.44,1.47,1.47,0,0,0,.44-1.06,7.68,7.68,0,0,0-.91-2.93,7.25,7.25,0,0,0-1.74-2.11,1.61,1.61,0,0,0-1.06-.44,1.54,1.54,0,0,0-1.06.44,1.52,1.52,0,0,0-.44,1.06,1.46,1.46,0,0,0,.44,1.06Z"/><path d="M272.16,347.17a6.73,6.73,0,0,0-1.49.69.38.38,0,0,0-.17.43.38.38,0,0,0,.36.27l.82-.11a.38.38,0,0,0,.38-.37.38.38,0,0,0-.38-.38,2.77,2.77,0,0,0-1.34.44,8.49,8.49,0,0,0-1.13.84.37.37,0,0,0,0,.5.38.38,0,0,0,.48.09,15.06,15.06,0,0,0,2.47-1.55.4.4,0,0,0,.14-.51.38.38,0,0,0-.52-.14,15.82,15.82,0,0,1-2.47,1.56l.46.58a7.71,7.71,0,0,1,.93-.69,3.25,3.25,0,0,1,.49-.25l.27-.08a.81.81,0,0,1,.25,0v-.75l-.82.11.19.7a5.82,5.82,0,0,1,1.31-.62.38.38,0,0,0,.26-.46.37.37,0,0,0-.46-.26Z"/><path d="M269.39,348.9a3.73,3.73,0,0,0-1.38.65.39.39,0,0,0-.13.52.37.37,0,0,0,.22.17.42.42,0,0,0,.29,0l.88-.39a.37.37,0,0,0,.17-.22.33.33,0,0,0,0-.29.34.34,0,0,0-.22-.17.42.42,0,0,0-.29,0l-.88.39.38.65c.2-.13.4-.26.61-.37l.15-.07,0,0h0l.09,0a1.89,1.89,0,0,1,.34-.09.41.41,0,0,0,.23-.18.39.39,0,0,0,0-.28.39.39,0,0,0-.17-.23.47.47,0,0,0-.29,0Z"/><path d="M272.28,346.91l0,0,.07-.06-.1.06.09,0-.11,0,.1,0h-.08a.37.37,0,0,0-.15,0,.2.2,0,0,0-.12.08.25.25,0,0,0-.08.12.32.32,0,0,0,0,.14v.1a.37.37,0,0,0,.1.17l.08.06a.41.41,0,0,0,.19.05l.18,0,.09,0,.13-.06,0,0,.15-.11a.5.5,0,0,0,.08-.12.37.37,0,0,0,0-.15.32.32,0,0,0,0-.14.36.36,0,0,0-.08-.12l-.08-.06a.41.41,0,0,0-.19-.05h-.1a.34.34,0,0,0-.16.1Z"/><path d="M268.22,349.54a3.8,3.8,0,0,0-.82.21l-.85.28a5.67,5.67,0,0,0-1.5.79.38.38,0,0,0-.15.47.36.36,0,0,0,.44.21,10.76,10.76,0,0,1,2.29-.75.38.38,0,0,0,0-.75,10.91,10.91,0,0,0-2.49.78l.29.68a5.1,5.1,0,0,1,1.32-.71l.76-.25a3.61,3.61,0,0,1,.71-.21.39.39,0,0,0,.37-.38c0-.18-.17-.4-.37-.37Z"/><path d="M265.68,350.59a2,2,0,0,0-1.17.13,2.75,2.75,0,0,1-1,.26v.75a8.62,8.62,0,0,0,2-.27l-.2-.72a14.38,14.38,0,0,1-1.45.31,11.22,11.22,0,0,0-1.33.59.4.4,0,0,0-.26.46.39.39,0,0,0,.46.26,13.23,13.23,0,0,1,2.07-.38l-.1-.74c-.82.19-1.51.72-2.35.85l.37.63a7.16,7.16,0,0,1,1.15-.72.38.38,0,0,0-.19-.7c-.56,0-1.11.11-1.67.2a.37.37,0,0,0-.26.46.39.39,0,0,0,.46.26c.49-.08,1-.13,1.47-.17l-.19-.69a7.74,7.74,0,0,0-1.3.83.38.38,0,0,0-.06.46.4.4,0,0,0,.42.17c.84-.13,1.53-.67,2.35-.85.41-.1.33-.78-.1-.74a13.7,13.7,0,0,0-2.27.41l.2.72a11.22,11.22,0,0,1,1.33-.59,12.07,12.07,0,0,0,1.45-.31.38.38,0,0,0,.26-.46.37.37,0,0,0-.46-.26,8,8,0,0,1-1.82.24.38.38,0,0,0,0,.75,2.73,2.73,0,0,0,1.09-.23,1.65,1.65,0,0,1,.92-.19.38.38,0,0,0,.46-.26.37.37,0,0,0-.26-.46Z"/><path d="M263.29,352a1.46,1.46,0,0,1,.55-.29l-.29-.68a6.27,6.27,0,0,1-1.41.45l.2.72c.43-.09.86-.17,1.3-.22l-.1-.74a12.3,12.3,0,0,1-2.08.39.38.38,0,0,0,0,.75,15.33,15.33,0,0,0,2.14-.1.39.39,0,0,0,.37-.38.38.38,0,0,0-.37-.37,10.72,10.72,0,0,0-2.45.4c-.39.11-.33.76.1.74a10.51,10.51,0,0,0,1.77-.27.37.37,0,0,0-.1-.73,21.74,21.74,0,0,0-2.28.1.38.38,0,0,0,0,.75,5.57,5.57,0,0,0,.82,0,.38.38,0,0,0,0-.75,8,8,0,0,0-3.07.52c-.46.14-.26.87.2.72a7.42,7.42,0,0,1,2.87-.49v-.75a5.57,5.57,0,0,1-.82,0v.75a21.74,21.74,0,0,1,2.28-.1l-.1-.74a10.45,10.45,0,0,1-1.57.24l.1.73a9.45,9.45,0,0,1,2.25-.37v-.75a15.33,15.33,0,0,1-2.14.1v.75a12.71,12.71,0,0,0,2.28-.42c.39-.11.33-.79-.1-.73s-1,.14-1.5.25-.27.81.2.72a6.31,6.31,0,0,0,1.59-.52c.39-.19.11-.8-.29-.69a2.08,2.08,0,0,0-.73.36.38.38,0,0,0-.14.51.39.39,0,0,0,.52.14Z"/><path d="M258.48,353.32a5,5,0,0,0,1.64-.44l1.62-.57-.29-.68a1.73,1.73,0,0,1-.52.14,3.06,3.06,0,0,0-.58.2,2.65,2.65,0,0,1-1,.33.38.38,0,0,0-.36.33c0,.16.08.39.26.41a5.16,5.16,0,0,0,1.57,0,4.38,4.38,0,0,0,.71-.19c.31-.11.55-.28.48-.65a.38.38,0,0,0-.36-.27,5.71,5.71,0,0,0-1.43,0,.37.37,0,0,0-.26.46.39.39,0,0,0,.46.26,5.06,5.06,0,0,1,1.23,0l-.36-.28v-.13l.1-.16s0,0,0,0a.28.28,0,0,0-.12,0l-.25.07a3,3,0,0,1-.52.11,4.35,4.35,0,0,1-1,0l-.1.73a3.35,3.35,0,0,0,1.27-.39,3.11,3.11,0,0,1,.54-.18,2.07,2.07,0,0,0,.65-.21c.36-.21.12-.83-.29-.68l-1.56.55-.77.27a2.27,2.27,0,0,1-.73.16.38.38,0,0,0,0,.75Z"/><path d="M217.37,343.49a31.07,31.07,0,0,0,2.64,2,.38.38,0,1,0,.38-.65A29.59,29.59,0,0,1,217.9,343a.39.39,0,0,0-.53,0,.38.38,0,0,0,0,.53Z"/><path d="M219.65,345.22a5.15,5.15,0,0,1,1.3.57,6.65,6.65,0,0,0,.65.34c.12.05.24.11.37.15l.19.07.08,0c.13,0,0,0-.07-.08l0-.19v0l.11-.26h0a.38.38,0,0,0,.54.53.42.42,0,0,0,0-.61,1.36,1.36,0,0,0-.48-.2,5.56,5.56,0,0,1-.75-.35,6.42,6.42,0,0,0-1.65-.74.37.37,0,0,0-.46.26.38.38,0,0,0,.26.46Z"/><path d="M220.41,345.79l1.15.47a5,5,0,0,1,1,.46,8.13,8.13,0,0,0,1,.58c.35.16.7.3,1.06.44a.38.38,0,0,0,.2-.73c-.34-.13-.69-.26-1-.42s-.64-.4-1-.6a7.58,7.58,0,0,0-1.05-.46l-1.15-.46a.37.37,0,0,0-.2.72Z"/><path d="M224.48,347.73a7,7,0,0,1,2.76,1.23l.29-.68c-.42-.1-.71-.5-1.12-.65s-.95,0-1.32-.26l-.19.7a2.49,2.49,0,0,1,.87.37,7.84,7.84,0,0,0,.93.43,8.37,8.37,0,0,0,2,.56.38.38,0,0,0,.44-.21.36.36,0,0,0-.15-.47l-1.47-.63-.29.69a4.1,4.1,0,0,1,1.64.63,2.27,2.27,0,0,0,1.38.7.38.38,0,0,0,.27-.64,3,3,0,0,0-1.19-.73c-.46-.14-.66.58-.2.73a2,2,0,0,1,.86.53l.26-.64c-.46,0-.83-.5-1.19-.74a5.45,5.45,0,0,0-1.63-.57c-.39-.1-.69.52-.29.69l1.47.63.29-.69a8.77,8.77,0,0,1-2.07-.6,6.83,6.83,0,0,0-1.9-.79c-.41-.05-.46.51-.19.7.44.31.95.14,1.43.31s.72.56,1.19.67a.38.38,0,0,0,.29-.69,7.42,7.42,0,0,0-2.94-1.3c-.47-.1-.68.62-.2.72Z"/><path d="M229.85,349.84a16.17,16.17,0,0,0,3.35,1.34l.1-.74c-.37,0-.66-.41-1-.6a1.89,1.89,0,0,0-.44-.19c-.16,0-.51,0-.63-.1l-.45.59a26.34,26.34,0,0,0,3.27,1.14c1,.29,2,1,3.14,1,.26,0,.51-.33.33-.57a2.08,2.08,0,0,0-2.08-.83.38.38,0,0,0,0,.73,24.89,24.89,0,0,0,2.4.78,13,13,0,0,1,1.38.17,10.83,10.83,0,0,1,1.35.48c.45.18.64-.55.2-.73a8.83,8.83,0,0,0-2.56-.64,16.25,16.25,0,0,1-2.57-.79v.73a1.27,1.27,0,0,1,1.23.48l.32-.56a3.69,3.69,0,0,1-1.55-.44,12.17,12.17,0,0,0-1.39-.5,22.08,22.08,0,0,1-3.09-1.06c-.36-.16-.8.28-.46.59s.92.19,1.34.49a2.34,2.34,0,0,0,1.22.62.38.38,0,0,0,.1-.74,14.86,14.86,0,0,1-3.17-1.26c-.43-.21-.81.44-.38.65Z"/><path d="M240.39,352.78a14.07,14.07,0,0,1,2.55.59,16.55,16.55,0,0,0,2.81.22c.48,0,.48-.71,0-.75a14.54,14.54,0,0,1-2.79-.24,12.56,12.56,0,0,0-2.57-.57c-.48,0-.48.72,0,.75Z"/><path d="M242.37,353c1.61,0,3.18.38,4.77.52.8.08,1.59,0,2.39,0s1.54.22,2.32.21a.38.38,0,0,0,0-.75c-.75,0-1.48-.19-2.23-.21s-1.65,0-2.48,0c-1.59-.14-3.16-.49-4.77-.52a.38.38,0,0,0,0,.75Z"/><path d="M245.39,353.71a14,14,0,0,0,3.29.22l3.38,0a.38.38,0,0,0,0-.75l-3.26,0a13.27,13.27,0,0,1-3.21-.2.38.38,0,0,0-.2.73Z"/><path d="M246.34,353.82h.47a.39.39,0,0,0,.27-.11.25.25,0,0,0,.08-.12.32.32,0,0,0,0-.14.39.39,0,0,0-.11-.27.41.41,0,0,0-.27-.11h-.47a.39.39,0,0,0-.26.11.28.28,0,0,0-.08.12.21.21,0,0,0,0,.15.31.31,0,0,0,.11.26.36.36,0,0,0,.26.11Z"/><path d="M251.2,353.59a44.47,44.47,0,0,0,7.11-.21c.47-.05.48-.8,0-.75a44.47,44.47,0,0,1-7.11.21c-.48,0-.48.72,0,.75Z"/><path d="M258.6,352.23a39.22,39.22,0,0,0-4.72.42.38.38,0,0,0,0,.75,31.94,31.94,0,0,0,4.69-.1.38.38,0,0,0,0-.75,31.94,31.94,0,0,1-4.69.1v.75a39.22,39.22,0,0,1,4.72-.42.38.38,0,0,0,0-.75Z"/><path d="M251.64,353.85c1.8,0,3.59,0,5.39,0a.38.38,0,0,0,0-.75c-1.8,0-3.59,0-5.39,0a.38.38,0,0,0,0,.75Z"/><path class="cls-11" d="M183.85,242.45s-1,2.68-5.45.72c0,0-16.78-11.44-11.53,19.48,0,0,1.33,13.61,4.62,22.76,0,0,7.66,13.83,17,5.12,0,0,4.79,40,33.26,55l1,.49c29.32,14.59,48.75,1.71,48.75,1.71s27.94-23.43,33.44-51.26c0,0,10.42,12.12,16.63-10.27l.63-17.8a1.63,1.63,0,0,1,.09-.49c1.05-2.74,10.87-28.71-5.88-22a3.05,3.05,0,0,0-1.14.84l-3.3,3.84s11.15-60.18-38.84-78.2c0,0-35.7-13-65.48,11.26C207.61,183.62,190.66,202.92,183.85,242.45Z"/><path d="M274.78,306.06c-1.92-.51-3.77-1.22-5.72-1.59-1-.22-1.92-.49-2.88-.68l-2.92-.53A92.68,92.68,0,0,0,251.5,302a116.89,116.89,0,0,0-11.84,0c-2,.08-3.95.2-5.92.39s-4,.38-5.91.63a77.73,77.73,0,0,1,11.78-1.79,99.1,99.1,0,0,1,11.94-.2,81.34,81.34,0,0,1,11.85,1.5A59.14,59.14,0,0,1,274.78,306.06Z"/><path class="cls-6" d="M268.39,241.85s13.15-14,27.09,1C295.48,242.8,283.52,248.71,268.39,241.85Z"/><path d="M268.39,241.85a21,21,0,0,1,6.15-4.69,17.33,17.33,0,0,1,7.64-1.62,15,15,0,0,1,3.88.61,16.71,16.71,0,0,1,3.62,1.52,25.15,25.15,0,0,1,6.07,4.87l.36.39-.46.21a27.68,27.68,0,0,1-6.79,1.94,33.67,33.67,0,0,1-7,.42,32.61,32.61,0,0,1-6.95-1c-1.14-.29-2.22-.75-3.32-1.15S269.39,242.28,268.39,241.85Zm0,0c.57.21,1.14.41,1.69.59s1,.38,1.61.52c1.13.28,2.23.64,3.37.81a36.42,36.42,0,0,0,6.81,1,32.92,32.92,0,0,0,6.87-.41,26.65,26.65,0,0,0,6.57-1.88l-.1.6a24.36,24.36,0,0,0-5.89-4.73,15.76,15.76,0,0,0-3.47-1.46,14,14,0,0,0-3.69-.58,16.32,16.32,0,0,0-7.3,1.56A23.5,23.5,0,0,0,268.39,241.85Z"/><ellipse cx="282.45" cy="240.53" rx="4.52" ry="4.97" transform="translate(32.17 514.39) rotate(-87.99)"/><path d="M287.46,240.71a4.88,4.88,0,0,1-1.55,3.39,4.79,4.79,0,0,1-3.63,1.26,5.6,5.6,0,0,1-3.45-1.59,4.84,4.84,0,0,1-1.55-3.42,4.42,4.42,0,0,1,1.64-3.47,5.43,5.43,0,0,1,3.7-1.26,5.1,5.1,0,0,1,3.54,1.59A4.87,4.87,0,0,1,287.46,240.71Zm-.08,0a3.85,3.85,0,0,0-1.56-3.14,5.54,5.54,0,0,0-3.22-1.15,5.1,5.1,0,0,0-3.24,1,4.22,4.22,0,0,0-1.67,2.94,3.88,3.88,0,0,0,1.31,3.22,4.91,4.91,0,0,0,3.3,1.15,6,6,0,0,0,3.31-1A3.85,3.85,0,0,0,287.38,240.71Z"/><path class="cls-6" d="M207.46,239.26s13.15-14,27.09,1C234.55,240.21,222.59,246.12,207.46,239.26Z"/><path d="M207.46,239.26a20.9,20.9,0,0,1,6.16-4.69,17.25,17.25,0,0,1,7.63-1.62,14.62,14.62,0,0,1,3.88.62,16.23,16.23,0,0,1,3.62,1.52,24.92,24.92,0,0,1,6.08,4.87l.35.38-.46.21a27.7,27.7,0,0,1-6.79,1.95,33.67,33.67,0,0,1-7,.41,28.56,28.56,0,0,1-10.27-2.19C209.53,240.3,208.46,239.69,207.46,239.26Zm0,0c.58.22,1.14.41,1.69.59s1,.38,1.62.52c1.12.28,2.22.64,3.36.81a36.42,36.42,0,0,0,6.81,1,32.25,32.25,0,0,0,6.87-.41,26.83,26.83,0,0,0,6.58-1.87l-.11.59a24.36,24.36,0,0,0-5.89-4.73,15.73,15.73,0,0,0-3.47-1.45,14,14,0,0,0-3.69-.59,16.32,16.32,0,0,0-7.3,1.56A23.5,23.5,0,0,0,207.46,239.26Z"/><ellipse cx="221.52" cy="237.95" rx="4.52" ry="4.97" transform="translate(-24.04 451) rotate(-87.99)"/><path d="M226.53,238.12a4.88,4.88,0,0,1-1.55,3.39,4.79,4.79,0,0,1-3.63,1.26,5.6,5.6,0,0,1-3.45-1.59,4.82,4.82,0,0,1-1.55-3.41,4.43,4.43,0,0,1,1.64-3.48A5.49,5.49,0,0,1,221.7,233a5.09,5.09,0,0,1,3.53,1.59A4.87,4.87,0,0,1,226.53,238.12Zm-.08,0a3.86,3.86,0,0,0-1.56-3.14,5.61,5.61,0,0,0-3.22-1.15,5.1,5.1,0,0,0-3.24,1,4.24,4.24,0,0,0-1.67,2.94,3.88,3.88,0,0,0,1.31,3.22,4.92,4.92,0,0,0,3.31,1.15,6,6,0,0,0,3.3-1A3.85,3.85,0,0,0,226.45,238.12Z"/><path d="M266.45,220.09l-.26,7.22s26.47-7.21,38.95-2.25C305.14,225.06,301.6,210,266.45,220.09Z"/><path d="M266.45,220.09l-.09,7.22-.21-.16c3.17-.91,6.39-1.64,9.62-2.28s6.5-1.18,9.79-1.53a67,67,0,0,1,9.92-.43,30.25,30.25,0,0,1,9.84,1.69l-.66.57a9.24,9.24,0,0,0-2.83-4,13.58,13.58,0,0,0-2.1-1.42c-.38-.2-.74-.44-1.13-.61l-1.2-.48A32.11,32.11,0,0,0,287.2,217a67.75,67.75,0,0,0-10.44.94l-2.6.45c-.87.14-1.73.29-2.56.51Zm0,0,5.06-1.44c.86-.26,1.72-.45,2.58-.63l2.59-.55a64.82,64.82,0,0,1,10.52-1.22,30.47,30.47,0,0,1,10.52,1.57l1.26.49c.42.17.8.42,1.2.63a14.59,14.59,0,0,1,2.26,1.51,10.1,10.1,0,0,1,3.18,4.5l.3.93-1-.36a30.78,30.78,0,0,0-9.52-1.68,68.33,68.33,0,0,0-9.8.35c-3.26.32-6.52.74-9.75,1.31s-6.46,1.21-9.65,2l-.23.05,0-.22Z"/><path d="M238.91,219.12l-.26,7.22s-25.9-9-38.69-5C200,221.37,204.54,206.62,238.91,219.12Z"/><path d="M238.91,219.12l-.09,7.23v.22l-.22-.07c-3.13-1-6.31-1.85-9.49-2.65s-6.41-1.44-9.64-2a68.18,68.18,0,0,0-9.75-1,30.7,30.7,0,0,0-9.62,1l-1,.29.36-.91A10.07,10.07,0,0,1,203,217a15.9,15.9,0,0,1,2.37-1.35c.41-.18.81-.4,1.24-.54l1.29-.4a30.4,30.4,0,0,1,10.61-.83,66.21,66.21,0,0,1,10.4,1.95l2.54.74a25.57,25.57,0,0,1,2.53.8Zm0,0-5.06-1.55c-.82-.28-1.67-.49-2.52-.7l-2.56-.63a67.4,67.4,0,0,0-10.35-1.66,31.77,31.77,0,0,0-10.3.94l-1.22.4a12.24,12.24,0,0,0-1.17.52,14.18,14.18,0,0,0-2.2,1.28,9.13,9.13,0,0,0-3.1,3.8l-.62-.62a30.17,30.17,0,0,1,9.94-1,67.81,67.81,0,0,1,9.86,1.13c3.26.57,6.47,1.34,9.66,2.21s6.34,1.82,9.44,2.95l-.22.15Z"/><path d="M242.62,310.33a20.78,20.78,0,0,0,4.47,1.9,18.54,18.54,0,0,0,9.47.27,21.84,21.84,0,0,0,2.33-.65c.78-.24,1.51-.61,2.3-.87-.68.46-1.38.92-2.11,1.32a15.68,15.68,0,0,1-2.32.95,14.43,14.43,0,0,1-5,.73,14.62,14.62,0,0,1-4.94-1A12.83,12.83,0,0,1,242.62,310.33Z"/><path d="M242.71,293.77a11.22,11.22,0,0,1,2.16-.37,11.76,11.76,0,0,1,2.22,0,10.4,10.4,0,0,1,2.19.45,10.9,10.9,0,0,1,2.07.92h-.5a11.67,11.67,0,0,1,2.29-.89,10.78,10.78,0,0,1,2.4-.35,8.46,8.46,0,0,1,2.41.28,7.27,7.27,0,0,1,2.16,1,9.7,9.7,0,0,0-4.51-.5,12.69,12.69,0,0,0-2.2.48,12.09,12.09,0,0,0-2.07.83l-.26.13-.24-.14a12.26,12.26,0,0,0-3.86-1.47A20,20,0,0,0,242.71,293.77Z"/><path class="cls-11" d="M178.4,243.17l-2.56-39.3s-17.61-39.36,16.77-58.31c0,0,7.3-17.17,41.51-22.17,0,0,28-15.68,69.12,16,0,0,18.12,24.66,17.95,40.53,0,0,11,7.75-1.14,32.51l-8.12,38.15s11.68-58.66-38.84-78.2c0,0-35.91-12.54-65.48,11.26,0,0-19.89,27.54-23.76,58.83C183.85,242.45,183.28,245.13,178.4,243.17Z"/><path d="M235.36,270.22a12.92,12.92,0,0,0-1.28,3.8,5,5,0,0,0,.64,3.59,7.71,7.71,0,0,0,3,2.34c.62.23,1.22.52,1.86.74s1.3.39,1.95.64c-.68,0-1.37-.11-2.07-.16s-1.36-.32-2-.49a7.21,7.21,0,0,1-3.5-2.52,5.25,5.25,0,0,1-.57-4.3A8.52,8.52,0,0,1,235.36,270.22Z"/><path d="M268.73,271.39a7.64,7.64,0,0,1,1.38,3,7.87,7.87,0,0,1,.07,3.35,7.68,7.68,0,0,1-.53,1.62,7.17,7.17,0,0,1-.91,1.42,7.44,7.44,0,0,1-2.59,2,15.89,15.89,0,0,0,2-2.47,8,8,0,0,0,1.1-2.79A12.75,12.75,0,0,0,268.73,271.39Z"/><path d="M244.37,274.17a16.2,16.2,0,0,0,1.65,1.44,12.77,12.77,0,0,0,1.79,1.21,9.45,9.45,0,0,0,4,1.3,7.25,7.25,0,0,0,4-.87l.49-.22.44-.3.89-.62c.57-.44,1.09-1,1.67-1.42-.46.57-.92,1.15-1.43,1.7l-.86.72-.43.36-.49.29a7.08,7.08,0,0,1-4.38,1.11,8.74,8.74,0,0,1-4.23-1.56A11.83,11.83,0,0,1,244.37,274.17Z"/><path d="M238.37,274a6.73,6.73,0,0,1,1.74-.75A6.09,6.09,0,0,1,242,273a4.25,4.25,0,0,1,1.86.57,4.92,4.92,0,0,1,1.46,1.3l.41.49-.64-.09C242.76,274.92,240.42,274.34,238.37,274Zm0,0c2.47.33,4.64.48,6.81.83l-.24.4a4.75,4.75,0,0,0-1.3-1.19,4.08,4.08,0,0,0-1.67-.59A7.27,7.27,0,0,0,238.37,274Z"/><path d="M263.92,275a5.75,5.75,0,0,0-3.22-.64,3.23,3.23,0,0,0-1.44.6,4.18,4.18,0,0,0-1,1.21l-.29-.36a18.73,18.73,0,0,1,3-.7c.5-.07,1-.13,1.51-.16A9.66,9.66,0,0,1,263.92,275Zm0,0c-.48,0-1,.09-1.49.18s-1,.17-1.47.29c-1,.24-1.94.5-2.87.81l-.61.21.32-.57a4.28,4.28,0,0,1,1.17-1.34,3.29,3.29,0,0,1,1.69-.62,4.62,4.62,0,0,1,1.74.24A5.53,5.53,0,0,1,263.92,275Z"/><path d="M242.71,246.79a11.33,11.33,0,0,1,1.68,4.48,16,16,0,0,1,0,4.84,17.86,17.86,0,0,1-1.45,4.6,22.64,22.64,0,0,1-1.16,2.11c-.47.65-.94,1.29-1.44,1.91.31-.74.7-1.43,1-2.15s.64-1.43.88-2.17c.12-.36.24-.73.38-1.09s.2-.75.31-1.12c.23-.73.34-1.49.5-2.24a21.38,21.38,0,0,0,.2-4.59A17,17,0,0,0,242.71,246.79Z"/><path class="cls-11" d="M291.27,326.61l-5.72,52.22s-24.79,32.83-40.46,26.86c0,0-56.15-39.21-55.91-74l1.52-29.54s6.09,29.44,31,44.25c0,0,28.26,15.48,49.71,2.2C271.43,348.58,286.39,334.11,291.27,326.61Z"/><path class="cls-12" d="M188.27,330.73s-20.33,16.4-28.61,20.53c0,0-107.48,26.62-117.71,31.29,0,0-12.79-.06-16.34,35.07,0,0-37,138.44-35.81,203.57,0,0-10.94,46.69-6.2,60.8,0,0-3.15,189.34,15,235.89,0,0,26.62,3.26,43.88-8.34l27.43-53.08s46.75-57.06,59.93-101.35l27.52-72.26s13.83-96,13.18-127.39C170.51,555.46,173.19,346.6,188.27,330.73Z"/><path class="cls-11" d="M159.92,351.27s-31.28,30.4-36.62,49.84l21.27,23.27L113.4,434.91s22.69,198.38,44.19,248"/><path class="cls-12" d="M294,359.3s56.71,23.49,67.51,30.26c0,0,25.57,16.59,33.68,17.45,0,0,28.8,7.41,22.76,129.82,0,0-5.9,135.19-20.58,189.31,0,0-7.71,37.5-13.18,44.28a412.73,412.73,0,0,1-4.58,64.35s3.31,21.62-15.62,47.69l-12.54,26.29a24.83,24.83,0,0,0-17.91-19.81s-4.75-46.65-16.26-50c0,0-15.66-17.41-8.32-44.46a12,12,0,0,0,2.27-15s-1.82-80.84-6.95-100.2c0,0,14.58-117.46,6.36-164.82,0,0-1.27-79.67-11-100.35,0,0,1.71-15.63-7.09-13.32Z"/><path class="cls-11" d="M310,366l33.63,42.82L331.5,430.58,356,448s9.86,22.13-11.33,104.2c0,0-7.49,17.23-9.3,35.77,0,0,13.61,26,8.3,78.16,0,0,21.21,140.8-26.4,172.84,0,0-15-19.71-8.32-44.46,0,0,7.61-1.48,2.27-15s-.06-2.32-.06-2.32.2-68-6.89-97.88c0,0,14.7-120.95,6.36-164.82,0,0-1.21-81.41-11-100.35,0,0,2.83-14.43-7.09-13.32L294,359.3Z"/><path class="cls-11" d="M288.66,349.78s5.44,6,4.73,26.35l-.87,24.67s-25,5.81-34.89,11.85c0,0-7.89-7.06-16.45-.58,0,0-17.5-9.13-25.45-8.83,0,0-11.6-6.33-12,.69l-2.77,12.74L178.85,384.9s4.83-50.2,10.41-55a53,53,0,0,0,11.27,31.3s21,27.34,38,38.7l6.58,4.93s13.1,7.56,40.46-26.87Z"/><path class="cls-11" d="M201.08,415.94a7,7,0,0,1-.43,1.34c-1,2.42-4.64,11.38-2.59,14.79a74.77,74.77,0,0,1,2.86,14.25,7.7,7.7,0,0,0,.58,2.37c1,2.22,3.1,6.51,4.45,4.42a9,9,0,0,1,1.2-1.59,15.33,15.33,0,0,1,8-4.39,7.15,7.15,0,0,0,2.07-.66c4.23-2.1,18.95-9.56,23.6-13.83a7.21,7.21,0,0,1,5-1.9l7.45.05a7.39,7.39,0,0,1,5.07,2.09c3.67,3.56,11.68,10.52,18.85,11.24a6.68,6.68,0,0,1,2.1.57c3,1.35,11.24,4.56,11.69,0a8.89,8.89,0,0,1,.32-1.77c.94-3,3.68-12.28,3.54-19.08a7.34,7.34,0,0,1,2.53-5.94,6.15,6.15,0,0,0,1.62-2.22,7.21,7.21,0,0,0,.66-2.86c.11-3.72-.24-13.75-7.16-12,0,0-21.54,5.4-31.45,10a7.12,7.12,0,0,1-6.33-.17,11.65,11.65,0,0,0-10.71-.22,7.4,7.4,0,0,1-6.29.05c-5.46-2.55-16-7.17-20.83-7.27a7.31,7.31,0,0,1-2.65-.56c-3.17-1.29-10.39-3.69-10.57,1.34Z"/><path class="cls-11" d="M241.18,412.07s4.29,10.23,1.09,18.64l14.07.11s4.37-12.25,1.29-18.17C257.63,412.65,250.72,405.24,241.18,412.07Z"/><path d="M234.13,437.35q.35,24.4.37,48.81c0,8.14,0,16.28-.16,24.41s-.25,16.28-.89,24.4c-3.42,32.37-7,64.71-10.28,97.08q-1.24,12.15-2.4,24.29c-.89,8.08-.9,16.22-1.24,24.35l-.84,24.38-.41,12.2-.21,6.09-.11,3v3.05c-.07,8.15-.52,16.29-1.3,24.4s-1.9,16.19-3.46,24.19a167.94,167.94,0,0,1-6.33,23.62,113.77,113.77,0,0,1-4.73,11.3A83.16,83.16,0,0,1,196,823.56l-.35-.75c5.8.4,11.63.54,17.44.38,2.91-.1,5.8-.29,8.67-.67l2.14-.34c.71-.13,1.4-.31,2.1-.46s1.36-.43,2-.64a17.89,17.89,0,0,0,1.88-.88l-.22.37,27.48-291.14v0l-.85-98.64,0,.05-14.07-.14h0a20.64,20.64,0,0,1-3.77,3.7A36.84,36.84,0,0,1,234.13,437.35Zm0,0a36.76,36.76,0,0,0,4.37-3,20.53,20.53,0,0,0,3.75-3.7h0l14.07.07h.06v.06l1.27,98.63h0v0l-27,291.19,0,.27-.2.1a21.64,21.64,0,0,1-2.07,1c-.71.22-1.41.51-2.14.66s-1.44.35-2.17.48l-2.18.35c-2.92.37-5.85.56-8.78.66-5.85.15-11.7,0-17.54-.41l-.83-.06.48-.69a82.8,82.8,0,0,0,6.13-10.45,113.23,113.23,0,0,0,4.7-11.2,166.75,166.75,0,0,0,6.34-23.48c1.56-8,2.7-16,3.48-24.1s1.25-16.21,1.34-24.33V726.4l.11-3,.22-6.1.44-12.19.87-24.4c.36-8.12.38-16.28,1.29-24.38s1.59-16.2,2.43-24.29c3.37-32.37,6.94-64.72,10.47-97.06.67-8.09.81-16.24,1-24.36s.24-16.27.28-24.41Q234.39,461.76,234.13,437.35Z"/><circle class="cls-11" cx="246.54" cy="482.26" r="4.65"/><circle class="cls-11" cx="243.64" cy="561.19" r="4.65"/><path class="cls-11" d="M230.2,821.07c21.38-2.49,46.36-7.78,55.23-19.05,0,0,12.57-5,16.18-8.34,0,0,17.3,3.71,9.6-14.19,0,0-.79-82.36-6.95-100.2,0,0,14.38-150.4,6.36-164.82,0,0-1-87.79-11-100.35a13.34,13.34,0,0,1-2.21,3.74,8.67,8.67,0,0,0-2.53,5.94s-1.34,15.09-3.54,19.08c0,0,1.91,8.35-14.7,1.16,0,0-6.73.07-20.29-13.22l1.07,98.63L231.09,810.57l-.89,10.5a340.33,340.33,0,0,1-34.62,2.21"/><path d="M183.1,261.77a55.31,55.31,0,0,0-3.09-6.56,19.43,19.43,0,0,0-4.26-5.67,3.6,3.6,0,0,0-3-1,4.41,4.41,0,0,0-2.51,2,6.31,6.31,0,0,0-.93,3.21c0,1.12.16,2.38.27,3.56a51.28,51.28,0,0,0,3,14,8.09,8.09,0,0,0,.77,1.56,6,6,0,0,0,1.17,1.25,6.54,6.54,0,0,0,3.19,1.31,8.73,8.73,0,0,0,1.78.05,3.3,3.3,0,0,1,1.79.57,8,8,0,0,1,2.42,2.73,8.59,8.59,0,0,0-2.55-2.51,3.14,3.14,0,0,0-1.65-.41,9.44,9.44,0,0,1-1.85.06,7,7,0,0,1-3.51-1.3,6.4,6.4,0,0,1-1.36-1.34,8.68,8.68,0,0,1-.9-1.66,34.06,34.06,0,0,1-2.2-7,68.34,68.34,0,0,1-1.14-7.23c-.1-1.23-.23-2.39-.23-3.69a7.15,7.15,0,0,1,1.12-3.67,6.41,6.41,0,0,1,1.29-1.46,4.16,4.16,0,0,1,1.79-.9,3.39,3.39,0,0,1,2,.18,5.48,5.48,0,0,1,1.65,1,13.76,13.76,0,0,1,2.4,2.84,31.45,31.45,0,0,1,1.81,3.19A48.72,48.72,0,0,1,183.1,261.77Z"/><path d="M312.05,261.87a44.59,44.59,0,0,1,2-6.42,20,20,0,0,1,1.53-3,9.36,9.36,0,0,1,1.08-1.38,3,3,0,0,1,1.64-.91,2,2,0,0,1,1.85.76,2.18,2.18,0,0,1,.42.93,2.73,2.73,0,0,1,.05.5v.43q0,1.68-.12,3.36c-.13,2.25-.32,4.49-.6,6.72a63.06,63.06,0,0,1-1.29,6.63,27.74,27.74,0,0,1-2.35,6.37c-1.08,2-2.54,3.95-4.82,4.77a2.26,2.26,0,0,1-.93,0,4.6,4.6,0,0,0-.8-.15,1.86,1.86,0,0,0-1.41.53,5.31,5.31,0,0,0-1.14,3,5.1,5.1,0,0,1,.95-3.21,2.17,2.17,0,0,1,1.6-.73,5.35,5.35,0,0,1,.86.1,1.79,1.79,0,0,0,.73-.08,9,9,0,0,0,4.28-4.66,42.8,42.8,0,0,0,3.33-12.78c.31-2.2.53-4.41.68-6.63.08-1.11.13-2.22.17-3.33v-.42a1.84,1.84,0,0,0,0-.33,1.55,1.55,0,0,0-.25-.59,1.19,1.19,0,0,0-1.09-.5c-.88.1-1.67,1-2.28,1.88a20.72,20.72,0,0,0-1.62,2.88A55.79,55.79,0,0,0,312.05,261.87Z"/><path class="cls-11" d="M42.88,382.59S71.76,614.18,56.05,714.17c0,0,8.2-1.7,5.49,9.37,0,0,13.94,83,2,110a26.25,26.25,0,0,1-.11,19.76s6.17-2.2,5.41,7.14"/><path class="cls-11" d="M395.17,407s8.91,159-48.86,282.47"/><path d="M27.35,458.86c.39,4.2.9,8.38,1.47,12.56s1.17,8.35,1.86,12.51c1.38,8.32,3,16.6,5.07,24.78a199.69,199.69,0,0,0,7.37,24.16,113.28,113.28,0,0,0,5.1,11.56,75.18,75.18,0,0,0,6.56,10.79,89,89,0,0,1-12-22.23,197.77,197.77,0,0,1-7.54-24.17c-2-8.2-3.59-16.5-4.92-24.83S28,467.27,27.35,458.86Z"/><path d="M6.89,541.59l11.4,8.29,11.35,8.33-.22.19c-1.62-3.19-3.15-6.43-4.56-9.73-.7-1.65-1.37-3.31-1.95-5a17.12,17.12,0,0,1-1.19-5.29,1.48,1.48,0,0,1,.66-1.33,1.89,1.89,0,0,1,1.47.17,11.32,11.32,0,0,1,2.26,1.52,49.08,49.08,0,0,1,3.92,3.7c2.49,2.59,4.85,5.29,7.15,8h0v0A109.46,109.46,0,0,1,44,564.66a76.73,76.73,0,0,1,4.38,15.07,41.06,41.06,0,0,1,.66,7.83,26.82,26.82,0,0,1-1.18,7.75,17.77,17.77,0,0,1-3.91,6.77,20.64,20.64,0,0,1-6.36,4.51A20.36,20.36,0,0,0,43.84,602a17.4,17.4,0,0,0,3.78-6.76,27.35,27.35,0,0,0,1.12-7.69,39.83,39.83,0,0,0-.7-7.77,76.82,76.82,0,0,0-4.43-15,110.58,110.58,0,0,0-6.82-14.07l0,0c-2.32-2.73-4.65-5.44-7.11-8a49.71,49.71,0,0,0-3.86-3.69,11.9,11.9,0,0,0-2.17-1.48,1.52,1.52,0,0,0-1.11-.17c-.29.13-.41.56-.43,1a17.34,17.34,0,0,0,1.14,5.14c.58,1.68,1.23,3.34,1.93,5,1.38,3.29,2.9,6.54,4.49,9.74l.29.57-.52-.38-11.3-8.41Z"/><path d="M332,469.54c3.7,1.79,7.32,3.75,10.94,5.69s7.19,4,10.7,6.13c-3.71-1.79-7.32-3.75-10.94-5.69S335.46,471.69,332,469.54Z"/><path d="M92.86,449.73a442.39,442.39,0,0,1,8.6,56.55,468.6,468.6,0,0,1,1.8,57.19c-.27,9.54-1,19.07-2,28.56S98.81,611,97,620.33l-1.43,7-1.66,7c-.29,1.16-.54,2.32-.85,3.47l-1,3.45c-.66,2.29-1.23,4.61-2,6.88a255.21,255.21,0,0,1-10,26.81A257.45,257.45,0,0,0,89.92,648c.72-2.27,1.29-4.59,1.94-6.88l1-3.45c.31-1.15.56-2.31.84-3.47l1.63-7,1.41-7a361.22,361.22,0,0,0,6.08-56.81,469.94,469.94,0,0,0-1.64-57.15q-1.25-14.25-3.3-28.41C96.48,468.46,94.9,459.05,92.86,449.73Z"/><path class="cls-11" d="M178.85,384.9l22.23,31s-4.57,10.16-3,16.13c0,0,2.13,8.44,2.86,14.25,0,0,2.55,9.53,5,6.79,0,0,3.91-5.12,9.25-6l18.93-9.78s3.54,88.35-1.24,100.93L219.74,664.51l-2.17,61.91s-.46,73.14-22,96.86L184.74,823s-15,6.71-27.61,2.79l-52.81-16.45s17.28-30.2,26.43-54.21l27.52-72.26s12.42-90.13,13.18-127.39C171.45,555.5,173.27,446.75,178.85,384.9Z"/><path class="cls-13" d="M177.78,241.72l-2.57-39.34S156.55,162.6,192,144c0,0,9.72-17.1,41.63-22.2,0,0,22.92-14.59,69.31,16,0,0,18.76,23.42,18,40.57,0,0,9.95,8.11-1.14,32.53l-8.14,38.19,4.45-4.69s17.59-9.81,5.91,22l-.73,18.3s-4.21,21-16.67,10.28c0,0-6.86,22.44-13.66,30.22l-2.62,23.19s2.09,3.36,5.33,9.53l17.66,7.41,50,22.88s26,17.15,33.77,17.47c0,0,38.9,8.7,18.39,217.71,0,0-11.18,114.17-29.4,146,0,0,4.59,86.79-20.25,112.14l-12.57,26.32-13.4,21.23S273,956.8,190.32,957c0,0-100.79-.37-161.33-25.15,0,0-.32-13.41,12.51-23.12,0,0-.44,6.8-44,8.34,0,0-17.47-78.76-15-236.1,0,0-.52-38.13,6.21-60.86,0,0,15.19-140.22,35.9-203.75,0,0,.49-33,19.91-36.4l109.27-28.72s16.48-5.64,33.92-21.84l2.43-28.63-2.21-11.61s-6.82,8.49-17.05-5.13C170.85,284,153.73,229.37,177.78,241.72Z"/></g></svg>