<svg xmlns="http://www.w3.org/2000/svg" viewBox="0 0 120.21 179.13"><defs><style>.cls-1{fill:#892e30;}.cls-2{fill:#11151e;}.cls-3{fill:#010102;}.cls-10,.cls-12,.cls-4,.cls-6,.cls-9{fill:none;}.cls-4,.cls-6{stroke:#060709;}.cls-10,.cls-12,.cls-4,.cls-6,.cls-7{stroke-linecap:round;}.cls-11,.cls-12,.cls-4,.cls-8,.cls-9{stroke-miterlimit:10;}.cls-4{stroke-width:0.18px;}.cls-5{fill:#0c0f15;}.cls-10,.cls-6,.cls-7{stroke-linejoin:round;}.cls-6{stroke-width:0.36px;}.cls-10,.cls-7{stroke:#1c1a1b;}.cls-10,.cls-11,.cls-12,.cls-7,.cls-8,.cls-9{stroke-width:0.72px;}.cls-8{fill:#d6ced2;stroke:#bcb3b8;}.cls-11,.cls-12,.cls-9{stroke:#000;}.cls-11{fill:#e2dcdf;}.cls-13{fill:#7c94cb;}.cls-14{fill:#060709;}.cls-15{fill:#6980af;}</style></defs><g id="Capa_2" data-name="Capa 2"><g id="Capa_1-2" data-name="Capa 1"><path class="cls-1" d="M19.43,0h81.36a19.43,19.43,0,0,1,19.43,19.43V178.95a0,0,0,0,1,0,0H0a0,0,0,0,1,0,0V19.43A19.43,19.43,0,0,1,19.43,0Z"/><path class="cls-2" d="M56.94,137.19A131.15,131.15,0,0,0,43,141.36c-4.77,1.61-9.68,3.24-13.4,6.13a6.1,6.1,0,0,0-1,.8c-.39.5-.23,1.07-.4,1.69-.94,3.45-1.86,7.63-2.65,11.87C24.2,169,22.78,176.18,23,179l81.17-.19s-5.3-21.36-9.43-27.66h0s-.17-1.69-6.08-5.14c-3.51-2.05-9.12-4.65-17.77-8.1Z"/><polygon class="cls-3" points="78.55 140.87 74.2 147.4 73.62 145.45 78.41 140.73 78.55 140.87"/><line class="cls-4" x1="47.54" y1="139.51" x2="46.7" y2="140.46"/><path class="cls-5" d="M48,139.92l-1.06.34.65-.75Z"/><path class="cls-6" d="M48,139.92s-14,3.51-19.36,8.37c0,0-6.18,25.53-5.63,30.66l81.17-.19c-.24-.88-.48-1.75-.73-2.62q-.9-3.19-1.85-6.36c-.78-2.62-1.59-5.24-2.44-7.84-.77-2.38-1.57-4.75-2.49-7.08a15,15,0,0,0-4.47-6.59,36.15,36.15,0,0,0-5.7-3.58,84.15,84.15,0,0,0-8.32-3.78L70.39,138l-12.26-.2-6.66,1.86Z"/><path class="cls-5" d="M78.49,140.54l.56.78-.92-.41Z"/><line class="cls-4" x1="78.36" y1="140.45" x2="79.2" y2="141.39"/><polygon class="cls-5" points="55.95 136.48 47.54 139.51 53.41 145.39 47.95 164.76 56.05 171.47 55.95 136.48"/><polygon class="cls-6" points="47.74 139.71 53.41 145.39 47.95 164.76 55.88 171.47 55.95 137.47 55.95 136.48 47.61 139.58 47.74 139.71"/><polygon class="cls-5" points="70.9 136.48 78.36 140.45 73.43 145.39 79.17 164.75 74.86 171.47 70.9 136.48"/><polygon class="cls-6" points="78.22 140.67 73.43 145.39 79.22 164.79 74.86 171.47 71.01 137.46 70.9 136.48 78.35 140.54 78.22 140.67"/><path class="cls-7" d="M63.19,44.28s-17.31-4-20.29,12.25c0,0-19.87-12.58-27.16,11.26s2,17.88,2,17.88-9.89,4-4.78,10.6,13.89,7.62,13.89,7.62l20.7-3.31,18.54-3.65,14.57,5.13,17.23,7.56s15.56,1.71,9.6-19.23c0,0,10.27-23.26-22.52-26.9C85,63.49,82.72,37.65,63.19,44.28Z"/><path class="cls-8" d="M68.08,63.64c9.72-.27,19.41,2.83,25.06,11.14,7,10.32,7.94,27.34,2.58,38.59-3.66,7.68-10.38,13.38-18,16.92A39.46,39.46,0,0,1,70.11,133l.83,8.61a13.68,13.68,0,0,1-14.57,0v-8.78c-10.07-2.82-19.73-8.32-25-17.63C21.07,97.12,29,72.6,48.83,66a55,55,0,0,1,19.25-2.35"/><line class="cls-9" x1="80.05" y1="104.9" x2="99.67" y2="95.32"/><path d="M63.19,61.69S25.51,60.59,26,98.39a6.24,6.24,0,0,0,4.82,1.23c2.91-.61,6.45-4,9.42-13.59,0,0,9.66,8.06,22.94-9.61,0,0,7.53,7.4,21.11,7.07,0,0,7.34,16.81,15.54,11C99.84,94.48,100.73,58.12,63.19,61.69Z"/><ellipse cx="78.87" cy="97.67" rx="1.3" ry="2.1"/><ellipse cx="46.55" cy="97.67" rx="1.3" ry="2.1"/><line class="cls-9" x1="45.99" y1="105.4" x2="26.01" y2="98.39"/><path class="cls-10" d="M23.36,95.63C33.63,108.88,40.25,86,40.25,86c10.6,7.28,22.94-9.61,22.94-9.61C74.41,85,84.3,83.49,84.3,83.49s8,19.43,17.22,9.49"/><path class="cls-10" d="M41.75,67.26c-5.36-3.67-9.27-.42-9.52,4.73-1.51.29-4.11.27-5.39,1.12-2.64,1.77-.3,8,1.44,10.26"/><path class="cls-11" d="M71.3,104.25c-.6.43-.35,2.62-.21,3.17,1,4,7.16,3.9,8.67.33a4.16,4.16,0,0,0,.29-1.75c0-.46-.18-2.08-.61-2.33A7.87,7.87,0,0,0,71.3,104.25Z"/><path class="cls-11" d="M54.73,104.25c.61.43.36,2.62.21,3.17-1,4-7.16,3.9-8.66.33A4,4,0,0,1,46,106c0-.46.18-2.08.61-2.33A7.85,7.85,0,0,1,54.73,104.25Z"/><line class="cls-9" x1="55.11" y1="106" x2="70.92" y2="106"/><path class="cls-12" d="M60.24,121.3s2.53,4,5.35,0"/><path class="cls-13" d="M56,139.46s11.33,3.94,15.14-.25L75.46,179H56.07Z"/><line class="cls-6" x1="36.79" y1="164.96" x2="35.69" y2="178.76"/><line class="cls-6" x1="87.94" y1="164.96" x2="90.73" y2="178.76"/><polygon class="cls-14" points="53.58 145.27 54.99 148.91 53.44 145.77 53.58 145.27"/><polygon class="cls-15" points="67.38 178.93 68.07 170.2 67.91 178.95 67.38 178.93"/><polygon class="cls-15" points="56.05 151.93 58.02 167.5 56.05 159.71 56.05 151.93"/><path class="cls-15" d="M68.6,140.69l4,11.88-1.47-13.36A5.56,5.56,0,0,1,68.6,140.69Z"/><polygon class="cls-3" points="47.65 140.02 52.62 147.55 53.21 145.45 47.75 139.98 47.65 140.02"/><polygon class="cls-14" points="73.62 151.02 75.85 157.97 76.74 164.71 74.58 158.29 73.62 151.02"/></g></g></svg>