<svg xmlns="http://www.w3.org/2000/svg" viewBox="0 0 120.21 178.95"><defs><style>.cls-1{fill:#892e30;}.cls-2,.cls-4{fill:#101912;}.cls-13,.cls-3{fill:#142316;}.cls-4{stroke:#101914;}.cls-12,.cls-13,.cls-14,.cls-16,.cls-4,.cls-8{stroke-linejoin:round;}.cls-10,.cls-11,.cls-12,.cls-13,.cls-14,.cls-16,.cls-4,.cls-5,.cls-7,.cls-8{stroke-width:0.81px;}.cls-5{fill:#d6ced2;stroke:#bcb3b8;}.cls-10,.cls-11,.cls-15,.cls-5,.cls-7{stroke-miterlimit:10;}.cls-6,.cls-8{fill:#040505;}.cls-11,.cls-12,.cls-14,.cls-15,.cls-7{fill:none;}.cls-10,.cls-7{stroke:#96766f;}.cls-12,.cls-8{stroke:#161919;}.cls-11,.cls-12,.cls-13,.cls-14,.cls-15,.cls-16,.cls-8{stroke-linecap:round;}.cls-9{fill:#120d0a;}.cls-10{fill:#ad9ea7;}.cls-11{stroke:#000;}.cls-13,.cls-15{stroke:#101912;}.cls-14,.cls-16{stroke:#363836;}.cls-15{stroke-width:0.61px;}.cls-16{fill:#363836;}</style></defs><g id="Capa_2" data-name="Capa 2"><g id="Capa_1-2" data-name="Capa 1"><path class="cls-1" d="M19.43,0h81.36a19.43,19.43,0,0,1,19.43,19.43V178.95a0,0,0,0,1,0,0H0a0,0,0,0,1,0,0V19.43A19.43,19.43,0,0,1,19.43,0Z"/><path class="cls-2" d="M68.2,120.12c-.43-.16-.93-.39-2.54-.89,0,0-13.38-.7-15,1l5.5,6.77Z"/><path class="cls-3" d="M25.52,178.42c-.77-14.61-1-26.5-.83-35.33a16.76,16.76,0,0,1,13.71-16A77.72,77.72,0,0,1,52.1,126H68.73a126.35,126.35,0,0,1,13.12,1.09,16.52,16.52,0,0,1,14.22,16.28l.46,35Z"/><path class="cls-2" d="M68.72,126.4a128.09,128.09,0,0,1,13.07,1.09,16.14,16.14,0,0,1,13.88,15.89L96.12,178H25.9c-.75-14.44-1-26.18-.8-34.92a16.33,16.33,0,0,1,13.37-15.61A77.77,77.77,0,0,1,52.1,126.4H68.72m.42-.81h0Zm-.41,0H52.1a78.25,78.25,0,0,0-13.77,1.1,17.08,17.08,0,0,0-14,16.39c-.18,7.06-.08,18.27.85,35.75h71.8l-.46-35.46a17,17,0,0,0-14.57-16.68,127,127,0,0,0-13.18-1.1Z"/><path class="cls-4" d="M87.76,129.45s-.74,3.5-1.91,4.24c0,0,1.72-.18,4.76-2.35Z"/><path class="cls-5" d="M64.53,45.11c10.19-.28,19.88,3.91,25.8,12.62,7.35,10.82,8.8,27.73,3.18,39.52-3.84,8-10.88,14-18.87,17.74a41.71,41.71,0,0,1-8,2.86l.87,9a14.33,14.33,0,0,1-15.28,0v-9.2C41.7,114.72,31.57,109,26,99.19c-10.78-19-2.48-44.68,18.33-51.61a57.86,57.86,0,0,1,20.18-2.47"/><polygon class="cls-6" points="41.61 83.49 33.27 81.88 41.92 81.11 41.61 83.49"/><polygon class="cls-6" points="76.15 83.5 84.49 81.89 75.84 81.11 76.15 83.5"/><line class="cls-7" x1="77.08" y1="92.29" x2="97.65" y2="82.24"/><path class="cls-8" d="M88.61,58.81c-.32,5.39.45,7.9.35,13.3-.09,5.19-.4,10.45.15,15.6.37,3.41,1.53,6.33,2.45,9.42a33.55,33.55,0,0,1,1.35,10.42,75.51,75.51,0,0,1-2.62,18c-.61,2.15-1.62,5.9-3,7.16L96.93,124s3.79-43.55-.54-54Z"/><ellipse cx="75.84" cy="83.36" rx="1.36" ry="2.2"/><path class="cls-9" d="M77.2,83.36a3.28,3.28,0,0,1-.28,1.38,1.15,1.15,0,0,1-2.22,0,3.3,3.3,0,0,1-.32-1.41A3.24,3.24,0,0,1,74.7,82a1.36,1.36,0,0,1,1.14-.84,1.33,1.33,0,0,1,1.08.87A3.28,3.28,0,0,1,77.2,83.36Zm0,0A3.23,3.23,0,0,0,76.89,82a1.26,1.26,0,0,0-1-.78,1.23,1.23,0,0,0-1,.81,3.32,3.32,0,0,0,0,2.67,1.23,1.23,0,0,0,1,.82,1.28,1.28,0,0,0,1-.79A3.19,3.19,0,0,0,77.2,83.36Z"/><ellipse cx="41.96" cy="83.36" rx="1.36" ry="2.2"/><path class="cls-9" d="M43.32,83.36A3.13,3.13,0,0,1,43,84.74a1.14,1.14,0,0,1-2.21,0,3.17,3.17,0,0,1-.33-1.41A3.11,3.11,0,0,1,40.83,82,1.14,1.14,0,0,1,43,82,3.13,3.13,0,0,1,43.32,83.36Zm0,0A3.09,3.09,0,0,0,43,82a1,1,0,0,0-2,0,3.44,3.44,0,0,0,0,2.67,1.24,1.24,0,0,0,1,.82,1.27,1.27,0,0,0,1-.79A3,3,0,0,0,43.32,83.36Z"/><line class="cls-7" x1="41.37" y1="92.81" x2="20.68" y2="85.56"/><path class="cls-8" d="M28.85,57.73c.31,5.39.39,8.92.48,14.33.09,5.18.39,10.45-.14,15.6-.35,3.41-1.47,6.32-2.34,9.42a34.69,34.69,0,0,0-1.29,10.42,79.19,79.19,0,0,0,2.5,18c.59,2.15,1.55,5.9,2.88,7.15L21.72,124s-3.63-43.55.52-54Z"/><path class="cls-10" d="M67.91,91.61c-.63.45-.37,2.74-.22,3.32,1.09,4.14,7.51,4.09,9.08.35a4.28,4.28,0,0,0,.31-1.84c0-.48-.19-2.18-.64-2.44A8.22,8.22,0,0,0,67.91,91.61Z"/><path class="cls-10" d="M50.54,91.61c.63.45.37,2.74.22,3.32-1.09,4.14-7.51,4.09-9.08.35a4.13,4.13,0,0,1-.31-1.84c0-.48.19-2.18.64-2.44A8.22,8.22,0,0,1,50.54,91.61Z"/><line class="cls-7" x1="50.94" y1="93.44" x2="67.51" y2="93.44"/><path class="cls-11" d="M56.32,105.56s2.65,4.17,5.6,0"/><path class="cls-8" d="M39.25,78.68H75.52l.63-11,1.54,11,18.83-.83c3.83,0-2.48-15.22-3.28-16.79a32.29,32.29,0,0,0-11.66-12.5c-20.09-13.09-51-6-59.84,22.6-.08.26-1,7.39-1.09,7.65.22-.8,15-.13,16.51-.13l1.38-13.31Z"/><path class="cls-8" d="M87.37,67.48s1.86,6.16,1.39,10.22"/><polygon class="cls-6" points="29.08 78.94 21.06 79.05 21.15 78.18 29 77.73 29.08 78.94"/><path class="cls-12" d="M30.21,65.82s-1.62,7.52-.8,12.48"/><polygon class="cls-6" points="97.65 79.62 89.22 78.59 89.2 77.76 97.04 76.05 97.34 75.96 97.6 78.16 97.65 79.62"/><line class="cls-13" x1="39.42" y1="142.62" x2="39.42" y2="177.98"/><line class="cls-13" x1="81.22" y1="142.85" x2="82.46" y2="178.18"/><path class="cls-3" d="M50.93,120.5s5.72,3.15,17.18-.32l1.51,11.23a40.72,40.72,0,0,1-19.27-.13Z"/><path class="cls-2" d="M60.61,126.2l1.45,3.93s.11.52-.35.58H60.35V126.2Z"/><line class="cls-14" x1="59.98" y1="125.59" x2="59.98" y2="151.11"/><line class="cls-15" x1="50.82" y1="120.5" x2="50.41" y2="126.52"/><line class="cls-15" x1="68.03" y1="120.37" x2="68.94" y2="126.81"/><path class="cls-15" d="M50.93,120.5a29.26,29.26,0,0,0,17.1-.13"/><polygon class="cls-16" points="59.98 126.33 59.02 129.98 61.11 129.98 59.98 126.33"/><path class="cls-4" d="M96.18,151.93s-4.43,8-7,7.95c0,0,5.42,0,7-4.79Z"/><polygon class="cls-2" points="39.41 166.21 43.06 178.36 39.79 178.36 39.41 178.36 39.41 166.21"/></g></g></svg>