<svg id="Capa_1" data-name="Capa 1" xmlns="http://www.w3.org/2000/svg" xmlns:xlink="http://www.w3.org/1999/xlink" viewBox="0 0 520.54 562.33"><defs><style>.cls-1,.cls-13,.cls-14{fill:none;}.cls-2{fill:#781b1b;fill-rule:evenodd;}.cls-3{fill:#2f006d;}.cls-4{clip-path:url(#clip-path);}.cls-5,.cls-6{fill:#b38f79;}.cls-13,.cls-6{stroke:#000;}.cls-13,.cls-14,.cls-6,.cls-9{stroke-miterlimit:10;}.cls-7{fill:#070707;}.cls-8{fill:#adb317;}.cls-9{fill:#896551;stroke:#7f5a45;}.cls-10{fill:#777710;}.cls-11{fill:#fff;}.cls-12{fill:#160500;}.cls-14{stroke:#727211;}</style><clipPath id="clip-path"><ellipse class="cls-1" cx="238.22" cy="273.25" rx="191" ry="181.59"/></clipPath></defs><path class="cls-2" d="M517.45,252.38C504.18,164.3,449.22,106.75,374.2,48.46L334.75,17.81l.37-.37S319.71,7.88,318.28,7.21C306.17,1.6,292.5-1.15,279.18.45c-7.62.92-14.36,3.79-21.81,5.05Q229.7,10.16,202,14.79q-7.68,10.76-15.33,21.55c-14.53,11.21-44.35,12.22-69,7.93a10.21,10.21,0,0,0-11.85,11.51c13.4,15.59,16.88,43.52,37.79,49a51.58,51.58,0,0,1-12-30Q144.36,83.4,157.1,92c.63-1.29-11.29-24.4-10.32-24.73,11.73,5.72,25.76,12.91,37.48,18.63l-4-16.5c-.93-4.31,3.36-6.32,8.07-7.89,7.71-2.58,18.68.59,26.1,2.61,11.85,3.23,28.56,8,33.42,20.69,4.11,10.72-2.44,20.75-11.36,26.39-3.34,2.11-6.51,1.53-10.11,2.5-11.07,3-25.76-1.16-36.72-9.07,1.37,5.52,5.33,12.27,6.68,17.78-1.55,8.11-7.44,3.64-8.7,4.62-7.49-1.22-15-4.07-22.44-5.29,15.5,26.66,46.91,26.85,45.87,18.36,5-4.85,8.67-9.59,15.88-11.24,5-1.13,10.12-1,15.22-1.09,13.86-.24,33.42,1.76,44.4-8.69a5.85,5.85,0,0,1,1.72-1.33,5.22,5.22,0,0,1,1.93-.26c12.53-.06,25.2-1.93,37.59-1.93,5.35-.91,18.61,9.29,23.08,12.14A158.86,158.86,0,0,1,372.11,144a160.55,160.55,0,0,1,35.2,45.83c41.08,80.33,10.53,183.83-63.18,233.86-64.18,43.55-151,40.89-214.6-2.2a213.47,213.47,0,0,1-48.71-46c-65.75-86.39-29.21-218,69.82-262-6.94,3.09-27.15-3.1-36.4-1.55A92.33,92.33,0,0,0,83.88,123c-26.63,15.3-46.42,51.16-59.32,78C9.31,232.86.16,267.89,0,303.24a210.41,210.41,0,0,0,1.93,29.25C9.45,387.81,35.26,444,73.81,484.62c81.13,85.53,212.55,99.92,315.17,45.84C473.45,486,518.5,395.34,520.47,302A290.94,290.94,0,0,0,517.45,252.38Z"/><ellipse class="cls-3" cx="238.22" cy="273.25" rx="191" ry="181.59"/><g class="cls-4"><path class="cls-5" d="M185,294.1s3.94,29.95,1.85,53.17c0,0-4.28,8.87-7.32,10.24,0,0-4.11,10.83,9,23.57,0,0,19.41,24.3,49,25.19,0,0,27.77,5.65,55.64-22.33,0,0,9.15-10.45,5-15.58,0,0-23.08-2.81-24-23.09,0,0-.19-9.22,1.2-15.28,0,0-17.72,16.18-28,15.73l-20.81-2.86-17.95-12-16.07-20.72-7.64-16.49"/><path class="cls-6" d="M186.18,302.26s9.7,45.78,50.22,48.91c0,0,36.7,3.36,51.59-48.2,0,0,11.73-43.64,9.05-81.09,0,0,.41-6.6-6.55-12.26s-77.4-44.41-77.4-44.41l-51.8,30.84,13.93,45.24S180.7,264,186.18,302.26Z"/><path class="cls-7" d="M296,258.21s1.6-10.37,6.48-12.75c0,0,2.86-23.81,5.48-27.5,0,0,2.62.11,1.79-5.84,0,0,0-1.43,3.09-3.93s1.55-7.5,1.55-7.5L317,203A24.93,24.93,0,0,0,312.63,184s.61-15.72-16.6-36.56c0,0-3.52-2.85-4.23-6.66S274.29,126,274.29,126s-8.78-.45-15.57-6.07-32.23,2.41-32.23,2.41-13.28,6.64-18,8.07c0,0-5.12,1.25-4.59-3.46,0,0-4.4,4-5.77,6.91s-6.61,5.66-6.61,5.66-2.68,1.13-2.44-2.5c0,0-2.92,5.95-4.41,7.14s-4.64,2.2-8.39-2.32c0,0,.77,4.34-.72,5.71,0,0-12.44,21.2-15.42,35.37s-4,23.81-4,23.81,6.55,8.28,6,14.89c0,0,1.72,5.95,6,8.93s2.38,10.36,2.38,10.36,5.24,1,6.73-1.79l2.62,24,1.61-17.37s2.32-17.62.77-26.32c0,0,9.53-21.13,10-28.46,0,0,3.75-20.09,20-16.34S244,196.05,244,196.05a175.58,175.58,0,0,0,51.86,20.44S299.48,234.57,296,258.21Z"/><path class="cls-6" d="M290.32,293.12s1.83,6,8-4.61S310,258.21,310,258.21s4.28-13.46-7.45-12.75c0,0-4.22,1.15-6.48,12.75A313.21,313.21,0,0,1,290.32,293.12Z"/><path class="cls-6" d="M184.36,290.09s-7,4.46-11.64-5.1c0,0-5.89-6.07-11-37.15,0,0-2.14-9.61,8.66-6.9a39.3,39.3,0,0,1,5,1.14s2.71,5.46,4.34,21.11"/><path class="cls-8" d="M179.51,357.51s1.34-3.93-3.35,0c0,0-3.12,4.11-6.07,4.33a8.25,8.25,0,0,0-4.91,2.28,5,5,0,0,1-4.07,2.32c-2.94.22-5.76,4.11-5.76,4.11s-10.58,6.52-16,8.12c0,0-2.14-.71-5.09,1.34a39.2,39.2,0,0,0-8.39,3.58l-15.21,5.71s-4.17,1.12-9.35,5.76c0,0-6.61,3.66-9.33,4.42l-.4,1.61S83.33,416,76.72,428.42s-15.63,40.9-15.63,40.9L50.82,504.24s-6.34,16.25-6.69,20.63c0,0-2.06,5.62-2,7.76,0,0-2.95,6.52-3.39,11.08l-1.88,4s-1.78,2.59,1.79,3.84S57.88,564,71.27,571.08l1.25-19.78s37.33,9.38,59,13.22c0,0-2.05,40.78-3.54,44.65-1.61,4.35-7.68,27.09.66,42s22.74,33.58,22.74,33.58,18.93,22.51,30.36,44.53,34.06,45.13,34.06,45.13,5.12,2.26,16.31,17.74c0,0,10.6,15.25,23.7,11.08,0,0,16-.24,22.62-2.86a6.9,6.9,0,0,1,3.93-.24s5.12-4.05,11.31-21.07a71.64,71.64,0,0,0,8.46-16.32c3.45-9.52,15.71-37.15,15.71-37.15s19.41-53.1,30.49-65.84a67.53,67.53,0,0,1,5.71-11.08l-1.31-31.31s-4.28-3.1-1.19-21.32l2.5-19.41s45-2.5,59.66-6.19l11.55-3.1s1.56,0,.27-2.79-6.61-15.72-6.61-15.72-4.65-12.95-8.58-29.29S399,482.18,399,482.18s-6.73-16.2-9.46-41.26c0,0-2.86-16-4.38-21.21,0,0-18.84-28.44-35.45-38.45,0,0-10.48-1.72-17.21-4.58,0,0-3.57-3.28-9.76-1.67,0,0-6.2.66-8.82-3.21a18.75,18.75,0,0,1-8.21-.12,6.93,6.93,0,0,1-4.59-4.41,10.59,10.59,0,0,0-8.67-.28,44.22,44.22,0,0,0,5.68,1.37s5.49,7-11.95,21.87c0,0-18.35,14.56-35.94,16.1,0,0-21.2,2.26-40.22-7.83S180.62,370,180.62,370,178.2,363.58,179.51,357.51Z"/><path class="cls-9" d="M180.41,274.52s-1.45-4.36-2.81-5.32.68-6.1.68-6.1-.29-6-2.81-7.74-6.58,3-6.58,3-2.12,11.9,4.94,13.84C173.83,272.2,178.28,270.94,180.41,274.52Z"/><path class="cls-9" d="M294.23,275.68c-.2-.1,4.79-2,1.31-8.27,0,0,1.69-4.65,1.74-6.29s2.75.19,2.75.19a12.9,12.9,0,0,1,2.66,9.39C302,276.26,297.08,277.13,294.23,275.68Z"/><path class="cls-5" d="M72.55,551.3s-2.23,39.59-2.65,65.85a82.91,82.91,0,0,0,1.33,14.61c1.47,8.58.94,20.9.94,20.9s-1.52,10,.8,14,12.41,19.47,12.41,19.47,15.9,25.36,22.81,36.67c0,0,15.3,21.62,27,34.11,0,0,26.67,30.3,44.43,44.15,0,0,11.33,10.16,16,18.94,0,0,4.37,8.75,14.82,18.66a17.05,17.05,0,0,0,4.64,7.32,49.22,49.22,0,0,1,8.31,13.31c2.86,7.32,19.38,23,19.38,23s8.75,4.91,12.86,9.74a17.55,17.55,0,0,0,9.55,5.71s8.49,5.6,14.08,9.53c0,0,14.17,1.49,16.38-5.18s1.19-7.74,1.19-7.74a17.8,17.8,0,0,1,4.94.3c2,.53,4.11-3.64,4.11-3.64s1.72-1.84,1.49-6.37-1.79-6-1.79-6h7.92c1.19,0,3.15-3,3.15-3a8.87,8.87,0,0,0,1-8.75,22,22,0,0,0-2.45-3.93s3.76.42,5.78-4.88a8.1,8.1,0,0,0-1.79-8.75s-2.08-2.92-3.81-3.4l-6.72-1.6s-4.74-4-8.93-3.31c0,0-7.06-5.71-10.1-12.23a25.66,25.66,0,0,0-1.25-7.68,26.54,26.54,0,0,0,8.84,5s3.93,3.21,6.26,2.14c0,0,2.14,6.52,5.89,8.31,0,0,5.45,4.11,8.93,3.48s2.2-7.5,2.2-7.5S316,824.75,315,816.8a8,8,0,0,0-5.72-6c-4.82-1.16-14-6-14-6a43.52,43.52,0,0,0-12.86-4.74,4.68,4.68,0,0,0-3.93.24c-1.79,1.13-22.62,2.86-22.62,2.86s-14.12,4-26.14-14.38a68.37,68.37,0,0,0-15-15.59s-19-20.56-29.63-38.06c0,0-8.93-19.54-28.87-44.46,0,0-16.55-21.56-23.78-33.2s-7.51-17.85-7.51-17.85-2.6-10.84,3.08-30.49c0,0,2-5.9,3.54-44.65C131.55,564.52,99.55,558.44,72.55,551.3Z"/><path class="cls-10" d="M37.34,549.39s-1.77,1.14,5.49,4.72,16.83,11.16,26.25,15.73l2.48.87s.77-16.65,1-19.41a57.38,57.38,0,0,1-6.09-.94c-1.12-.24-2-.47-3.6-.71a20,20,0,0,0-3.62-.39,10.23,10.23,0,0,1-3.8-.22h0c-.38-.1-4.79-1.25-12.54.67C42.88,549.7,39.34,549.63,37.34,549.39Z"/><path class="cls-11" d="M202.25,241.41S214,229,226.31,243.2C226.31,243.2,205.71,248.91,202.25,241.41Z"/><path class="cls-11" d="M256.67,243.57s12.5,8,23.22,0C279.89,243.57,272.57,233.42,256.67,243.57Z"/><path class="cls-12" d="M207.88,237.63s-1,7.12,5.51,7.63,6.28-7.42,6.28-7.42S215.17,234.74,207.88,237.63Z"/><path class="cls-12" d="M263.27,240.61s-.59,6.74,5.19,6.5,5.5-7.26,5.5-7.26S269.55,237.57,263.27,240.61Z"/><path d="M193.89,224.62s23.49-2.5,37.51,5.63a9.82,9.82,0,0,0,3.48-6.79s-7.86-5.8-25.09-6.87C209.79,216.59,197.37,217,193.89,224.62Z"/><path d="M256.13,231.59a13.87,13.87,0,0,1-1.87-6.43s24-8.57,33.67-.89c0,0,3.84,2.73,3.57,6.9,0,0-7.23-6.64-20-3.24S256.13,231.59,256.13,231.59Z"/><path class="cls-13" d="M186.18,302.26s8.21,44.39,50.22,48.91c0,0,22,1.88,39-21.18"/><path class="cls-13" d="M37.81,551.19c-2.2-1.55-.47-1.8-.47-1.8a22.5,22.5,0,0,0,8.45-.35,25.1,25.1,0,0,1,9.65,0,106.36,106.36,0,0,1,17.08,2.26"/><path class="cls-13" d="M408.49,639.71a208.48,208.48,0,0,1-.63-31.43s-2-27.67-3.09-36.21c0,0-28.4,3.58-50.7,4.53,0,0-7.5,35.61,0,45.37,0,0,6.31,17.5,0,26.67,0,0-4.76,8.22-5.71,11.08a149.34,149.34,0,0,0-18,34.4s-9.9,23.4-13.16,33c0,0-7.39,16.35-12.23,28.47,0,0-5,13.83-11.27,23.48,0,0-5,13.81-11.31,21.07a4.68,4.68,0,0,0-3.93.24c-1.79,1.13-22.62,2.86-22.62,2.86s-14.12,4-26.14-14.38a68.37,68.37,0,0,0-15-15.59s-19-20.56-29.63-38.06c0,0-8.93-19.54-28.87-44.46,0,0-16.55-21.57-23.78-33.2s-7.51-17.85-7.51-17.85-2.6-10.84,3.08-30.49c0,0,2-5.9,3.54-44.65,0,0-32-6.08-59-13.22,0,0-2.23,39.59-2.65,65.85a82.91,82.91,0,0,0,1.33,14.61c1.47,8.58.94,20.9.94,20.9s-1.52,10,.8,14,12.41,19.47,12.41,19.47,15.9,25.36,22.81,36.67c0,0,15.3,21.62,27,34.11,0,0,26.67,30.3,44.43,44.15,0,0,11.33,10.16,16,18.94,0,0,4.37,8.75,14.82,18.66a17.05,17.05,0,0,0,4.64,7.32s-16.37,11.5-11.49,19.71a11.13,11.13,0,0,0,5.75,5.09c4.32,1.85,6.4,7.59,6.4,7.59s-2.53,7.71,2,11.37,12.06,6.61,12.06,6.61,9.2-.27,12.32,6.7c0,0,5.5,4,10.85.89,0,0,2.59-1.29,4.56,2.73s8.21,1.34,8.21,1.34,8.38,5.55,14.34,0c.19-.17.38-.36.57-.56,3.64.18,13.19.1,15-5.27,2.2-6.67,1.19-7.74,1.19-7.74a17.8,17.8,0,0,1,4.94.3c2,.53,4.11-3.64,4.11-3.64s1.72-1.84,1.49-6.37-1.79-6-1.79-6h7.92c1.19,0,3.15-3,3.15-3a8.87,8.87,0,0,0,1-8.75,22,22,0,0,0-2.45-3.93s3.76.42,5.78-4.88a8.1,8.1,0,0,0-1.79-8.75s-2.08-2.92-3.81-3.4l-3.15-.75h0a11.61,11.61,0,0,1,2.06-5.83,7.55,7.55,0,0,0,4,.69c3.48-.62,2.2-7.5,2.2-7.5a50,50,0,0,1-2.2-4.5,10.33,10.33,0,0,1,.79-1.44s3-5.93,6-10.51,24.29-36.2,26.58-41,12.83-19.91,18.64-31.22A272.76,272.76,0,0,0,400.75,676S405,662,409.47,655.25C409.47,655.25,412.24,649.36,408.49,639.71Z"/><path d="M215.47,303.57c1.9.35,3.8.69,5.72,1s3.81.58,5.73.81c3.82.48,7.66.89,11.51,1.1,1.92.17,3.84.23,5.77.33s3.85.1,5.78.09h2.89l2.89-.08c1.93,0,3.85-.2,5.79-.24A93.22,93.22,0,0,1,250,307.64c-3.88.15-7.76,0-11.63-.19s-7.73-.7-11.55-1.34A91.1,91.1,0,0,1,215.47,303.57Z"/><path d="M225.59,267.31a19.07,19.07,0,0,0-2.05,7.54,6.55,6.55,0,0,0,.88,3.58,5.27,5.27,0,0,0,3.14,2.1,4.65,4.65,0,0,1-3.76-1.63,6.35,6.35,0,0,1-1.26-4A12,12,0,0,1,225.59,267.31Z"/><path d="M257,270.7a13.87,13.87,0,0,1,1,3.26,12.8,12.8,0,0,1,.21,3.45,5.7,5.7,0,0,1-1.29,3.34,3,3,0,0,1-1.6.92,4.07,4.07,0,0,1-1.74-.07,3.63,3.63,0,0,0,2.75-1.35,6.18,6.18,0,0,0,.88-2.93,23.61,23.61,0,0,0,0-3.26C257.21,273,257.11,271.84,257,270.7Z"/><path class="cls-13" d="M228.51,278.44s6-2.14,8.25.6"/><path class="cls-13" d="M247,280.23s2.91-3,5.71-.36"/><path d="M234.28,267.31l.52-4.52c.18-1.51.35-3,.49-4.52.3-3,.59-6,.77-9s.33-6,.3-9c0-1.51-.09-3-.21-4.52l-.25-2.25c-.15-.74-.29-1.49-.42-2.24a31.45,31.45,0,0,1,1.65,9,68,68,0,0,1-.07,9.14c-.21,3-.52,6.07-1,9.07A90.75,90.75,0,0,1,234.28,267.31Z"/><path d="M249.82,269c-.83-3-1.46-6-2-9.1s-.94-6.14-1.2-9.24a61.94,61.94,0,0,1-.13-9.34c.24-3.08.67-6.32,2.31-9a15.72,15.72,0,0,0-1.2,4.44,32.12,32.12,0,0,0-.34,4.59c-.05,3.08.1,6.16.35,9.23s.6,6.14,1,9.21c.18,1.54.39,3.07.61,4.6Z"/><path class="cls-13" d="M231.22,314.64a39.74,39.74,0,0,0,18.6,1.16"/><path class="cls-14" d="M92,399.48S135.76,588.41,144,613.23"/><path class="cls-13" d="M111.28,1074.55s-1.93-9.92,2.41-17.61c0,0-2.31-14.41,7-34.56,0,0-1.47-10.35,2.23-30.63,0,0,1.53-14.21-6.16-23.49s-6.24-43.13-6.24-43.13a50.73,50.73,0,0,1-2-15.34c.29-8.13,0-17.79,0-17.79a126.84,126.84,0,0,1-1.75-16.88c-.19-8.14,1.37-7.68,1.37-7.68s4.51-4,6.37-7.56c0,0-7.89-6.89-8-22.39a45.84,45.84,0,0,1,4.66-17.26c4.24-8,3.32-13.46,3.32-13.46s-9.63-72.87-6.31-83.95c0,0-28.67-44.32-35.22-56.14,0,0-2.18-2.72-.78-14.52a58.78,58.78,0,0,0-1-20.4,102,102,0,0,1-1.33-14.61c.12-5.88,1.37-46.07,1.37-46.07S57.18,563.21,39,551.69c0,0-3.79-1.27-2.1-4l1.88-4a40.14,40.14,0,0,1,3.39-11.08s0-2.66,2-7.76c0,0,1.3-8.24,6.69-20.63,0,0,18.06-72.68,40.73-103.15l.4-1.61a65.92,65.92,0,0,0,9.33-4.42c5.44-6.47,24.56-11.47,24.56-11.47s7.63-4,13.48-4.92c0,0,11.21-4.21,16-8.12,4.43-6.31,5.76-4.11,5.76-4.11a15.54,15.54,0,0,0,6.63-4s.72-1,3.88-1a15.42,15.42,0,0,0,4.54-3.9s4.6-4.09,3.35,0c0,0,4.58-2.95,7.32-10.24,0,0,3.08-6.38-2.31-56.14l-.16-1s-6.91,4.37-11.64-5.12c0,0-7.33-12.53-11-37.15,0,0-2.24-9.32,8.66-6.9,0,0,2.38-7.59-3.77-11.53a16.61,16.61,0,0,1-4.56-7.76s1.43-4.14-6-14.89c0,0,1.87-15,4-23.81s15.42-35.37,15.42-35.37a7.85,7.85,0,0,0,.72-5.71s4.35,5.53,8.39,2.32a11.36,11.36,0,0,0,4.41-7.14s0,3.67,2.44,2.5c0,0,4.41-2.12,6.61-5.66a40.67,40.67,0,0,1,5.77-6.91s-1.15,4.52,4.59,3.46a170.85,170.85,0,0,0,18-8.07c7.13-4,26-4.34,26-4.34s4.51.21,6.22,1.93c0,0,6.9,5.52,15.57,6.07,0,0,17.41,12,17.51,14.77s4.23,6.66,4.23,6.66,15.15,16.8,16.6,36.56c0,0,6.34,8.38,4.41,18.93l-2.62-2.26s1.51,5.16-1.55,7.5-3.09,3.93-3.09,3.93.89,5.39-1.79,5.84-5.48,27.5-5.48,27.5,8.71-1.52,8.19,8.39c0,0-6,25.34-12.41,34.66-5.75,9.53-6.93,5.93-8,4.61,0,0-5.2,26.38-14.95,36.87,0,0-8.69,30.66,17.1,37a11.34,11.34,0,0,1,8.67.28s1.58,6.91,12.8,4.53c0,0,2.63,3.78,8.82,3.21,0,0,5.89-1.61,9.76,1.67a82.2,82.2,0,0,0,17.21,4.58c8.53,1.12,35.45,38.45,35.45,38.45a202.76,202.76,0,0,1,4.38,21.21c1.32,9.81,4.92,32.55,10.8,45.15s13.14,45.4,13.14,45.4,5.52,20.39,12.05,33c0,0,1.36,2.36-.27,2.79s-16.29,4.63-20.51,4.76c0,0,3.41,24.21,3.09,36.21-.84,12.24.63,31.43.63,31.43s3.7,10.6,1,15.54-8.52,17.79-10.93,28-18,42.72-18,42.72-8.64,15.11-10.29,17.93c0,0,2.3,7.32-2,12.74,0,0,11.7,36.38,16.43,63.35,0,0,12.53,13-1.83,22.29,0,0,2.72,16.22,5.41,18.61,0,0,2.7,4.54-1.11,30.13-.1.66-2.66,23-.8,28.75s-10.66,29.35-10.66,29.35-3,40.5,2.09,51.74,10,38.58,10,38.58-1.54,8.76-3.22,11.61c0,0,4.22,1.92,1.57,19.29a13.9,13.9,0,0,0,.4,4.4H312.16s-.49-6.27-1.31-8.15,1.48-9.33,1.48-9.33.54-4.36-5.6-13.15-11.35-28.75-11.35-28.75-.58-15.16-11.32-34.39c0,0-3.85-16.46-3.81-19.4,0,0-18.16-25.38-22.73-54.88,0,0-1.79-3.75-4.56-2.73s-5.77,2.11-10.85-.89c0,0-4.43,10.64-6.46,14.38s-11,28.14-15.48,32.62-7,21.26-7,21.26-2.63,11-5,15.48-3.28,13.39-3.28,13.39-2.57,16.5-5.3,19.53-2.67,10.18-2.67,10.18-.23,9.13-2,11.55-.59,4.17-.59,4.17,5,7.65,4,11.73c0,0-4.94,9.42-6.84,17.38Z"/><path class="cls-13" d="M361.61,397.48s3,117.36-6.14,175.26"/><path class="cls-13" d="M167,221.69a26.06,26.06,0,0,1,24.62-28.41"/><path class="cls-13" d="M304.53,186.09a29.13,29.13,0,0,1,11.32,13.35"/><path class="cls-13" d="M210.93,140s14.8,8.56,16.69,17.42"/><path class="cls-13" d="M197.58,149.42S210.79,152,227,174.24"/><path class="cls-13" d="M206.14,145.51s30.62,26.41,29.46,28.73"/><path class="cls-13" d="M216.3,135.69s23.8,4.64,37.15,16.64"/><path class="cls-13" d="M219.27,142.65s14.83,4.45,19.86,11.42"/><path class="cls-13" d="M234.87,132.2s30.38,13.74,39.09,23.61"/><path class="cls-13" d="M253.45,163.16s13.54,7.55,21.28,21.09"/><path class="cls-13" d="M243.78,172.84s19.93,6.38,24.18,17.22"/><path class="cls-13" d="M179.51,357.51s-7.67,14.29,26,37.26,65.55,6.78,73,0c0,0,11.65-4,22.73-27.5"/><path class="cls-13" d="M264.09,157.41c1,1.3,15,11.17,27.42,26.84"/><path class="cls-13" d="M283.35,149.42s13.93,13.94,19.73,29"/><path class="cls-13" d="M168.7,174.24c0,1.89-9.58,25.11-8.13,30.33"/><path class="cls-13" d="M176.54,174.24c0,3-8.13,13.5-7.84,21.62"/><path class="cls-13" d="M182.63,178.45s-6.2,8.12-6.09,14.32"/><path class="cls-13" d="M242.42,123.16s28,12.33,36.43,29.17"/><path class="cls-13" d="M171,163.16s15.87-18.77,35.12,3.87"/><path class="cls-13" d="M210.93,170.83s22.93,8.78,31.49,21.11"/><path class="cls-13" d="M252.14,187.88c.73,0,13.21,15,28.74,14.8"/></g></svg>