<svg id="Capa_1" data-name="Capa 1" xmlns="http://www.w3.org/2000/svg" xmlns:xlink="http://www.w3.org/1999/xlink" viewBox="0 0 520.54 562.33"><defs><style>.cls-1,.cls-28,.cls-44{fill:none;}.cls-2{fill:#781b1b;fill-rule:evenodd;}.cls-3{fill:#1c133d;}.cls-4{clip-path:url(#clip-path);}.cls-5{fill:#f5f4fa;}.cls-6{fill:#efeef5;}.cls-7{fill:#c0bfc5;}.cls-8{fill:#999798;}.cls-9{fill:#898486;}.cls-10{fill:#cecdd4;}.cls-11{fill:#9f9da0;}.cls-12{fill:#b9b8be;}.cls-13{fill:#e7e5e6;}.cls-14{fill:#f2f1f7;}.cls-15{fill:#e2e0e1;}.cls-16{fill:#3a3631;}.cls-17{fill:#aba9ab;}.cls-18{fill:#7b706f;}.cls-19{fill:#9c9492;}.cls-20{fill:#a09a9a;}.cls-21{fill:#6b6661;}.cls-22{fill:#fff;}.cls-23{fill:#9b8e88;}.cls-24{fill:#c07e63;}.cls-25{fill:#be464e;}.cls-26{fill:#cb2a3a;}.cls-27{fill:#d19478;}.cls-28{stroke:#685551;stroke-width:0.25px;}.cls-28,.cls-44{stroke-miterlimit:10;}.cls-29{fill:#7c4f42;}.cls-30{fill:#523223;}.cls-31{fill:#7c543f;}.cls-32{fill:#a56c58;}.cls-33{fill:#cb9c81;}.cls-34{fill:#643f36;}.cls-35{fill:#473332;}.cls-36{fill:#252425;}.cls-37{fill:#1d1d1b;}.cls-38{fill:#824a43;}.cls-39{fill:#984e52;}.cls-40{fill:#402419;}.cls-41{fill:#2c2221;}.cls-42{fill:#4f4949;}.cls-43{fill:#1e1f24;}.cls-44{stroke:#1e1f24;stroke-width:0.5px;}.cls-45{fill:#2b1e23;}.cls-46{fill:#ca2b3a;}.cls-47{fill:#5f5a5a;}.cls-48{fill:#c3c2c4;}.cls-49{fill:#5a4e4e;}.cls-50{fill:#797471;}.cls-51{fill:#292424;}.cls-52{fill:#efeff1;}.cls-53{fill:#43414c;}.cls-54{fill:#f7f6fb;}.cls-55{fill:#272e41;}.cls-56{fill:#131315;}.cls-57{fill:#202022;}.cls-58{fill:#c6c4c6;}.cls-59{fill:#888284;}.cls-60{fill:#a9a6ad;}</style><clipPath id="clip-path"><ellipse class="cls-1" cx="238.22" cy="273.25" rx="191" ry="181.59"/></clipPath></defs><path class="cls-2" d="M517.45,252.38C504.18,164.3,449.22,106.75,374.2,48.46L334.75,17.81l.37-.37S319.71,7.88,318.28,7.21C306.17,1.6,292.5-1.15,279.18.45c-7.62.92-14.36,3.79-21.81,5.05Q229.7,10.16,202,14.79q-7.68,10.76-15.33,21.55c-14.53,11.21-44.35,12.22-69,7.93a10.21,10.21,0,0,0-11.85,11.51c13.4,15.59,16.88,43.52,37.79,49a51.58,51.58,0,0,1-12-30Q144.36,83.4,157.1,92c.63-1.29-11.29-24.4-10.32-24.73,11.73,5.72,25.76,12.91,37.48,18.63l-4-16.5c-.93-4.31,3.36-6.32,8.07-7.89,7.71-2.58,18.68.59,26.1,2.61,11.85,3.23,28.56,8,33.42,20.69,4.11,10.72-2.44,20.75-11.36,26.39-3.34,2.11-6.51,1.53-10.11,2.5-11.07,3-25.76-1.16-36.72-9.07,1.37,5.52,5.33,12.27,6.68,17.78-1.55,8.11-7.44,3.64-8.7,4.62-7.49-1.22-15-4.07-22.44-5.29,15.5,26.66,46.91,26.85,45.87,18.36,5-4.85,8.67-9.59,15.88-11.24,5-1.13,10.12-1,15.22-1.09,13.86-.24,33.42,1.76,44.4-8.69a5.85,5.85,0,0,1,1.72-1.33,5.22,5.22,0,0,1,1.93-.26c12.53-.06,25.2-1.93,37.59-1.93,5.35-.91,18.61,9.29,23.08,12.14A158.86,158.86,0,0,1,372.11,144a160.55,160.55,0,0,1,35.2,45.83c41.08,80.33,10.53,183.83-63.18,233.86-64.18,43.55-151,40.89-214.6-2.2a213.47,213.47,0,0,1-48.71-46c-65.75-86.39-29.21-218,69.82-262-6.94,3.09-27.15-3.1-36.4-1.55A92.33,92.33,0,0,0,83.88,123c-26.63,15.3-46.42,51.16-59.32,78C9.31,232.86.16,267.89,0,303.24a210.41,210.41,0,0,0,1.93,29.25C9.45,387.81,35.26,444,73.81,484.62c81.13,85.53,212.55,99.92,315.17,45.84C473.45,486,518.5,395.34,520.47,302A290.94,290.94,0,0,0,517.45,252.38Z"/><ellipse class="cls-3" cx="238.22" cy="273.25" rx="191" ry="181.59"/><g class="cls-4"><path class="cls-5" d="M282.24,462.47l17.86-4.34L345.52,456l54.53,54s29.08,59.28,30,61.09,5.45,37.49,5.45,37.49l8.63,39.1-3.63,3.17H364.15l-44-61.18-41.29-69.37Z"/><polygon class="cls-6" points="361.4 397.55 390.03 403.67 405.02 425.61 408.72 453.75 412.75 483.21 412.75 496.85 395.03 510.04 387.07 510.04 378.22 489.55 358.68 479.58 300.07 458.13 361.4 397.55"/><path class="cls-7" d="M361.41,397.55l16.81,19.94v41.24s-22-12.24-24.66-12.68-71.32,16.42-71.32,16.42l-6.72-36.86,49.93-13.55Z"/><polygon class="cls-8" points="285.99 499.78 364.13 650.9 303.13 650.9 285.99 499.78"/><path class="cls-9" d="M222,480.45l38.52,12.95-22.94-27,11.32-40.83,19,10.88,1.49-14.8s-8.86-5.11-9.54-5.11-14.76-6.62-14.76-6.62L226,417.46,200.55,422l-7.08,11.38,4.91,12.41S210.09,458,210.43,459s1.45,9,2.09,9.7S222,480.45,222,480.45Z"/><path class="cls-10" d="M196.5,437.89l36.95,12.5s-4.95,17.15-5.29,20.89-6.12,9.14-6.12,9.14l38.52,12.95L274.72,510l17.5,75.78L296,619.15l5.12,31.72H212.46L190,640.56l-28.8-40.79S144.62,571,145.82,568.08s26.78-54.34,26.78-54.34l6.54-61.46Z"/><polygon class="cls-11" points="205.19 433.81 232.24 423.53 238.89 430.86 234.11 443.78 233.45 450.41 222.03 452.11 211.46 445.31 205.19 433.81"/><polygon class="cls-12" points="248.94 425.61 237.62 466.44 274.71 510.04 277.56 447.4 273.67 439.8 248.94 425.61"/><path class="cls-13" d="M251.55,414.55a52.33,52.33,0,0,0,16,9l17.8-4.46s-.75-10.88-2.86-11-14.66-2.44-16-2.44H254.17l-5.23,3.19Z"/><polygon class="cls-14" points="352.2 362.2 361.4 397.55 278.82 430.86 278.82 412.06 312.91 374.86 344.36 355.06 352.2 362.2"/><path class="cls-15" d="M270.3,401.29a8.74,8.74,0,0,0-2.38,9.06s-1.49,31.62,2.38,45.21c0,0,1.47,11,2.16,28.33s4.77,45.9,4.77,45.9,5.62,37.9,6.82,45.72c0,0,11.6,67.69,15,75.4h4.09s-5.79-82.07-8.86-92.76c0,0-9-57.6-8.93-66.77,0,0-2.3-26.86-4.35-36.72,0,0-4.09-30.93-1.35-39.09L281,401l2-4.35-8.37-6.79-4.57,3.67Z"/><path class="cls-16" d="M231.56,427.8s-8.75,13.26-13.75,11.9l-20.15-9.41-4.19-12.55,9.22-10.5,19.22,6.63Z"/><path class="cls-17" d="M188.17,425.61,167,558.14l-22.32,8.52L129,568.08s-13.66-13.3-15.37-15.09S107,516.77,107,516.77L129,493.66l35.89-58.91,14.24-6.91Z"/><path class="cls-18" d="M127.86,553s2,13.64,34.81,6.25v31l49.79,60.62H152.38l-38.74-65.08Z"/><path class="cls-19" d="M137.74,396a156.23,156.23,0,0,0-46.17,34.64C71,453.5,68.29,483.4,65,512.37c-4.53,40.09.76,80,5.36,119.8.58,5.16.11,14.14,3,18.75h79c-8-17.63-12.32-39.5-23.63-55.29-2.14-3-.27-12.43-.14-16.17.34-9.61,2.57-54-18.49-44.57a239.66,239.66,0,0,0,27.53-27.1,203.81,203.81,0,0,0,21.25-28.34c6.42-10.53,10-22.49,16.29-33.08,4.14-7,8.7-13.84,13-20.76l-1.24-16.71L153.31,401l-12.72-7.07Z"/><polyline class="cls-20" points="251.55 414.55 231.56 427.8 200.38 413.87 208.05 407.24 216.22 401 230.54 403.67 244.21 409.33"/><path class="cls-16" d="M270.3,401.29s-.49-8.28,6.36-7.36c0,0,6,3.16,4.36,7l7.68-7.1S284.1,383,280.75,384s-14.28,4.3-14.28,4.3l1.14,7.48Z"/><path class="cls-21" d="M138.75,387.12s-2.28,4-1.93,5.84c0,0-2.44,2.68,10.28,9.82l28.74,14.1,12.33,8.69.27-3.18-1.52-13.53-4.81-9.16L162.47,377l-12-2.12a29,29,0,0,1-4.46,2c-1.41.34-5.5,4.47-5.5,4.47Z"/><path class="cls-22" d="M330.06,330.32s13.28-5,15,0,7.5,15.22,5.11,18.28l2,3.4s3.06,6.8,0,10.2c0,0-19.64,32.29-47.31,42.49l-25.28,10.84,1.4-14.61s9.54-15.64-7.35-10.89c0,0-6.89,2.83-3.37,11.22,0,0-2.68,6.25-2.38,9.06,0,0-19.32-2.6-16.37,4.2l-7.33-5.21,12.87-20.13,26.67-16.55,11.45-6.82L308,352.68l18.86-16.31Z"/><path class="cls-23" d="M323.14,332s15.82-4.76,15.18,0c0,0-29.65,20.91-45,38.66l3.92-9.59-10.72-9.82Z"/><path class="cls-24" d="M201.11,331.89s-3.86,15.72-13.34,29.13l-10.13,9.05s19.94,13,20.05,18.41c0,0,14,3.18,15.91,7.71,0,0,12.5,1.36,30.61,13.14,0,0,10.41-10.42,20.4-15,0,0,6-8.6,12.78-9.51,0,0,9.94-13.54,15.85-14.29l4.35-10.11s-15.78-11.72-23.93-25.4l-29.85-16.12H215.24Z"/><path class="cls-25" d="M220.65,118.41c-41.45,13-74.3,57.35-75.31,99.67,0,0-1.37,57.45-22.5,69.17,0,0,14.54-8,19.32-15.24,0,0,2.84,29.34-11.13,39.54,0,0,20.78-11.9,20.78-20.39a127.55,127.55,0,0,1-.21,13.39,61.64,61.64,0,0,1-2.52,12.39c-2.3,7.15-3.15,13.57-.46,20.7a22.59,22.59,0,0,0,15.18,13.68s21.3,3.74,8.17,12.58c-1.09.74,6.65-1.13,9.5-5.14,3.3-4.65,4.58-12.94,2.64-18.32,0,0,5,13.94,14.17,14.62,0,0-4-20.36,6.49-19.87l71.46-2.68s-6.24,19,11.79,26.67c-.52-.22-2.26-4.89-2.35-5.35a25.45,25.45,0,0,1-.4-8.21c.37-2.68,1.48-5.36,4-6.72a8.2,8.2,0,0,1,10.18,2c3.16,4,2.78,10,1.23,14.57,0,0,12.86-8.16,11.38-19,0,0,6.69-1.36,14.88,5.89-.89-.77-1.47-3.57-1.9-4.72-.69-1.85-1.32-3.7-1.88-5.59-3.17-10.6-4.85-21.8-.35-32.26,5-11.6,11.26-21.42,11.52-34.52a69.48,69.48,0,0,0-9.67-35.93c-.52-.9.47-4.72.52-5.75a98.86,98.86,0,0,0-.64-15.86,121.26,121.26,0,0,0-18.35-50.63c-6.17-9.74-12.75-19.51-21.8-26.85-10.46-8.47-22.73-10.84-35.87-12C240,117.39,229,115.79,220.65,118.41Z"/><path class="cls-26" d="M220.65,118.44c-16.52,5.22-31.24,15.17-43.24,27.67A119.11,119.11,0,0,0,150.53,190a109.49,109.49,0,0,0-3.35,12.49,92.64,92.64,0,0,0-1.67,12.84,227.9,227.9,0,0,1-2.26,25.83,136.68,136.68,0,0,1-5.9,25.24,61,61,0,0,1-5.49,11.74,26.31,26.31,0,0,1-9,9.22l-.1-.17c1.79-1,3.57-2.09,5.3-3.21s3.43-2.27,5.09-3.51a52.81,52.81,0,0,0,4.79-3.92A27.07,27.07,0,0,0,142,272a.1.1,0,0,1,.14,0,.13.13,0,0,1,0,.09,84.28,84.28,0,0,1,.13,10.66,71.87,71.87,0,0,1-1.27,10.54,41.62,41.62,0,0,1-3.35,10.12,22.55,22.55,0,0,1-6.64,8.27l-.13-.2c2.14-1.26,4.25-2.61,6.3-4s4-2.91,6-4.46a43.19,43.19,0,0,0,5.36-5.2,16.8,16.8,0,0,0,2.09-3.07,7.59,7.59,0,0,0,1-3.5.13.13,0,0,1,.26,0h0c0,2.85.11,5.7.06,8.56a62.3,62.3,0,0,1-2.68,16.87,46.16,46.16,0,0,0-2,8.27,25.17,25.17,0,0,0,3.18,16.37,23,23,0,0,0,13.29,10h0a38.23,38.23,0,0,1,6.38,1.78,21.13,21.13,0,0,1,3,1.41,7.77,7.77,0,0,1,2.52,2.18,3.55,3.55,0,0,1,.63,1.59,3.4,3.4,0,0,1-.26,1.69,7.81,7.81,0,0,1-2,2.67,14.44,14.44,0,0,1-1.3,1l-.67.49c-.05,0-.13.12-.09,0s0-.15-.06-.14H172a1.58,1.58,0,0,0,.38-.05,16.83,16.83,0,0,0,3.1-1,15,15,0,0,0,5.36-3.57,17.33,17.33,0,0,0,2.9-5.81,25.25,25.25,0,0,0,1-6.45,17.87,17.87,0,0,0-.89-6.45l.3-.12a36.36,36.36,0,0,0,2.28,4.8,29.8,29.8,0,0,0,3,4.39,17.73,17.73,0,0,0,3.87,3.57,10.55,10.55,0,0,0,4.9,1.79l-.18.2a49.17,49.17,0,0,1-.69-5.93,32.28,32.28,0,0,1,.17-6,12.72,12.72,0,0,1,1.91-5.66,6,6,0,0,1,2.29-2,6.79,6.79,0,0,1,3-.54h0l71.41-2.73a.17.17,0,0,1,.19.17h0a.06.06,0,0,1,0,.06h0a26.6,26.6,0,0,0-1,7.89,21.83,21.83,0,0,0,1.51,7.78,20.29,20.29,0,0,0,1.89,3.49,20.07,20.07,0,0,0,2.59,3,24.24,24.24,0,0,0,6.72,4.26l-.16.35a1.73,1.73,0,0,1-.54-.69L287,358c-.21-.46-.41-.94-.6-1.41a21.35,21.35,0,0,1-1-2.91,28.38,28.38,0,0,1-.54-6.1,13.26,13.26,0,0,1,1.42-5.95,7.51,7.51,0,0,1,2-2.36,8,8,0,0,1,2.83-1.29,8.68,8.68,0,0,1,6,.79,7.88,7.88,0,0,1,2.38,2,11.13,11.13,0,0,1,1.53,2.68,14.73,14.73,0,0,1,.89,6.06,22,22,0,0,1-1.15,6l-.3-.23a33.12,33.12,0,0,0,4.46-3.64,29.15,29.15,0,0,0,3.77-4.38,20.05,20.05,0,0,0,2.55-5.14,14.91,14.91,0,0,0,.48-5.68h0a.2.2,0,0,1,.17-.21,12.43,12.43,0,0,1,4.17.17,19.89,19.89,0,0,1,4,1.25,23.38,23.38,0,0,1,3.64,2c.58.37,1.12.8,1.68,1.2l1.6,1.33h0a.21.21,0,1,1-.22.36l-.05,0h0a5.83,5.83,0,0,1-1.11-2.12c-.25-.74-.46-1.48-.69-2.21l-1.47-4.38a76.28,76.28,0,0,1-2.42-8.92,46.14,46.14,0,0,1-.55-18.43,33,33,0,0,1,1.19-4.46c.25-.74.56-1.45.83-2.18l.9-2.12c1.25-2.81,2.59-5.58,3.88-8.38,2.59-5.56,5-11.28,6.05-17.33a45.29,45.29,0,0,0,.69-9.15,66.93,66.93,0,0,0-.84-9.16,70.23,70.23,0,0,0-5.36-17.58c-.63-1.39-1.31-2.77-2-4.13-.35-.69-.74-1.35-1.12-2l-.28-.5a2,2,0,0,1-.16-.63,7.75,7.75,0,0,1,0-1.18c.07-.77.22-1.53.35-2.29a13.43,13.43,0,0,0,.29-2.27c.06-1.54.09-3.07.07-4.61a107.28,107.28,0,0,0-1.88-18.32,120.89,120.89,0,0,0-12.23-34.65,181.88,181.88,0,0,0-9.66-15.72,104.06,104.06,0,0,0-11.37-14.57,60.66,60.66,0,0,0-6.91-6.1A45.73,45.73,0,0,0,275,124.4a64.09,64.09,0,0,0-17.66-5.1c-3-.49-6.1-.82-9.17-1.1s-6.12-.63-9.19-.89a81.14,81.14,0,0,0-9.22-.28A35.09,35.09,0,0,0,220.65,118.44Zm0,0a35.52,35.52,0,0,1,9.11-1.4,78.82,78.82,0,0,1,9.22.27c3.08.23,6.14.57,9.2.85s6.13.61,9.18,1.08a64.34,64.34,0,0,1,17.7,5.09A45.75,45.75,0,0,1,283,129a59.16,59.16,0,0,1,6.93,6.11,104,104,0,0,1,11.53,14.42,181.51,181.51,0,0,1,9.7,15.73A121.35,121.35,0,0,1,323.45,200a107.79,107.79,0,0,1,1.91,18.37c0,1.54,0,3.08-.07,4.62a12.79,12.79,0,0,1-.28,2.31c-.14.76-.27,1.52-.34,2.27a5.24,5.24,0,0,0,0,1.12,1.41,1.41,0,0,0,.12.49l.28.5c.37.68.77,1.34,1.12,2,.72,1.36,1.4,2.75,2,4.15a70.82,70.82,0,0,1,5.36,17.66,63.12,63.12,0,0,1,.89,9.21,45.45,45.45,0,0,1-.68,9.24c-1.07,6.1-3.47,11.86-6.05,17.44-1.3,2.79-2.68,5.57-3.89,8.37l-.9,2.12c-.27.71-.58,1.42-.82,2.14a34.18,34.18,0,0,0-1.18,4.47,45.57,45.57,0,0,0,.55,18.24,76.89,76.89,0,0,0,2.4,8.93l1.47,4.38c.24.74.44,1.47.69,2.2a5.26,5.26,0,0,0,1,1.94l-.28.31-1.57-1.3c-.57-.39-1.09-.82-1.67-1.19a24.73,24.73,0,0,0-3.57-2,18.4,18.4,0,0,0-3.88-1.22,12,12,0,0,0-4-.17l.16-.24a15,15,0,0,1-.5,5.85,20.6,20.6,0,0,1-2.59,5.26,30.16,30.16,0,0,1-3.83,4.46,32.28,32.28,0,0,1-4.56,3.69.19.19,0,0,1-.27-.05h0a.17.17,0,0,1,0-.17h0a21.32,21.32,0,0,0,1.13-5.91,14.24,14.24,0,0,0-.89-5.89,10.69,10.69,0,0,0-1.47-2.59,7.37,7.37,0,0,0-2.26-1.9,8.23,8.23,0,0,0-5.76-.75,7.34,7.34,0,0,0-2.68,1.22,6.8,6.8,0,0,0-1.91,2.22,12.94,12.94,0,0,0-1.37,5.79,28.09,28.09,0,0,0,.53,6,23.26,23.26,0,0,0,1,2.84c.2.47.39.89.6,1.39l.33.67a2.32,2.32,0,0,0,.35.53h0a.19.19,0,0,1,0,.28.22.22,0,0,1-.23.05,24.18,24.18,0,0,1-6.81-4.33,20.63,20.63,0,0,1-2.68-3.07,20.12,20.12,0,0,1-1.92-3.57,22,22,0,0,1-1.54-7.93,26.94,26.94,0,0,1,1.05-8l.19.25-71.47,2.68h0a5.91,5.91,0,0,0-2.81.51,5.43,5.43,0,0,0-2.16,1.84,12.46,12.46,0,0,0-1.86,5.51,33.34,33.34,0,0,0-.16,5.91,46.43,46.43,0,0,0,.68,5.88.19.19,0,0,1-.13.21h0a10.82,10.82,0,0,1-5.06-1.79,17.66,17.66,0,0,1-3.94-3.63,30.39,30.39,0,0,1-3-4.46,37.66,37.66,0,0,1-2.27-4.81.17.17,0,0,1,.08-.22h0a.17.17,0,0,1,.21.09h0a18.3,18.3,0,0,1,.9,6.57,25.83,25.83,0,0,1-1.06,6.54,17.78,17.78,0,0,1-3,5.93,15.46,15.46,0,0,1-5.5,3.69,18.27,18.27,0,0,1-3.16,1,2.1,2.1,0,0,1-.43.05h-.23a.18.18,0,0,1-.08-.07.19.19,0,0,1,0-.15c.1-.19.16-.16.22-.22l.67-.48c.44-.32.86-.66,1.27-1a7.45,7.45,0,0,0,2-2.54,3.11,3.11,0,0,0,.24-1.54,3.32,3.32,0,0,0-.57-1.45,7.78,7.78,0,0,0-2.44-2.09,19.86,19.86,0,0,0-2.95-1.39,38.93,38.93,0,0,0-6.33-1.78h0a23.24,23.24,0,0,1-13.45-10.09,25.47,25.47,0,0,1-3.22-16.56,47.7,47.7,0,0,1,2-8.33,62,62,0,0,0,2.68-16.79c0-2.84-.06-5.68-.06-8.54h.26a8.23,8.23,0,0,1-1,3.62,17.39,17.39,0,0,1-2.13,3.1,42.12,42.12,0,0,1-5.36,5.24,71.53,71.53,0,0,1-6,4.46c-2.06,1.38-4.16,2.77-6.32,4a.11.11,0,1,1-.16-.16,22.38,22.38,0,0,0,6.57-8.19,41.63,41.63,0,0,0,3.36-10.08,72.05,72.05,0,0,0,1.3-10.55,83.94,83.94,0,0,0-.12-10.64h.2a27.21,27.21,0,0,1-4.13,4.64,58.32,58.32,0,0,1-4.81,3.92c-1.66,1.24-3.37,2.4-5.11,3.51s-3.5,2.2-5.3,3.21a.14.14,0,0,1-.15,0,.12.12,0,0,1,0-.14,26.05,26.05,0,0,0,8.93-9.14,60.06,60.06,0,0,0,5.48-11.71,135.31,135.31,0,0,0,5.91-25.2,227.58,227.58,0,0,0,2.28-25.81A93,93,0,0,1,147,202.46,107.54,107.54,0,0,1,150.37,190a119.2,119.2,0,0,1,26.92-43.89c12-12.49,26.81-22.45,43.35-27.69Z"/><path class="cls-27" d="M302.61,243.25c.73,5.09,1.28,10.21,1.69,15.33.57,7.2.35,14.54-1.84,21.47-2.31,7.36-4.57,15-7.45,22.16a100.42,100.42,0,0,1-16.17,27.18c-6.18,7.37-13.39,15.07-22.81,18.48-36.83,13.31-73.82-25.61-77.88-60l-3.66-31.27s-.36-34.65,0-38.34c0,0,1.79-20.4,5.81-23.56,0,0,6,12.31,13.39,13.54,0,0,15.88-44.25,40.9-54.33,0,0,29.62,14.07,12.7,54.68,0,0,9.87-5.1,15.87-10.55,0,0,.35,3.34-3.18,7.74,0,0,16.22-7.21,21.16-13.72,0,0,6.34,13.54,14.1,17.24,0,0-5.46-12.13-1.94-18.64,0,0,12.88,9.32,11.46,24.1C304.77,214.78,302.61,235.36,302.61,243.25Z"/><path class="cls-28" d="M244.17,269.52s-1.1,5.82,3.73,6.9c0,0,4.72.89,5.89-3.64l-5-4.54S245.48,267.72,244.17,269.52Z"/><path class="cls-29" d="M237.87,256.33s-2.79-1.32-6.06,2.44a12.22,12.22,0,0,0-2.68,6.8,10.72,10.72,0,0,0,7.74,8.93s5.41,1.88,6.92-3.51a39.75,39.75,0,0,0,2-3.57c.06-.4.31-3.9.44-4.36s.59-6.73.59-6.73-4-1.26-4.38-1.32S237.87,256.33,237.87,256.33Z"/><path class="cls-30" d="M257.29,273.6l2.52-1.25,2.12.89.51,1.25s-6.08,3.27-9.12-2.2h4Z"/><path class="cls-31" d="M259.81,262l-.89,6.62-2.12,2.49s-6.34,5.8-9.25,1.31L243.83,271s-2.1-6.1.41-10.18l4.89-1.72,4.92.45,2,1Z"/><path class="cls-24" d="M254.53,219.42s1.12,12.79,3.69,21.66c1.72,5.92,1.83,12.84,4.2,16.85,2.87,4.88,3,4.39,4.14,8.64,0,0,2,5.36-4.14,8.25,0,0-7.55-3.1-3.57-6.25L255.2,263,254,256.77Z"/><path class="cls-32" d="M249.13,207.61a56.66,56.66,0,0,0,.6,8.23c.67,4.47,1.45,9.14,1.54,10.21s.61,8,.61,9.23,2.68,13.44,2.68,13.71-.5,7.82-.5,7.82l-1.78,2.73h-4.4l-9.95-3.21c10.13-7.08,6.48-33.72,6.48-33.72v-10.9Z"/><path class="cls-33" d="M261.6,203.45l-6.41,24.26c-1.73,6.45,4.62,34.28,4.62,34.28-3.38,3-15.59-1.18-15.59-1.18-.54-2.24-6.35-4.47-6.35-4.47s13.88,3.57,14.34-5.53l-4.83-30.15L246,209.39l15.18-8.5Z"/><path class="cls-22" d="M266.56,234.6s.09-.1.28-.27c2-1.87,15-12.75,30.4,1.59,0,0-16,8.5-29.58-.64C267.32,235,266.91,234.83,266.56,234.6Z"/><path class="cls-34" d="M287.14,242a31.78,31.78,0,0,1-5.25-.32,33.73,33.73,0,0,1-5.16-1.15,25.2,25.2,0,0,1-4.85-2.05,21.28,21.28,0,0,1-4.22-3.15h0a23.82,23.82,0,0,0,4.32,3,28,28,0,0,0,4.8,2.08,33.26,33.26,0,0,0,5.11,1.2,32.74,32.74,0,0,0,5.23.42Z"/><path class="cls-35" d="M266.84,234.32c2.14-2.06,3.67-4.77,6.31-6.35a16.07,16.07,0,0,1,8.66-2,17.35,17.35,0,0,1,4.47.63,13.28,13.28,0,0,1,3.87,2.29,23.51,23.51,0,0,1,5.77,6.82,24.72,24.72,0,0,0-5.86-6.7,13.21,13.21,0,0,0-3.84-2.24,17.6,17.6,0,0,0-4.4-.59,16.23,16.23,0,0,0-8.58,1.95C270.63,229.64,269.05,232.34,266.84,234.32Z"/><path class="cls-36" d="M281.11,228.36a3.64,3.64,0,0,1,2.45,1.29,5.14,5.14,0,0,1,1,2.68c.34,2.86-1.13,7.26-4.56,7.4a10.24,10.24,0,0,1-6.68-1.92c-2-1.72-1.78-5-.75-7.27C274.63,229.6,278.35,228,281.11,228.36Z"/><path class="cls-37" d="M266.56,234.6a24.89,24.89,0,0,1,7.06-4.68,19.86,19.86,0,0,1,8.33-1.67,16.72,16.72,0,0,1,4.22.65,18.73,18.73,0,0,1,4,1.62,27,27,0,0,1,6.73,5.24l.19.2-.22.14a26.2,26.2,0,0,1-15.37,3.78,29.31,29.31,0,0,1-7.81-1.64c-.63-.23-1.24-.52-1.85-.78a15.37,15.37,0,0,1-1.79-.83A36.23,36.23,0,0,1,266.56,234.6Zm0,0a38.12,38.12,0,0,0,3.48,1.94,19,19,0,0,0,1.79.78c.62.24,1.22.51,1.85.72a29.38,29.38,0,0,0,7.76,1.5,26.25,26.25,0,0,0,7.85-.75,24.8,24.8,0,0,0,7.25-3.06v.34a26.89,26.89,0,0,0-6.59-5.18,18.32,18.32,0,0,0-8-2.29,19.18,19.18,0,0,0-8.22,1.53A24.49,24.49,0,0,0,266.56,234.6Z"/><path class="cls-35" d="M227.93,229.23c-2-2.22-3.84-4.63-5.85-6.85a14,14,0,0,0-1.61-1.57,9.47,9.47,0,0,0-1.88-1.19,14.21,14.21,0,0,0-4.29-1.25,18,18,0,0,0-4.46-.07,11.8,11.8,0,0,0-4.26,1.27,11.18,11.18,0,0,0-3.42,2.85l-2.86,3.48c.89-1.17,1.78-2.41,2.77-3.57a11.35,11.35,0,0,1,3.43-2.92,11.7,11.7,0,0,1,4.31-1.33,17.18,17.18,0,0,1,4.53.08,14.34,14.34,0,0,1,4.33,1.3,9.82,9.82,0,0,1,1.91,1.22,16.21,16.21,0,0,1,1.61,1.6C224.19,224.5,225.94,227,227.93,229.23Z"/><path class="cls-22" d="M228.15,229.55l-.22-.32c-1.68-2.19-12.62-15.17-30.23-3.67,0,0,14.28,11.13,29.24,4.46C227.32,229.86,227.75,229.72,228.15,229.55Z"/><path class="cls-36" d="M211.44,220.78s-7.42,2.84-2.91,9.53c.41.61,1.06.73,2.1,1.41a13.59,13.59,0,0,0,5,.41c3.4-.66,6.46-3.35,5-9.09A59.79,59.79,0,0,0,211.44,220.78Z"/><path class="cls-38" d="M232.69,288.23c-1.55.44-3.88,1.23-5.35,1.72a53.1,53.1,0,0,0-10.53,4.62c-.34.19-1.42,1.14-1.78,1.11l22.21,1.58,7,2.45,8.54-1.53,20.91.89s-14.93-9.4-22-10.45l-5.82,1.79a36.65,36.65,0,0,0-3.68-2.38C239.23,286.6,235.66,287.4,232.69,288.23Z"/><path class="cls-37" d="M228.15,229.55a24.74,24.74,0,0,0-6.25-5.65,19.36,19.36,0,0,0-7.84-2.91,18.35,18.35,0,0,0-8.28.89,26.91,26.91,0,0,0-7.39,4v-.34a24,24,0,0,0,6.61,4.25,26.51,26.51,0,0,0,7.61,2.11,18.46,18.46,0,0,0,2,.16,13,13,0,0,0,2,0l2-.08,2-.31,1-.13c.33,0,.64-.15,1-.22l1.93-.48C225.65,230.47,226.87,230,228.15,229.55Zm0,0c-1.23.44-2.47,1-3.74,1.39l-1.93.53c-.32.08-.63.18-1,.25l-1,.17-2,.31-2,.11a13.35,13.35,0,0,1-2,0,19.36,19.36,0,0,1-2-.13,25.62,25.62,0,0,1-7.72-2.08,24.57,24.57,0,0,1-6.76-4.3l-.19-.17.21-.16a27.31,27.31,0,0,1,7.54-4,18.56,18.56,0,0,1,4.17-.89,16.65,16.65,0,0,1,4.29.08,19.68,19.68,0,0,1,7.91,3.08A24.62,24.62,0,0,1,228.15,229.55Z"/><path class="cls-39" d="M215,295.68s9.33.75,22.21,1.58c2.8.18,4,1.68,7.15,1.86,2.18.12,6.13-1.05,8.4-.94,6.87.38,14,.71,20.92.89C273.67,299.11,246.09,321.93,215,295.68Z"/><path class="cls-40" d="M243.81,271s-2.68-7.4-7.81-3.95C236,267,232.24,271.86,243.81,271Z"/><path class="cls-40" d="M254,273.48s2.67-7.41,7.8-4C261.83,269.53,265.59,274.35,254,273.48Z"/><path class="cls-40" d="M235,256.33a13,13,0,0,0-5,5.08,8.19,8.19,0,0,0-.79,3.47c0,.29.06.59.09.89a3.89,3.89,0,0,0,.17.89,8.48,8.48,0,0,0,.62,1.68,15.21,15.21,0,0,0,1.92,3,10.66,10.66,0,0,0,2.77,2.23,8.44,8.44,0,0,0,6.95.77,7.64,7.64,0,0,1-3.57.48,9.8,9.8,0,0,1-3.45-1.13,10.52,10.52,0,0,1-2.87-2.22,16.1,16.1,0,0,1-2-3.05,9.61,9.61,0,0,1-.61-1.73,3.85,3.85,0,0,1-.15-.89c0-.3-.09-.6-.09-.89a8,8,0,0,1,.84-3.57A12.34,12.34,0,0,1,235,256.33Z"/><path class="cls-40" d="M262.44,257.93a24.49,24.49,0,0,1,3.53,6.21,13.39,13.39,0,0,1,.89,3.48,7,7,0,0,1-.5,3.57,6.18,6.18,0,0,1-2.38,2.68,14.11,14.11,0,0,1-3.29,1.42,5.56,5.56,0,0,1-3.58.08,9.59,9.59,0,0,1-3-1.85,9.51,9.51,0,0,0,3.08,1.78,5.4,5.4,0,0,0,3.46-.12,13.81,13.81,0,0,0,3.24-1.44,6,6,0,0,0,2.28-2.61,7,7,0,0,0,.53-3.43,13.72,13.72,0,0,0-.81-3.46A27.31,27.31,0,0,0,262.44,257.93Z"/><path class="cls-41" d="M269.17,207.35a5.13,5.13,0,0,0-3.5,3.57,3.29,3.29,0,0,0,.38,2.56c.74,1,2.08.73,3.16.55a71.16,71.16,0,0,1,13.76-.8c4.46.12,9.81.38,13.55,3.08l.18.13,3.91,3-2.25-4.82c-2.52-5.44-9.66-6.25-14.92-7.25a44.66,44.66,0,0,0-7.64-.84C275.2,206.51,269.17,206.65,269.17,207.35Z"/><polygon class="cls-42" points="146.07 387.02 177.22 403.67 147.1 392.79 140.56 385.77 146.07 387.02"/><path class="cls-43" d="M195,213.86s-5.28,4.09-5.42,8.31h-3.92l-1.59-13.81s46.67-4.69,60.3,15.22l-1.89,8.25S244.08,208.19,195,213.86Z"/><path class="cls-43" d="M244.35,223.61s12.56-.25,14.54,2.93l2.24,5.35s-10-8.61-17.85-3.57Z"/><path class="cls-44" d="M188.06,222.17c-.54,1.05-.19,3.35-.19,4.47a58.84,58.84,0,0,0,.81,10.43,30.8,30.8,0,0,0,4,11.25c4.68,7.35,15.26,9.15,23.34,9,8.93-.2,17.28-4.34,21.78-12.27a53.88,53.88,0,0,0,4.69-13.21s1.1-7.73-.74-9.65L232,216,221,213l-11.95-.82H193.17Z"/><polygon class="cls-43" points="184.05 208.37 180.41 209.05 180.95 216.04 184.93 216.04 185.7 209.38 184.05 208.37"/><polygon class="cls-45" points="180.95 216.04 174.36 220.88 174.57 217.36 175.23 211.88 180.41 209.05 180.95 216.04"/><path class="cls-41" d="M208.05,195.53a6,6,0,0,1,4.46-.79c4.32,1.51,8.34,2.11,12.73,3.39,4.11,1.2,8.65,2.07,12.76,3.26,5,1.45,3.68,9-.81,7.66l-25.63-7.82a3.55,3.55,0,0,0-1-.15H197.7Z"/><path class="cls-46" d="M212.94,121.27a121.07,121.07,0,0,0-38.06,38.28,116.42,116.42,0,0,0-6.54,11.9c-.89,2.08-1.91,4.12-2.68,6.25-.41,1.06-.84,2.1-1.23,3.17l-1.08,3.21c-2.87,8.62-3.75,17.75-3.75,26.78s.75,18.13.9,27.23a132.17,132.17,0,0,1-.46,13.64,115.63,115.63,0,0,1-2.21,13.47,102.21,102.21,0,0,1-9.43,25.55,71.37,71.37,0,0,1-7.61,11.32,62.51,62.51,0,0,1-9.74,9.5v-.05a68,68,0,0,0,17-21,101,101,0,0,0,9.15-25.5,109.92,109.92,0,0,0,2.2-13.39,122.8,122.8,0,0,0,.46-13.56c-.1-9.07-.83-18.14-.77-27.24S160,192.6,162.93,184l1.1-3.23c.39-1.06.83-2.12,1.24-3.18.8-2.13,1.79-4.17,2.72-6.25a117.3,117.3,0,0,1,6.61-11.92,121.07,121.07,0,0,1,38.31-38.16Z"/><path class="cls-46" d="M179,361a23.94,23.94,0,0,0,4-7.8,9,9,0,0,0,.18-4.31,5.73,5.73,0,0,0-2.44-3.43c-.59-.38-1.27-.75-1.87-1.19a18.07,18.07,0,0,1-1.7-1.45,19.17,19.17,0,0,1-2.79-3.49,24.67,24.67,0,0,1-3.2-8.28,38.08,38.08,0,0,1,1.08-17.65,66.39,66.39,0,0,1,7.33-16.11h.06a78.53,78.53,0,0,0-6.75,16.25,45.13,45.13,0,0,0-1.56,8.64,32.76,32.76,0,0,0,.36,8.73,24.15,24.15,0,0,0,3.06,8.16,18.54,18.54,0,0,0,2.67,3.44,16.23,16.23,0,0,0,1.66,1.43c.58.45,1.2.79,1.83,1.22a6,6,0,0,1,2.52,3.63,8.81,8.81,0,0,1-.26,4.47,23.88,23.88,0,0,1-4.16,7.78Z"/><path class="cls-46" d="M198.17,355.08a61.65,61.65,0,0,1-4.89-7.95,49.84,49.84,0,0,1-3.57-8.65,27.75,27.75,0,0,1-1.36-9.27,18.78,18.78,0,0,1,.78-4.65,15.83,15.83,0,0,1,2-4.23h0a20,20,0,0,0-1.62,4.31,20.54,20.54,0,0,0-.57,4.55,32.7,32.7,0,0,0,1.21,9.12,51,51,0,0,0,3.33,8.65,62.29,62.29,0,0,0,4.65,8Z"/><path class="cls-46" d="M169.32,155.35c-3.75,11.42-7.24,23.08-7.8,35.13s-1,24.11-3,36A104.8,104.8,0,0,1,154,244a134.27,134.27,0,0,1-7.33,16.55c-1.42,2.68-3,5.26-4.61,7.81a86.56,86.56,0,0,1-5.4,7.27,64.35,64.35,0,0,1-6.35,6.44,51.36,51.36,0,0,1-7.42,5.18v-.06a51.22,51.22,0,0,0,7.25-5.36,64.83,64.83,0,0,0,6.24-6.49,82.06,82.06,0,0,0,5.27-7.31q2.4-3.81,4.46-7.81a135.8,135.8,0,0,0,7.31-16.46A104.29,104.29,0,0,0,158,226.4c2.13-11.85,2.57-23.93,3.24-35.94a93.87,93.87,0,0,1,2.84-17.86c1.47-5.85,3.3-11.6,5.23-17.29Z"/><path class="cls-26" d="M235.44,140.21a93.44,93.44,0,0,1,13.92,14.61A60,60,0,0,1,259,172.54a37.65,37.65,0,0,1,1.78,10,29.27,29.27,0,0,1-1.53,10,34.63,34.63,0,0,1-2,4.68,36,36,0,0,1-2.82,4.22c-.54.66-1,1.37-1.61,2L251,205.28a23.24,23.24,0,0,1-1.86,1.72l-1.9,1.66v-.06a48.61,48.61,0,0,0,6.78-7.41A40.17,40.17,0,0,0,256.7,197a33,33,0,0,0,1.91-4.6,29,29,0,0,0,1.5-9.82,36,36,0,0,0-1.67-9.82,59,59,0,0,0-9.39-17.7,93,93,0,0,0-13.69-14.76Z"/><path class="cls-26" d="M263.14,198.05a57.07,57.07,0,0,0,6.84-8.73,60.92,60.92,0,0,0,5.17-9.82A48.3,48.3,0,0,0,279,157.88a50.47,50.47,0,0,0-.67-5.49l-.61-2.68c-.18-.89-.53-1.79-.78-2.68l-.4-1.32c-.14-.44-.33-.89-.49-1.29-.34-.89-.66-1.72-1-2.57-.82-1.65-1.53-3.35-2.5-4.92-.46-.8-.9-1.62-1.37-2.41l-1.54-2.29-.75-1.16L268,130l-1.68-2.2c-1.15-1.45-2.41-2.8-3.57-4.22l-3.87-4v-.06A71.57,71.57,0,0,1,273,136.61c.93,1.62,1.77,3.29,2.54,5,.36.9.68,1.74,1,2.61.16.44.35.89.5,1.3l.4,1.34c.25.89.58,1.79.75,2.68l.59,2.74a52,52,0,0,1,.62,5.56,48.83,48.83,0,0,1-4,21.79,63.05,63.05,0,0,1-5.35,9.82,57.63,57.63,0,0,1-7,8.68Z"/><path class="cls-26" d="M249.74,118.28a67.61,67.61,0,0,1,18.95,12,54.21,54.21,0,0,1,13.39,18,48.27,48.27,0,0,1,4.13,22,68.15,68.15,0,0,1-5,21.88h-.06c.55-1.79,1.16-3.57,1.67-5.36l.72-2.68c.23-.89.49-1.78.64-2.73a54,54,0,0,0,.89-5.51c.1-.9.25-1.85.31-2.78l.12-2.79a48.67,48.67,0,0,0-.76-11.11,46.83,46.83,0,0,0-3.19-10.67,53.87,53.87,0,0,0-13.1-17.94,67.18,67.18,0,0,0-18.74-12.16Z"/><path class="cls-26" d="M281.66,128.1a103.93,103.93,0,0,1,7.28,19.72,86.56,86.56,0,0,1,3.06,20.8c.07,7.08-1.47,14-1.86,20.95a36.59,36.59,0,0,0,.61,10.39,22.46,22.46,0,0,0,4.52,9.37h0l-1.64-2.06c-.49-.74-.89-1.5-1.38-2.25a15.77,15.77,0,0,1-1.09-2.41,22.07,22.07,0,0,1-.81-2.54,35.45,35.45,0,0,1-.83-10.52c.2-3.52.69-7,1.12-10.48a81.09,81.09,0,0,0,.89-10.44,85.74,85.74,0,0,0-2.85-20.72,103.4,103.4,0,0,0-7-19.78Z"/><path class="cls-26" d="M222.77,117.89a92.66,92.66,0,0,0-10.51,6.25,104,104,0,0,0-9.69,7.42,80,80,0,0,0-15.94,18.33,59.69,59.69,0,0,0-7,16.76,55.34,55.34,0,0,0-1,6,25.45,25.45,0,0,0-.27,3l-.11,3a58.55,58.55,0,0,0,.41,6.07c.15,1,.22,2,.41,3l.63,3a24.44,24.44,0,0,0,.73,2.95l.82,2.95h-.06a57.82,57.82,0,0,1-3-11.86,59.69,59.69,0,0,1-.54-6.12l.05-3.07a26.39,26.39,0,0,1,.21-3.07,56.44,56.44,0,0,1,1-6.07,60.29,60.29,0,0,1,1.78-5.88,57.86,57.86,0,0,1,5.36-11,80.89,80.89,0,0,1,16.18-18.3,102.85,102.85,0,0,1,9.81-7.32,92.18,92.18,0,0,1,10.59-6.13Z"/><path class="cls-26" d="M193.38,208.37l-.84-3.43-.42-1.73c-.12-.57-.19-1.16-.3-1.74l-.56-3.49c-.14-1.18-.21-2.35-.31-3.57l-.14-1.78v-5.36l.28-3.57.08-.89.13-.89.29-1.79.27-1.79c.1-.58.26-1.15.4-1.73.28-1.14.51-2.29.89-3.42l1.07-3.37c.37-1.12.89-2.21,1.27-3.3a73.19,73.19,0,0,1,6.61-12.46A100.91,100.91,0,0,1,221,133.45,127.36,127.36,0,0,1,232.22,125a113.37,113.37,0,0,1,12.13-7.14,111.82,111.82,0,0,0-12.09,7.22,128.6,128.6,0,0,0-11.19,8.54,100.15,100.15,0,0,0-18.75,20.88,73.9,73.9,0,0,0-6.49,12.44c-.41,1.1-.9,2.17-1.24,3.28l-1,3.42c-.33,1.13-.55,2.28-.83,3.41-.12.57-.29,1.14-.38,1.72l-.27,1.73-.26,1.73-.13.89-.07.89-.26,3.5v5.3l.15,1.78c.12,1.16.19,2.33.32,3.49l.59,3.46c.1.58.17,1.16.31,1.73l.43,1.7.89,3.4Z"/><path class="cls-26" d="M277.39,331.11A59.13,59.13,0,0,0,286,319.73a118,118,0,0,0,6.6-12.73c2-4.36,3.74-8.8,5.36-13.3s3.13-9,4.46-13.64h0a35.59,35.59,0,0,0,2-11.46,108.56,108.56,0,0,0-.27-11.69q-.43-5.84-1.25-11.6c-.13-1-.3-1.93-.42-2.9a20.64,20.64,0,0,1-.09-2.94c.08-1.95.38-3.89.63-5.82s.41-3.88.66-5.82l.73-5.8c.21-1.94.44-3.88.52-5.82a35.47,35.47,0,0,0-.26-5.83,29.6,29.6,0,0,0-3.65-11,24.81,24.81,0,0,0-7.74-8.55l.17-.05a18.57,18.57,0,0,0-1.12,4.65,20.2,20.2,0,0,0,.06,4.79,25.91,25.91,0,0,0,1.07,4.69,25.18,25.18,0,0,0,1.92,4.39h0a.12.12,0,0,1,0,.17h0a.09.09,0,0,1-.12,0,22,22,0,0,1-4.36-3.57,45,45,0,0,1-3.64-4.28q-1.71-2.25-3.24-4.61c-1-1.57-2-3.16-2.93-4.8h.24a17.35,17.35,0,0,1-4.46,4.58,50,50,0,0,1-5.36,3.52A101.15,101.15,0,0,1,260.08,206a.17.17,0,0,1-.21-.07.18.18,0,0,1,.06-.19h0a8.64,8.64,0,0,0,1.63-1.45,6.8,6.8,0,0,0,1.47-6.12l.27.06a23.54,23.54,0,0,1-3.57,3.2,46.5,46.5,0,0,1-4,2.68c-2.68,1.7-5.51,3.25-8.37,4.69a.16.16,0,0,1-.21-.08h0a.17.17,0,0,1,0-.14,65.93,65.93,0,0,0,4.9-14.78l.35-1.92c.11-.64.17-1.29.25-1.93.19-1.29.22-2.59.3-3.88a41.14,41.14,0,0,0-.56-7.76,33.49,33.49,0,0,0-6.14-14.15,34.71,34.71,0,0,0-11.72-10h.17A54.64,54.64,0,0,0,221,164.5a97.32,97.32,0,0,0-10.9,13.39,147.29,147.29,0,0,0-8.93,14.81,161.39,161.39,0,0,0-7.27,15.68h0a.21.21,0,0,1-.25.12,16.09,16.09,0,0,1-4.46-2.14,23.31,23.31,0,0,1-3.73-3.28,31.46,31.46,0,0,1-3-3.92,33.06,33.06,0,0,1-2.4-4.31l.35.06a13.59,13.59,0,0,0-2.75,5.08,41.36,41.36,0,0,0-1.48,5.69,90,90,0,0,0-1.44,11.68h0c-.2,2.68-.19,5.4-.24,8.11v8.13l.07,16.26v4.06c0,1.36,0,2.68.13,4.06.27,2.67.59,5.35.89,8.08l2,16.15,1,8a60.74,60.74,0,0,0,1.29,8,55.32,55.32,0,0,0,6.45,14.84A93.76,93.76,0,0,0,196,326.19c1.79,2.06,3.63,4,5.55,5.95s3.94,3.71,6,5.53h0c-2-1.78-4.05-3.57-6-5.51s-3.78-3.9-5.56-5.94a92.73,92.73,0,0,1-9.67-13.07,55.36,55.36,0,0,1-6.52-14.86,60.7,60.7,0,0,1-1.32-8l-1-8-2-16.14c-.32-2.68-.65-5.35-.89-8.09a39.54,39.54,0,0,1-.14-4.07v-4.07l-.12-16.26v-8.11c0-2.67,0-5.41.21-8.14h0a87.76,87.76,0,0,1,1.43-11.77,43.77,43.77,0,0,1,1.5-5.75,13.92,13.92,0,0,1,2.86-5.24.22.22,0,0,1,.3,0h0l.05.06h0a30.83,30.83,0,0,0,2.35,4.25,33.49,33.49,0,0,0,2.95,3.87,23.55,23.55,0,0,0,3.61,3.23,16,16,0,0,0,4.33,2.08l-.25.12a160.47,160.47,0,0,1,7.25-15.71,145.89,145.89,0,0,1,8.93-14.84,97,97,0,0,1,11-13.39,55.66,55.66,0,0,1,13.81-10.44h0a.22.22,0,0,1,.16,0A35,35,0,0,1,246.57,164a33.8,33.8,0,0,1,6.2,14.28,40.19,40.19,0,0,1,.55,7.83c-.08,1.3-.11,2.61-.3,3.91-.09.65-.14,1.3-.25,1.94l-.36,1.94a66.43,66.43,0,0,1-4.94,14.85l-.22-.22c2.85-1.43,5.64-3,8.34-4.66,1.35-.85,2.68-1.73,3.93-2.68A24.93,24.93,0,0,0,263.1,198h0a.14.14,0,0,1,.2,0h0a.1.1,0,0,1,0,.07,7,7,0,0,1,.19,2.28,6.69,6.69,0,0,1-.53,2.2,6.84,6.84,0,0,1-1.19,1.93,9.67,9.67,0,0,1-1.7,1.5l-.14-.27A103.22,103.22,0,0,0,271.37,200a50.51,50.51,0,0,0,5.29-3.51,17.16,17.16,0,0,0,4.4-4.47.13.13,0,0,1,.18-.05h0l.05.05c.9,1.64,1.89,3.23,2.91,4.8s2.08,3.1,3.22,4.59a46,46,0,0,0,3.62,4.26,21.66,21.66,0,0,0,4.3,3.57l-.17.18a24.87,24.87,0,0,1-1.94-4.46,25.53,25.53,0,0,1-1.08-4.73,20.79,20.79,0,0,1-.06-4.86,18.71,18.71,0,0,1,1.13-4.71.12.12,0,0,1,.15-.07h0a24.94,24.94,0,0,1,7.82,8.64,29.76,29.76,0,0,1,3.66,11.08,34.68,34.68,0,0,1,.25,5.85c-.08,2-.31,3.9-.53,5.84l-.74,5.81c-.25,1.93-.4,3.87-.67,5.81s-.55,3.87-.62,5.81a19.93,19.93,0,0,0,.06,2.89c.12,1,.3,1.92.42,2.89q.81,5.81,1.24,11.6a106.45,106.45,0,0,1,.25,11.71,36.05,36.05,0,0,1-2,11.51h0c-1.31,4.61-2.83,9.14-4.46,13.64s-3.4,8.93-5.36,13.3a117,117,0,0,1-6.61,12.72,59.81,59.81,0,0,1-8.69,11.39Z"/><path class="cls-26" d="M178.1,175.9a273.63,273.63,0,0,0-8.49,44.41,199.15,199.15,0,0,0-.06,45.13,144,144,0,0,1-.64,22.65c-.39,3.76-1,7.5-1.73,11.22l-.63,2.76c-.21.9-.43,1.84-.7,2.75l-.7,2.7-.9,2.68-.45,1.34-.51,1.32c-.32.89-.62,1.78-.89,2.67a46.67,46.67,0,0,0-1.32,5.46,35.12,35.12,0,0,0-.35,11.16,19.4,19.4,0,0,0,4.46,10.08,21.53,21.53,0,0,0,9.3,6h0a14,14,0,0,1,3.57,3.72,6.6,6.6,0,0,1,1.12,5,8,8,0,0,1-2.84,4.24,21.54,21.54,0,0,1-4.37,2.68v-.06a21.21,21.21,0,0,0,4.29-2.76,7.82,7.82,0,0,0,2.68-4.16,6.48,6.48,0,0,0-1.14-4.75,13.85,13.85,0,0,0-3.51-3.57h0a21.91,21.91,0,0,1-9.54-6,20,20,0,0,1-4.64-10.31,34.18,34.18,0,0,1,.28-11.37,50.16,50.16,0,0,1,1.33-5.54c.28-.89.57-1.78.9-2.67l.51-1.33.45-1.33.89-2.68.77-2.68c.27-.89.49-1.79.7-2.73l.64-2.74c.74-3.69,1.36-7.4,1.78-11.15a141.59,141.59,0,0,0,.74-22.55,198,198,0,0,1,.25-45.2,272.39,272.39,0,0,1,8.7-44.39Z"/><polygon class="cls-47" points="188.71 423.08 178.5 398.66 181.46 394.72 193.47 397.55 198.38 412.23 188.71 423.08"/><path class="cls-48" d="M353.56,556.91s5.12-16.6,33.75-17c0,0,15.39-5.88,14.73-11.09,0,0-20.26,6-23.82,2C378.22,530.79,353,535,353.56,556.91Z"/><path class="cls-26" d="M306.25,157.05c2.07,5.85,3.83,11.81,5.36,17.85a178.94,178.94,0,0,1,3.77,18.22c.47,3.07.8,6.16,1,9.25a72.5,72.5,0,0,1,.12,9.32,46.37,46.37,0,0,1-1.32,9.24,23.41,23.41,0,0,1-4,8.42.23.23,0,0,1-.31,0,.22.22,0,0,1,0-.3h0a.3.3,0,0,1,.32-.1.67.67,0,0,1,.18.07,1.84,1.84,0,0,1,.22.17,3,3,0,0,1,.36.35c.23.24.44.49.64.74.41.5.81,1,1.19,1.53q1.16,1.56,2.25,3.15,2.19,3.16,4.29,6.41c.7,1.09,1.39,2.14,2.06,3.31.51,1.18,1,2.36,1.46,3.57A49.4,49.4,0,0,1,326,255.7a41.75,41.75,0,0,1,.21,15.44,36.46,36.46,0,0,1-2.21,7.45l-.81,1.78-.89,1.73-1.67,3.47A92.44,92.44,0,0,0,315,299.85,39.14,39.14,0,0,0,313.54,315a48.13,48.13,0,0,0,4.75,14.53,50.17,50.17,0,0,0,8.58,12.7v0a53.86,53.86,0,0,1-13.77-27.2,39.56,39.56,0,0,1,1.34-15.38A88.51,88.51,0,0,1,320,285.3l1.67-3.47.84-1.73.79-1.79a37.22,37.22,0,0,0,2.2-7.3,41.43,41.43,0,0,0-.14-15.22,49.48,49.48,0,0,0-2-7.38,37.59,37.59,0,0,0-1.45-3.57,28,28,0,0,0-2-3.25c-1.39-2.16-2.8-4.3-4.26-6.42-.73-1.06-1.46-2.12-2.22-3.14-.38-.52-.77-1-1.17-1.52-.2-.25-.41-.49-.62-.72a3.22,3.22,0,0,0-.32-.32l-.16-.13c-.07-.05-.08,0,.06-.07l-.34-.28a23,23,0,0,0,4-8.25,46.94,46.94,0,0,0,1.38-9.14,75.46,75.46,0,0,0-.08-9.27c-.2-3.09-.52-6.18-1-9.24a179.82,179.82,0,0,0-3.66-18.23c-1.52-6-3.26-12-5.28-17.85Z"/><path class="cls-43" d="M261.13,231.83s3.18-10.28,17.6-8.26c0,0,26.83,1,31.46,13v6.33h5.29s-1.33-4.87,4.46-4.87v-5.77s-19.57-7-28.57-8.66c0,0-21.14-4.82-30.27.58l-2.23,2.36Z"/><path class="cls-49" d="M138.07,381.23s-1.93,4.08,1.47,6.63c0,0,3.35,4.93,7.56,4.93,0,0,3.28-1.53-1-5.78,0,0-5.36-1.48-1.41-7.14,0,0,16.91,3.28,26.26,14.05l21.36,13.32-13.16-22.95L147,370.07l-4.67,4.7L139,377.89Z"/><path class="cls-26" d="M303.14,233.55a41,41,0,0,1,6.66,11.52,48.25,48.25,0,0,1,3.1,13,50.13,50.13,0,0,1-.62,13.34c-.71,4.4-1.79,8.73-2.78,13.05s-2,8.67-2.56,13.06c-.3,2.2-.5,4.41-.58,6.62s-.15,4.46-.13,6.65A68.15,68.15,0,0,0,307.34,324,36.8,36.8,0,0,0,312,336.34l0,.05a34.06,34.06,0,0,1-3.14-5.9,43.8,43.8,0,0,1-1.91-6.42,69.15,69.15,0,0,1-1.36-13.3c0-2.23,0-4.47.14-6.69a65.2,65.2,0,0,1,.58-6.68c.63-4.46,1.66-8.76,2.68-13.08s2.12-8.64,2.86-13a49.75,49.75,0,0,0,.72-13.23,47.83,47.83,0,0,0-3-12.93,41,41,0,0,0-6.51-11.55Z"/><path class="cls-44" d="M261.13,231.83c0,7.27-.13,14.21,2.44,21.19a23.39,23.39,0,0,0,7.14,10.47c4.9,3.88,11.45,5.23,17.58,5.27,6.32,0,12.83-1.11,17-6.25,4.42-5.4,5.51-12.88,5.63-19.64l1-5.58s-2.3-1.83-2.12-3.29-6.3-6.29-6.3-6.29l-10.36-3-14.37-2.11-9.33.35-4.37,1.68-4,3.07Z"/><path class="cls-23" d="M153.29,357.67s-8.41,6.34-10.71,15.64c0,0-6.36,2-4.54,7.92,0,0,.55-4.08,8-7.25l10.38-6.8-2-9.09Z"/><path class="cls-26" d="M299,146.27c2,5.5,3.7,11.11,5.18,16.77a164.33,164.33,0,0,1,3.52,17.2c.42,2.9.75,5.82,1,8.74a86.28,86.28,0,0,1,.12,8.81,52.55,52.55,0,0,1-1.13,8.73,33.45,33.45,0,0,1-2.92,8.28h-.06a38,38,0,0,0,2.53-8.35,56,56,0,0,0,.89-8.67,107,107,0,0,0-.89-17.44,168.37,168.37,0,0,0-3.33-17.2c-1.39-5.67-3-11.3-4.91-16.82Z"/><path class="cls-26" d="M300.59,355.38c2.67-4,3.75-8.85,4-13.61a60.51,60.51,0,0,0-1.07-14.28c-.43-2.36-1-4.69-1.57-7s-1.25-4.63-2-6.91c-1.39-4.59-3-9.1-4.79-13.57h0a103,103,0,0,1,5.36,13.39,99.67,99.67,0,0,1,3.43,14,61.58,61.58,0,0,1,.89,14.41,27.48,27.48,0,0,1-4.32,13.62Z"/><path class="cls-26" d="M286.6,319a72.15,72.15,0,0,0-3.3,9.68,58.77,58.77,0,0,0-1.78,10,34.19,34.19,0,0,0,.56,10.09,18.22,18.22,0,0,0,4.55,8.93v.05a16.47,16.47,0,0,1-5.16-8.79,30.46,30.46,0,0,1-.44-10.3A58.75,58.75,0,0,1,283,328.55a74.5,74.5,0,0,1,3.57-9.62Z"/><path class="cls-50" d="M153.29,357.67s13.53,4.56,24.36,12.4c0,0,20.39,12.5,20,18.41,0,0,13.06,1.37,15.91,7.71,0,0,28.37,7.71,30.61,13.14,0,0-30.83-6.34-43.83,4.54l-26.06-21.31s-20-19.49-28.26-18.58A35.6,35.6,0,0,1,153.29,357.67Z"/><path class="cls-51" d="M192.82,404.91s-5.36-10.88,6-11c0,0,13.07,6.57,1.71,14.15l-4.32-8.38Z"/><path class="cls-52" d="M331.9,472.33l17-6.34,31.59,37.16L400,515.07s11.81,27-21.82,15.72l-24.65-27.67Z"/><path class="cls-53" d="M140,556.91s4.57-32.22,25.27-12.85l1.67-9s-2.21-2.46-4.34,2.68c0,0-17.53-9.74-23.1,12.92,0,0-.79,4.87-2.38,0a1.32,1.32,0,0,0-1.86-.13,1.24,1.24,0,0,0-.29.36l1.28,3.33s-.95,1.88.18,2.11S140,556.91,140,556.91Z"/><path class="cls-54" d="M352.21,362.2s51.12,15.29,67.13,38.07l6.14,4.76,1.19,3.22s23,36.21,20.62,51.85c0,0,5.11,16.65,9.2,23.45,0,0,14.65,26.95,10.56,43.05,0,0,3.75,48.73-.67,63,0,0-3.07,51.55-6.82,61.3H440.47s-4.6-14.9-14-21.36c0,0-11.92-18.18-14.49-20.91,0,0-1.7-9-5.28-15.12,0,0,2.9-14.79-2-19.38,0,0,11.41-24.63-3.75-29.06l3.75-12.57s-2.68-5.36-6.14-5.9c0,0-10.22-.56-16.35-13.82,0,0-11.6-19-26.24-22.09,0,0-23.52-30.25,15.33-13.6,0,0,14.28,5.1,14,26.51l6.48,4.76s1.36-19,4.47-20.39c0,0,10.78-2,12.55,6.12,0,0-4.72-18.36-14.6-23.46,0,0-13.29-37.05-7.5-44.86,0,0,5.82-19-25.21-28.22Z"/><path class="cls-55" d="M138.75,559.35s2.33,5.78,5.91,7.31c0,0,12.74-.12,14.51,1.42h2l-.94,6.25s-3.33.35-8.26-2.2a20.5,20.5,0,0,0-9.16-2.42s-1.2,1.2.85,2.39c0,0,6,6.45,6.34,12.57,0,0,.14,15.46,1.83,9.52,0,0,2.41-16.07,7.6-13.8l-.31,2.51s-4.89.76-5.75,14.52l5.05-7.29-.27,6.25s-7.33,8.67-6.14,16.82c0,0-.79,2.56-2-1.69s1.16-10.37-.72-14.11c0,0,1-12.24-3.44-17L138.22,568s-8-.68-9.38-2.56l-.1-3.07s2.16,4.27,9,3.07l-1.65-7.82Z"/><path class="cls-56" d="M150.11,518.33s-1.78-9.51,2.5-1.13l2.5,6.8s2,7.23-1.6,2.6Z"/><path class="cls-53" d="M159.4,551.29s-1.35,13.94,2.51,12.25l-.72,4.54h-2V564.6s-2.38-1.58-2.93-7.65c0,0-2.15-11.11,1.53-8.24Z"/><path class="cls-57" d="M142.62,558.22s9.31,5.21,12-3.4c0,0,2.26-4.31,4.31-8.62,0,0,1.37-5.93,3.67-3,0,0-8.61,27.88-20.37,18.35l-11-6.88s-5.12-4.84,0-4.93C131.28,549.74,138.46,556.8,142.62,558.22Z"/><path class="cls-55" d="M175.33,555.44s4.26,13.76,5.79,20.06c0,0,3.57.85,5.12,3,0,0,24.88-.17,13.46,4.76a22.58,22.58,0,0,1-13.46-1.7s-4.27-1-2.39,3.06L189,603.54s3.19,12.06-1.92,4.07c0,0-6.77-18.14-6.82-26.85,0,0-6-3.06-6-.67a34.73,34.73,0,0,0,2,5.77s1.36,5.27-1.53,1.53l-3.95-10.57.46-6.08s2.3-1.71,5.54,3.57c0,0,1.18-1.87-1-8.5A17.09,17.09,0,0,1,175.33,555.44Z"/><path class="cls-58" d="M192.82,404.91s-10.22,43.65-12.5,61.76l-11.36,58s-10.91,55.07-10.71,68.88c0,0-3,49.86-1.37,57.34h11.84s.28-76.37,4.6-94.95c0,0,12-59.37,14.09-61.42,0,0,13.17-79.08,13.17-86.45l-4.32-8.38Z"/><path class="cls-59" d="M258.87,412.06s.46,4.52,8.77,5.43V414.4A10.12,10.12,0,0,1,258.87,412.06Z"/><path class="cls-60" d="M300.08,458.13s-12.74,67.12,22.71,55.61c0,0,35.43-8.78,43.16-7.19A21.9,21.9,0,0,0,353.56,495s-14.34-12-7.57-20.05l-44.9-21.15Z"/><path class="cls-34" d="M228.15,229.56a58.07,58.07,0,0,1-7.45,2.12,50.61,50.61,0,0,1-7.66,1.07,30.43,30.43,0,0,1-7.74-.45,17.71,17.71,0,0,1-7.08-3.06h0a18.49,18.49,0,0,0,7.14,2.85,24.59,24.59,0,0,0,3.83.47,30.91,30.91,0,0,0,3.85,0,48.09,48.09,0,0,0,7.66-1,55.21,55.21,0,0,0,7.46-2Z"/></g></svg>