<svg xmlns="http://www.w3.org/2000/svg" viewBox="0 0 1895.94 430.21"><defs><style>.cls-1{fill:#d8c9b8;}.cls-2,.cls-8{fill:none;}.cls-2,.cls-3,.cls-5,.cls-6,.cls-8{stroke:#000;stroke-miterlimit:10;}.cls-3{fill:#c1c1c1;}.cls-4{fill:#161616;}.cls-5{fill:#fffdfd;}.cls-11,.cls-6{fill:#f2e1cc;}.cls-7{fill:#afafaf;}.cls-8{stroke-linecap:round;stroke-width:2px;}.cls-9{fill:#efdcdc;}.cls-10{fill:#e0caca;}</style></defs><g id="Capa_30" data-name="Capa 30"><path class="cls-1" d="M1736.85,219.34c-7,13.19-6.9,18.06-6.92,19.2-.09,5.07,6.43-7.6,6.43-7.6,2.06,6.36-6.67,14.48-6.67,14.48l16.36-7.71-1.14-16s-3.13-6.15-8.06-2.41"/><path class="cls-1" d="M1764.66,159.34s-7,36.14-20.67,65.19c0,0-7.83,4.62-8.07-2.4,0,0,10.7-55,17.62-66.1C1753.54,156,1761.74,149.75,1764.66,159.34Z"/><path class="cls-2" d="M1753.54,156s8.2-6.28,11.12,3.31c0,0-6.67,34.42-19.7,63.08l1.09,15.29-16.36,7.71s8.73-8.12,6.67-14.48c0,0-6.52,12.67-6.43,7.6,0-1.11,0-5.72,6.32-18C1738.07,211.34,1747.33,166,1753.54,156Z"/><path class="cls-3" d="M1775.85,154.07s11.89-33.15-6.73-39c0,0-11-5.47-23,32.31l-2.21,7.43,31.42,9.36Z"/><path d="M1819.2,381.87l16.8,22.94-35.1,25.4s-9.87-9-2.88-18.48a18.66,18.66,0,0,0,2.64-15.66.83.83,0,0,1,0-.67l0-.06a7.62,7.62,0,0,1,1.75-10.66c1.67-1.19,3.7-2.66,6.12-4.45A7.64,7.64,0,0,1,1819.2,381.87Z"/><path class="cls-3" d="M1822.61,381.09l-26.16-90.85h0l-26.67-92.61a14.37,14.37,0,0,0-17.73-9.81h0a14.38,14.38,0,0,0-9.8,17.74l26.27,91.23h0L1795.08,389a3.23,3.23,0,0,0,4,2.21l21.34-6.14A3.24,3.24,0,0,0,1822.61,381.09Z"/><path class="cls-4" d="M1733.68,393.71l-6.53,27.68L1685,411.2s.43-13.36,12.18-14.19a18.73,18.73,0,0,0,13.63-8.17c.2-.29.37-.4.52-.42l0-.07a7.6,7.6,0,0,1,9.24-5.59c2,.49,4.43,1.08,7.35,1.76A7.64,7.64,0,0,1,1733.68,393.71Z"/><path class="cls-5" d="M1766.45,188.2a14.36,14.36,0,0,0-18.11,9.07l-30,90a.08.08,0,0,0,0,0c-.08.25-.14.5-.21.75a14.25,14.25,0,0,0-.46,2.79l-8.86,95a3.23,3.23,0,0,0,2.91,3.51l22.11,2.06a3.23,3.23,0,0,0,3.5-2.91l8.76-93.89,29.41-88.35A14.37,14.37,0,0,0,1766.45,188.2Z"/><path class="cls-6" d="M1746.06,122.31c3.09,2,12.74,1.69,15.37,2.31,11.46,2.76,16.36-13.25,16.36-13.25-11.62.68-8.71-10.5-8.71-10.5-5.74-10.5-11.66-.26-11.66-.26C1756.5,113.75,1746.06,122.31,1746.06,122.31Z"/><path class="cls-6" d="M1723.37,62.29c0,24,8.29,43.6,41.14,43.6h.12a39,39,0,0,0,15.66-3.26l8.4-51.69s1.43-31.79-30-31.79h0a40.23,40.23,0,0,0-22,11.08l-.06.06A44.65,44.65,0,0,0,1723.37,62.29Z"/><path d="M1763.32,19.59s46.62.77,42.48,51.87c0,.24,0,.49,0,.73l2.58,130.8a66.75,66.75,0,0,1-14.25,42.89A56.9,56.9,0,0,1,1783.84,256a7.48,7.48,0,0,1-11.84-4.82l-14.34-88.12a7.56,7.56,0,0,1,.14-3.07l15.38-59.69a8.17,8.17,0,0,0,.17-.86C1774,95,1778.15,59.71,1763.32,19.59Z"/><path class="cls-5" d="M1746.06,122.31,1735.73,144a16,16,0,0,0,1.57,16.34c1.35,1.76,2.85,3.19,4.31,3.62,0,0,4.45,24.28-2,37.39l31.9.6-4.2-51.39-.47-28.24S1753.33,124,1746.06,122.31Z"/><path d="M1726.12,39.35s6.42,19.62,41.13,11.08c0,0,8.75,15.05.9,27,0,0-3.74,6.22-5,27.11-.17,2.85-.28,6-.34,9.39l-4.51,8.5,19.76-11.19,1.73-9.91,8.85-50.87s1.51-31.28-31.64-31.28H1757c-.92,0-12.19.57-23.15,10.9a.13.13,0,0,1-.07.06A52.07,52.07,0,0,0,1726.12,39.35Z"/><path d="M1734.36,65.36a11,11,0,0,0,4-.14l-.59,0a10.79,10.79,0,0,1-2.21-.48,13,13,0,0,1-2.06-.86,1.88,1.88,0,0,1-.18-.12,1.59,1.59,0,0,0-2.42.35,5.92,5.92,0,0,0-1.1,2.58,10.17,10.17,0,0,0,.3,5.34,4.46,4.46,0,0,0,1,1.68,1.62,1.62,0,0,0,2.66-.24,6.23,6.23,0,0,0,1-2.52,10.43,10.43,0,0,0-.13-4.78C1734.54,65.87,1734.45,65.62,1734.36,65.36Z"/><path class="cls-7" d="M1735.8,74.25a4.7,4.7,0,0,1-3.55,1.49,5.15,5.15,0,0,1-1.94-.41,5.06,5.06,0,0,1-1.61-1.08,16.92,16.92,0,0,0,1.79.52,7.93,7.93,0,0,0,3.54,0A11,11,0,0,0,1735.8,74.25Z"/><path class="cls-8" d="M1742.06,59.4A34.47,34.47,0,0,0,1728.13,58"/><path d="M1730.45,90.92c.68-.09,1.4-.22,2.1-.36s1.41-.32,2.1-.5a26.41,26.41,0,0,0,4.11-1.45A25.77,25.77,0,0,1,1735,91c-.65.35-1.32.68-2,1s-1.36.61-2.09.88Z"/><path class="cls-9" d="M1778.05,67.29s.57-2.76,1.39-1.73a3,3,0,0,1,.49,1.46,13.09,13.09,0,0,1-1.85,8.6"/><path class="cls-10" d="M1778.05,67.29a4.63,4.63,0,0,1,.34-1.69,1.22,1.22,0,0,1,.3-.42.67.67,0,0,1,.72-.08,1.66,1.66,0,0,1,.66.82,5.59,5.59,0,0,1,.39,1.73,14.13,14.13,0,0,1,.06,1.72,10,10,0,0,1-2.44,6.25,18.83,18.83,0,0,0,1.44-6.29,14.41,14.41,0,0,0,0-1.61,6.75,6.75,0,0,0-.18-1.53,1.32,1.32,0,0,0-.25-.52s0,0-.06,0a.71.71,0,0,0-.22.21A7.26,7.26,0,0,0,1778.05,67.29Z"/><path class="cls-11" d="M1766.8,224.22c-3,14.63-1.5,19.28-1.19,20.38,1.35,4.88,4-9.12,4-9.12,3.78,5.51-2.28,15.78-2.28,15.78l13.49-12-5.62-15s-4.75-5-8.41,0"/><path class="cls-11" d="M1776.44,158.8s3.54,36.64-1.32,68.37c0,0-6.2,6.66-8.42,0,0,0-5.34-55.76-1.86-68.38C1764.84,158.78,1770.92,150.43,1776.44,158.8Z"/><path class="cls-2" d="M1764.84,158.78s6.08-8.35,11.6,0c0,0,3.37,34.89-1,66.07l5.38,14.36-13.49,12s6.06-10.27,2.28-15.78c0,0-2.66,14-4,9.12-.3-1.07-1.67-5.48.94-19.09C1765.7,216.2,1761.71,170.11,1764.84,158.78Z"/><path class="cls-5" d="M1785.68,150.56s2-35.15-17.53-35.49c0,0-12.08-2.13-12.92,37.52v7.75l32.79.06Z"/><path class="cls-1" d="M113.46,219.89c-6.74,13.31-6.58,18.18-6.58,19.32,0,5.07,6.3-7.72,6.3-7.72,2.17,6.32-6.41,14.61-6.41,14.61l16.21-8-1.42-15.94s-3.25-6.09-8.1-2.25"/><path class="cls-1" d="M140.16,159.39s-6.34,36.26-19.48,65.55c0,0-7.74,4.77-8.1-2.25,0,0,9.69-55.17,16.41-66.41C129,156.28,137.08,149.86,140.16,159.39Z"/><path class="cls-2" d="M129,156.28s8.09-6.42,11.17,3.11c0,0-6,34.53-18.54,63.42L123,238.08l-16.21,8s8.58-8.29,6.41-14.61c0,0-6.3,12.79-6.3,7.72,0-1.11-.15-5.72,6-18.15C114.53,211.86,123,166.37,129,156.28Z"/><path class="cls-3" d="M151.26,153.91s11.28-33.35-7.44-38.87c0,0-11.08-5.28-22.44,32.72l-2.08,7.46,31.59,8.8Z"/><path d="M194.11,381.87l16.8,22.94-35.11,25.4s-9.86-9-2.87-18.48a18.66,18.66,0,0,0,2.64-15.66.88.88,0,0,1,0-.67l0-.06a7.62,7.62,0,0,1,1.75-10.66c1.67-1.19,3.7-2.66,6.12-4.45A7.64,7.64,0,0,1,194.11,381.87Z"/><path class="cls-3" d="M200.52,381.09l-26.16-90.85h0l-26.67-92.61A14.37,14.37,0,0,0,130,187.82h0a14.38,14.38,0,0,0-9.8,17.74l26.27,91.23h0L173,389a3.23,3.23,0,0,0,4,2.21l21.33-6.14A3.24,3.24,0,0,0,200.52,381.09Z"/><path class="cls-4" d="M108.59,393.71l-6.54,27.68L59.94,411.2s.43-13.36,12.18-14.19a18.73,18.73,0,0,0,13.63-8.17c.2-.29.37-.4.52-.42v-.07a7.62,7.62,0,0,1,9.25-5.59c2,.49,4.42,1.08,7.35,1.76A7.64,7.64,0,0,1,108.59,393.71Z"/><path class="cls-5" d="M141.36,188.2h0a14.37,14.37,0,0,0-18.12,9.07l-30,90a.08.08,0,0,0,0,0q-.12.38-.21.75a14.28,14.28,0,0,0-.47,2.79l-8.86,95a3.25,3.25,0,0,0,2.91,3.51l22.11,2.06a3.24,3.24,0,0,0,3.51-2.91L121,294.67l29.41-88.35A14.37,14.37,0,0,0,141.36,188.2Z"/><path class="cls-6" d="M121,122.31c3.09,2,12.74,1.69,15.37,2.31,11.46,2.76,16.36-13.25,16.36-13.25-11.62.68-8.71-10.5-8.71-10.5-5.74-10.5-11.66-.26-11.66-.26C131.41,113.75,121,122.31,121,122.31Z"/><path class="cls-6" d="M98.28,62.29c0,24,8.29,43.6,41.14,43.6h.11a39,39,0,0,0,15.67-3.26l8.4-51.69s1.43-31.79-30-31.79h-.06a40.24,40.24,0,0,0-22,11.08l-.06.06A44.65,44.65,0,0,0,98.28,62.29Z"/><path d="M138.22,19.59s46.62.77,42.48,51.87c0,.24,0,.49,0,.73L183.26,203A66.75,66.75,0,0,1,169,245.88,56.9,56.9,0,0,1,158.75,256a7.48,7.48,0,0,1-11.84-4.82l-14.34-88.12a7.39,7.39,0,0,1,.14-3.07l15.38-59.69a8.17,8.17,0,0,0,.17-.86C148.86,95,153.05,59.71,138.22,19.59Z"/><path class="cls-5" d="M121,122.31,110.64,144a16,16,0,0,0,1.57,16.34c1.35,1.76,2.85,3.19,4.31,3.62,0,0,4.45,24.28-2,37.39l31.9.6-4.2-51.39-.47-28.24S128.23,124,121,122.31Z"/><path d="M101,39.35S107.45,59,142.15,50.43c0,0,8.76,15.05.91,27,0,0-3.74,6.22-4.95,27.11-.17,2.85-.29,6-.34,9.39l-4.51,8.5L153,111.21l1.73-9.91,8.85-50.87S165.11,19.15,132,19.15h-.06c-.92,0-12.19.57-23.15,10.9a.19.19,0,0,1-.07.06A51.64,51.64,0,0,0,101,39.35Z"/><path d="M109.27,65.36a11,11,0,0,0,4-.14l-.59,0a10.65,10.65,0,0,1-2.21-.48,12.65,12.65,0,0,1-2.06-.86l-.18-.12a1.59,1.59,0,0,0-2.42.35,5.92,5.92,0,0,0-1.1,2.58A10.27,10.27,0,0,0,105,72a4.61,4.61,0,0,0,1,1.68,1.61,1.61,0,0,0,2.65-.24,6.11,6.11,0,0,0,1.06-2.52,10.43,10.43,0,0,0-.13-4.78C109.44,65.87,109.36,65.62,109.27,65.36Z"/><path class="cls-7" d="M110.71,74.25a4.7,4.7,0,0,1-3.55,1.49,5.15,5.15,0,0,1-1.94-.41,5,5,0,0,1-1.61-1.08,16.92,16.92,0,0,0,1.79.52,7.93,7.93,0,0,0,3.54,0A11,11,0,0,0,110.71,74.25Z"/><path class="cls-8" d="M117,59.4A34.47,34.47,0,0,0,103,58"/><path d="M105.36,90.92c.67-.09,1.4-.22,2.1-.36s1.4-.32,2.1-.5a26.41,26.41,0,0,0,4.11-1.45A26.33,26.33,0,0,1,109.93,91c-.65.35-1.32.68-2,1s-1.36.61-2.09.88Z"/><path class="cls-9" d="M153,67.29s.57-2.76,1.39-1.73a3.13,3.13,0,0,1,.49,1.46,13.15,13.15,0,0,1-1.85,8.6"/><path class="cls-10" d="M153,67.29a4.63,4.63,0,0,1,.34-1.69,1.22,1.22,0,0,1,.3-.42.67.67,0,0,1,.72-.08,1.66,1.66,0,0,1,.66.82,5.89,5.89,0,0,1,.39,1.73,14.13,14.13,0,0,1,.06,1.72A10.1,10.1,0,0,1,153,75.62a18.83,18.83,0,0,0,1.44-6.29c0-.54,0-1.07,0-1.61a6.75,6.75,0,0,0-.18-1.53,1.19,1.19,0,0,0-.26-.52s0,0-.05,0a.71.71,0,0,0-.22.21A7.26,7.26,0,0,0,153,67.29Z"/><path class="cls-11" d="M146.33,224.28c-2.24,14.75-.57,19.32-.21,20.4,1.58,4.82,3.57-9.3,3.57-9.3,4,5.33-1.53,15.88-1.53,15.88l12.9-12.67-6.33-14.7s-5-4.77-8.4.39"/><path class="cls-11" d="M152.83,158.47s5.29,36.42,1.95,68.35c0,0-5.87,7-8.41.39,0,0-8-55.44-5.13-68.21C141.24,159,146.92,150.37,152.83,158.47Z"/><path class="cls-2" d="M141.24,159s5.68-8.63,11.59-.53c0,0,5,34.69,2.17,66l6.06,14.08-12.9,12.67s5.57-10.55,1.53-15.88c0,0-2,14.12-3.57,9.3-.35-1.05-1.93-5.38,0-19.11C144.85,216.32,138.66,170.46,141.24,159Z"/><path class="cls-5" d="M161.66,149.8s.31-35.21-19.2-34.61c0,0-12.18-1.56-11.11,38.09l.35,7.74,32.76-1.51Z"/><path class="cls-1" d="M917,218.26c-7.5,12.9-7.62,17.77-7.69,18.91-.29,5.06,6.74-7.34,6.74-7.34,1.8,6.43-7.24,14.21-7.24,14.21L925.41,237l-.5-16s-2.89-6.27-8-2.72"/><path class="cls-1" d="M947.11,159.41s-8.43,35.83-23.24,64.32c0,0-8,4.31-8-2.73,0,0,12.87-54.51,20.23-65.34C936.14,155.66,944.58,149.71,947.11,159.41Z"/><path class="cls-2" d="M936.14,155.66s8.44-5.95,11,3.75c0,0-8,34.13-22.18,62.24L925.4,237,908.76,244s9-7.78,7.24-14.21c0,0-7,12.4-6.74,7.34.07-1.11.18-5.72,7-17.78C918.48,210.31,929.53,165.38,936.14,155.66Z"/><path class="cls-3" d="M958.51,154.58s13.19-32.64-5.18-39.24c0,0-10.76-5.9-24.3,31.37L926.52,154l31,10.61Z"/><path d="M917.82,392.08l-2.46,28.33-43.15-4s-1.5-13.28,10-15.8a18.69,18.69,0,0,0,12.3-10.06c.16-.31.31-.44.45-.48V390a7.62,7.62,0,0,1,8.34-6.87c2,.2,4.53.43,7.53.68A7.63,7.63,0,0,1,917.82,392.08Z"/><path class="cls-3" d="M950.24,188.2a14.37,14.37,0,0,0-18.12,9.07l-30,90s0,0,0,0c-.07.25-.14.5-.2.75a14.28,14.28,0,0,0-.47,2.79l-8.86,95a3.25,3.25,0,0,0,2.91,3.51l22.11,2.06a3.24,3.24,0,0,0,3.51-2.91l8.75-93.89,29.42-88.35A14.37,14.37,0,0,0,950.24,188.2Z"/><path class="cls-4" d="M1007,381.87l16.8,22.94-35.11,25.4s-9.87-9-2.87-18.48a18.66,18.66,0,0,0,2.64-15.66.84.84,0,0,1,0-.67l0-.06a7.62,7.62,0,0,1,1.75-10.66c1.67-1.19,3.7-2.66,6.12-4.45A7.64,7.64,0,0,1,1007,381.87Z"/><path class="cls-5" d="M1010.4,381.09l-26.16-90.85h0l-26.67-92.61a14.37,14.37,0,0,0-17.73-9.81h0a14.38,14.38,0,0,0-9.8,17.74l26.27,91.23h0L982.86,389a3.23,3.23,0,0,0,4,2.21l21.34-6.14A3.24,3.24,0,0,0,1010.4,381.09Z"/><path class="cls-6" d="M929.85,122.31c3.09,2,12.73,1.69,15.37,2.31,11.45,2.76,16.36-13.25,16.36-13.25-11.62.68-8.72-10.5-8.72-10.5-5.73-10.5-11.65-.26-11.65-.26C940.29,113.75,929.85,122.31,929.85,122.31Z"/><path class="cls-6" d="M907.16,62.29c0,24,8.29,43.6,41.14,43.6h.11a39,39,0,0,0,15.67-3.26l8.4-51.69s1.43-31.79-30-31.79h-.06a40.21,40.21,0,0,0-22,11.08l-.06.06A44.65,44.65,0,0,0,907.16,62.29Z"/><path d="M947.1,19.59s46.62.77,42.48,51.87a5.93,5.93,0,0,0,0,.73L992.14,203a66.8,66.8,0,0,1-14.25,42.89A57.29,57.29,0,0,1,967.62,256a7.47,7.47,0,0,1-11.83-4.82l-14.34-88.12a7.39,7.39,0,0,1,.14-3.07L957,100.3a8.17,8.17,0,0,0,.17-.86C957.74,95,961.93,59.71,947.1,19.59Z"/><path class="cls-5" d="M929.85,122.31,919.52,144a16,16,0,0,0,1.57,16.34c1.35,1.76,2.85,3.19,4.31,3.62,0,0,4.45,24.28-2,37.39l31.9.6-4.2-51.39-.47-28.24S937.11,124,929.85,122.31Z"/><path d="M909.91,39.35S916.33,59,951,50.43c0,0,8.76,15.05.9,27,0,0-3.74,6.22-4.94,27.11-.17,2.85-.29,6-.34,9.39l-4.51,8.5,19.76-11.19,1.72-9.91,8.86-50.87S974,19.15,940.84,19.15h-.06c-.92,0-12.2.57-23.16,10.9a.17.17,0,0,1-.06.06A51.64,51.64,0,0,0,909.91,39.35Z"/><path d="M918.15,65.36a11,11,0,0,0,4-.14l-.59,0a10.65,10.65,0,0,1-2.21-.48,12.65,12.65,0,0,1-2.06-.86,1.88,1.88,0,0,1-.18-.12,1.59,1.59,0,0,0-2.42.35,5.8,5.8,0,0,0-1.1,2.58,10.27,10.27,0,0,0,.29,5.34,4.48,4.48,0,0,0,1,1.68,1.61,1.61,0,0,0,2.65-.24,6,6,0,0,0,1-2.52,10.43,10.43,0,0,0-.12-4.78C918.32,65.87,918.23,65.62,918.15,65.36Z"/><path class="cls-7" d="M919.59,74.25A4.72,4.72,0,0,1,916,75.74a5.21,5.21,0,0,1-3.56-1.49,17.08,17.08,0,0,0,1.8.52,7.93,7.93,0,0,0,3.54,0A11.29,11.29,0,0,0,919.59,74.25Z"/><path class="cls-8" d="M925.85,59.4A34.5,34.5,0,0,0,911.91,58"/><path d="M914.23,90.92c.68-.09,1.41-.22,2.11-.36s1.4-.32,2.1-.5a26.41,26.41,0,0,0,4.11-1.45A26.33,26.33,0,0,1,918.81,91c-.66.35-1.32.68-2,1s-1.36.61-2.09.88Z"/><path class="cls-9" d="M961.83,67.29s.58-2.76,1.4-1.73a3,3,0,0,1,.48,1.46,13.07,13.07,0,0,1-1.84,8.6"/><path class="cls-10" d="M961.83,67.29a4.65,4.65,0,0,1,.35-1.69,1.22,1.22,0,0,1,.3-.42.65.65,0,0,1,.71-.08,1.64,1.64,0,0,1,.67.82,6.23,6.23,0,0,1,.39,1.73,12.36,12.36,0,0,1,0,1.72,10,10,0,0,1-2.43,6.25,19.06,19.06,0,0,0,1.43-6.29,14.41,14.41,0,0,0,0-1.61,6.75,6.75,0,0,0-.18-1.53,1.19,1.19,0,0,0-.26-.52s0,0,0,0a.86.86,0,0,0-.23.21A7.82,7.82,0,0,0,961.83,67.29Z"/><path class="cls-11" d="M947.34,224.08c-3.44,14.53-2.15,19.22-1.88,20.33,1.19,4.92,4.32-9,4.32-9,3.59,5.64-2.82,15.7-2.82,15.7l13.9-11.57-5.11-15.17s-4.58-5.17-8.41-.31"/><path class="cls-11" d="M959.2,159s2.29,36.74-3.65,68.28c0,0-6.42,6.45-8.4-.3,0,0-3.45-55.91.46-68.4C947.61,158.61,954,150.48,959.2,159Z"/><path class="cls-2" d="M947.61,158.61s6.36-8.13,11.59.42c0,0,2.18,35-3.23,66l4.89,14.53L947,251.13s6.41-10.06,2.82-15.7c0,0-3.13,13.9-4.32,9-.26-1.08-1.48-5.53,1.59-19C946.52,216,944.1,169.83,947.61,158.61Z"/><path class="cls-5" d="M968.71,151.11S971.9,116,952.4,115c0,0-12-2.54-14.19,37.06l-.27,7.74L970.71,161Z"/><path class="cls-1" d="M1409.36,216.27c-9.86,11.21-10.92,16-11.2,17.07-1.27,4.9,8-5.9,8-5.9.52,6.66-9.86,12.53-9.86,12.53l17.7-3.69,2.61-15.79s-1.62-6.71-7.28-4.22"/><path class="cls-1" d="M1450.36,164.39s-15.22,33.51-35.27,58.59c0,0-8.69,2.67-7.28-4.21,0,0,23.19-51,32.51-60.19C1440.32,158.58,1449.75,154.38,1450.36,164.39Z"/><path class="cls-2" d="M1440.32,158.58s9.43-4.2,10,5.81c0,0-14.5,31.92-33.83,56.76l-2.5,15.13-17.7,3.69s10.38-5.87,9.86-12.53c0,0-9.3,10.8-8,5.9.27-1.08,1.28-5.58,10.34-16.08C1412.41,208.77,1432,166.84,1440.32,158.58Z"/><path class="cls-3" d="M1462.47,161.86s19.27-29.47,2.53-39.5c0,0-9.41-7.88-29.92,26.06l-3.88,6.71,28.38,16.42Z"/><path d="M1556.1,351.81,1583,361,1568.72,402s-13.24-1.75-12.92-13.53a18.7,18.7,0,0,0-6.79-14.36c-.27-.23-.36-.41-.36-.55l-.07,0a7.62,7.62,0,0,1-4.66-9.75c.68-1.93,1.51-4.3,2.47-7.14A7.64,7.64,0,0,1,1556.1,351.81Z"/><path class="cls-3" d="M1558.45,349.22l-70-56.83-25.37-88.13a14.37,14.37,0,0,0-17.73-9.8h0a14.37,14.37,0,0,0-9.81,17.73l25.11,87.19a14.33,14.33,0,0,0,5.08,11.46,14.6,14.6,0,0,0,2.37,1.93l72.33,58.7a3.22,3.22,0,0,0,4.53-.47l14-17.24A3.23,3.23,0,0,0,1558.45,349.22Z"/><path class="cls-4" d="M1451,401.78l.1,28.43-43.33-.09s-2.69-13.08,8.54-16.64a18.69,18.69,0,0,0,11.35-11.12c.13-.33.27-.47.4-.52v-.08a7.62,7.62,0,0,1,7.69-7.59c2,0,4.56,0,7.56,0A7.63,7.63,0,0,1,1451,401.78Z"/><path class="cls-5" d="M1457.39,194.27A14.38,14.38,0,0,0,1441,206.22L1426.43,300c0,.07,0,.13,0,.2s-.05.43-.07.65-.06.71-.06,1.06v0l-.88,96a3.24,3.24,0,0,0,3.2,3.26l22.2.2a3.23,3.23,0,0,0,3.25-3.2l.87-94.88,14.42-92.61A14.36,14.36,0,0,0,1457.39,194.27Z"/><path class="cls-6" d="M1439.32,129c3.09,2,12.74,1.68,15.37,2.31,11.46,2.75,16.36-13.25,16.36-13.25-11.62.67-8.71-10.51-8.71-10.51-5.74-10.5-11.66-.26-11.66-.26C1449.76,120.38,1439.32,129,1439.32,129Z"/><path class="cls-6" d="M1416.63,68.92c0,24,8.29,43.6,41.14,43.6h.12a39.12,39.12,0,0,0,15.66-3.25l8.4-51.7s1.44-31.79-30-31.79h0a40.27,40.27,0,0,0-22,11.08s0,0-.06.06A44.69,44.69,0,0,0,1416.63,68.92Z"/><path d="M1456.58,26.22s46.62.77,42.48,51.88q0,.36,0,.72l2.58,130.8a66.73,66.73,0,0,1-14.25,42.89,56.9,56.9,0,0,1-10.26,10.12,7.48,7.48,0,0,1-11.84-4.82l-14.34-88.12a7.57,7.57,0,0,1,.14-3.07l15.38-59.69a6.09,6.09,0,0,0,.17-.85C1467.22,101.67,1471.41,66.34,1456.58,26.22Z"/><path class="cls-5" d="M1439.32,129,1429,150.63a16,16,0,0,0,1.57,16.33c1.36,1.76,2.85,3.2,4.32,3.63,0,0,4.44,24.27-2,37.38l31.9.61-4.2-51.4-.47-28.23S1446.59,130.66,1439.32,129Z"/><path d="M1419.38,46s6.42,19.61,41.13,11.07c0,0,8.75,15,.9,27,0,0-3.74,6.23-5,27.11-.16,2.85-.28,6-.34,9.39l-4.51,8.5,19.77-11.18,1.72-9.92L1482,57.06s1.51-31.28-31.64-31.28h-.06c-.92,0-12.19.57-23.15,10.91a.18.18,0,0,1-.07.05A52.16,52.16,0,0,0,1419.38,46Z"/><path d="M1427.63,72a10.72,10.72,0,0,0,3.95-.14l-.59,0a10.76,10.76,0,0,1-2.21-.47,14.11,14.11,0,0,1-2.06-.87.66.66,0,0,1-.17-.12,1.61,1.61,0,0,0-2.43.35,5.92,5.92,0,0,0-1.1,2.58,10.17,10.17,0,0,0,.3,5.34,4.38,4.38,0,0,0,1,1.68,1.61,1.61,0,0,0,2.66-.24,6,6,0,0,0,1-2.52,10.39,10.39,0,0,0-.13-4.77C1427.8,72.5,1427.71,72.25,1427.63,72Z"/><path class="cls-7" d="M1429.06,80.88a4.7,4.7,0,0,1-3.54,1.49,5.2,5.2,0,0,1-2-.41,4.76,4.76,0,0,1-1.61-1.08c.62.2,1.2.4,1.79.53a8.23,8.23,0,0,0,1.77.21,7.6,7.6,0,0,0,1.77-.18A9.29,9.29,0,0,0,1429.06,80.88Z"/><path class="cls-8" d="M1435.32,66a34.37,34.37,0,0,0-13.93-1.36"/><path d="M1423.71,97.56c.68-.09,1.4-.23,2.1-.37s1.41-.31,2.11-.5a25.64,25.64,0,0,0,4.1-1.45,25.24,25.24,0,0,1-3.74,2.38c-.65.35-1.32.68-2,1s-1.35.61-2.09.89Z"/><path class="cls-9" d="M1471.31,73.92s.58-2.76,1.39-1.73a3.06,3.06,0,0,1,.49,1.46,13.12,13.12,0,0,1-1.85,8.61"/><path class="cls-10" d="M1471.31,73.92a4.63,4.63,0,0,1,.34-1.69,1.22,1.22,0,0,1,.3-.42.67.67,0,0,1,.72-.08,1.61,1.61,0,0,1,.66.82,5.59,5.59,0,0,1,.39,1.73,12.36,12.36,0,0,1,.06,1.72,10,10,0,0,1-2.44,6.26,18.89,18.89,0,0,0,1.44-6.3,14.23,14.23,0,0,0,0-1.6,6.62,6.62,0,0,0-.18-1.53,1.37,1.37,0,0,0-.25-.53s0,0-.06,0a.91.91,0,0,0-.22.22A6.9,6.9,0,0,0,1471.31,73.92Z"/><path class="cls-11" d="M1498.37,224.39c3.05,14.61,6.22,18.31,6.93,19.2,3.17,4,.09-10,.09-10,5.65,3.58,4.12,15.41,4.12,15.41l7.66-16.38-11.06-11.57s-6.35-2.72-7.74,3.3"/><path class="cls-11" d="M1481.45,160.47s17.69,32.28,25.72,63.36c0,0-3.07,8.56-7.74,3.3,0,0-26.88-49.14-28.65-62.11C1470.78,165,1473.08,155,1481.45,160.47Z"/><path class="cls-2" d="M1470.78,165s2.3-10.07,10.67-4.55c0,0,16.84,30.74,25.12,61.11l10.6,11.08L1509.51,249s1.53-11.83-4.12-15.41c0,0,3.08,13.92-.09,10-.69-.86-3.69-4.37-6.66-17.92C1494.2,217.45,1472.37,176.66,1470.78,165Z"/><path class="cls-5" d="M1486.69,149.26s-12-33.1-30.09-25.72c0,0-11.95,2.8,2.91,39.58l3,7.12,30.16-12.86Z"/><path class="cls-1" d="M1173,220.53c-8.51,12.26-9,17.1-9.18,18.23-.7,5,7.3-6.78,7.3-6.78,1.28,6.56-8.36,13.58-8.36,13.58l17.16-5.69.8-16s-2.38-6.48-7.72-3.35"/><path class="cls-1" d="M1207.83,164.31s-11.3,35-28.36,62.23c0,0-8.33,3.65-7.71-3.36,0,0,17.23-53.3,25.43-63.5C1197.19,159.68,1206.09,154.44,1207.83,164.31Z"/><path class="cls-2" d="M1197.19,159.68s8.9-5.24,10.64,4.63c0,0-10.76,33.36-27.14,60.25l-.76,15.31-17.16,5.69s9.64-7,8.36-13.58c0,0-8,11.8-7.3,6.78.15-1.1.64-5.69,8.44-17.15C1175.19,212.73,1189.83,168.84,1197.19,159.68Z"/><path class="cls-3" d="M1219.58,160.42s15.78-31.48-2-39.54c0,0-10.25-6.75-26.75,29.31l-3.09,7.11,30.07,13.07Z"/><path d="M1253.46,348.16l27,8.79-13.62,41.13s-13.28-1.53-13.14-13.31a18.67,18.67,0,0,0-7-14.25.87.87,0,0,1-.37-.55l-.07,0a7.61,7.61,0,0,1-4.81-9.67c.65-1.94,1.44-4.32,2.36-7.18A7.63,7.63,0,0,1,1253.46,348.16Z"/><path class="cls-3" d="M1255.76,345.53l-66.5-52.24,27.46-81.59a14.36,14.36,0,0,0-9-18.14h0a14.37,14.37,0,0,0-18.15,9l-28.71,85.33c-.23.25-.46.5-.67.77h0a14.37,14.37,0,0,0,1.63,19.43,14.09,14.09,0,0,0,3.52,2.83l72.73,57.14a3.24,3.24,0,0,0,4.53-.54l13.72-17.46A3.24,3.24,0,0,0,1255.76,345.53Z"/><path class="cls-4" d="M1221.19,401.8l.15,28.43-43.34,0s-2.71-13.08,8.52-16.65a18.72,18.72,0,0,0,11.33-11.14c.13-.33.26-.47.4-.52v-.08a7.64,7.64,0,0,1,7.68-7.61c2,0,4.55,0,7.56,0A7.64,7.64,0,0,1,1221.19,401.8Z"/><path class="cls-5" d="M1222.09,302.05l1.26-94.51A14.36,14.36,0,0,0,1209.22,193h0a14.37,14.37,0,0,0-14.52,14.13L1193.44,302v.35l2,95.95a3.23,3.23,0,0,0,3.29,3.16L1221,401a3.22,3.22,0,0,0,3.15-3.29Z"/><path class="cls-6" d="M1193.16,127.87c3.09,2,12.74,1.69,15.37,2.31,11.46,2.75,16.36-13.25,16.36-13.25-11.62.68-8.71-10.5-8.71-10.5-5.74-10.5-11.66-.26-11.66-.26C1203.6,119.31,1193.16,127.87,1193.16,127.87Z"/><path class="cls-6" d="M1170.47,67.85c0,24,8.29,43.6,41.14,43.6h.12a39.16,39.16,0,0,0,15.66-3.26l8.4-51.69s1.43-31.79-30-31.79h0a40.23,40.23,0,0,0-22,11.08l-.06.06A44.67,44.67,0,0,0,1170.47,67.85Z"/><path d="M1210.42,25.14S1257,25.92,1252.9,77c0,.24,0,.49,0,.73l2.58,130.8a66.72,66.72,0,0,1-14.25,42.88,57.28,57.28,0,0,1-10.26,10.13,7.48,7.48,0,0,1-11.84-4.82l-14.34-88.13a7.57,7.57,0,0,1,.14-3.07l15.38-59.68a6.23,6.23,0,0,0,.17-.86C1221.06,100.59,1225.25,65.27,1210.42,25.14Z"/><path class="cls-5" d="M1193.16,127.87l-10.33,21.68a16,16,0,0,0,1.57,16.34c1.36,1.75,2.85,3.19,4.32,3.62,0,0,4.44,24.28-2,37.39l31.9.6-4.2-51.4-.47-28.23S1200.43,129.59,1193.16,127.87Z"/><path d="M1173.22,44.91s6.42,19.62,41.13,11.08c0,0,8.75,15.05.9,27,0,0-3.74,6.23-5,27.12q-.25,4.26-.34,9.39l-4.51,8.5,19.77-11.19,1.72-9.91L1235.79,56s1.51-31.28-31.64-31.28h-.06c-.92,0-12.19.57-23.15,10.9,0,0,0,0-.07.06A52.07,52.07,0,0,0,1173.22,44.91Z"/><path d="M1181.47,70.91a10.94,10.94,0,0,0,4-.13l-.59,0a10.79,10.79,0,0,1-2.21-.48,12.21,12.21,0,0,1-2.06-.87.87.87,0,0,1-.18-.11,1.58,1.58,0,0,0-2.42.35,5.92,5.92,0,0,0-1.1,2.58,10.13,10.13,0,0,0,.3,5.33,4.43,4.43,0,0,0,1,1.69,1.62,1.62,0,0,0,2.66-.24,6.23,6.23,0,0,0,1-2.52,10.43,10.43,0,0,0-.13-4.78C1181.64,71.43,1181.55,71.18,1181.47,70.91Z"/><path class="cls-7" d="M1182.9,79.81a4.69,4.69,0,0,1-3.55,1.48,5,5,0,0,1-1.94-.4,5.06,5.06,0,0,1-1.61-1.08c.62.2,1.2.39,1.79.52a7.64,7.64,0,0,0,1.77.21,7.1,7.1,0,0,0,1.77-.18A10,10,0,0,0,1182.9,79.81Z"/><path class="cls-8" d="M1189.16,65a34.58,34.58,0,0,0-13.93-1.36"/><path d="M1177.55,96.48c.68-.09,1.4-.22,2.1-.36s1.41-.32,2.11-.5a25.69,25.69,0,0,0,4.1-1.46,25,25,0,0,1-3.74,2.39c-.65.35-1.32.68-2,1s-1.35.61-2.09.88Z"/><path class="cls-9" d="M1225.15,72.85s.57-2.76,1.39-1.73a3,3,0,0,1,.49,1.46,13.09,13.09,0,0,1-1.85,8.6"/><path class="cls-10" d="M1225.15,72.85a4.59,4.59,0,0,1,.34-1.69,1.22,1.22,0,0,1,.3-.42.65.65,0,0,1,.72-.08,1.61,1.61,0,0,1,.66.82,5.59,5.59,0,0,1,.39,1.73,14.06,14.06,0,0,1,.06,1.72,10,10,0,0,1-2.44,6.25,18.84,18.84,0,0,0,1.44-6.3,14.23,14.23,0,0,0,0-1.6,6.75,6.75,0,0,0-.18-1.53,1.25,1.25,0,0,0-.25-.52s0,0-.06,0a.84.84,0,0,0-.22.21A7.26,7.26,0,0,0,1225.15,72.85Z"/><path class="cls-11" d="M1229,229.13c-.63,14.91,1.53,19.27,2,20.31,2.1,4.61,2.54-9.63,2.54-9.63,4.6,4.85.21,15.94.21,15.94l11.45-14-7.89-13.92s-5.48-4.2-8.31,1.3"/><path class="cls-11" d="M1228.32,163s9.23,35.64,9.39,67.74c0,0-5.08,7.54-8.31,1.3,0,0-14-54.24-12.54-67.25C1216.86,164.79,1221.57,155.6,1228.32,163Z"/><path class="cls-2" d="M1216.86,164.79s4.71-9.19,11.46-1.79c0,0,8.79,33.94,9.36,65.42l7.56,13.33-11.45,14s4.39-11.09-.21-15.94c0,0-.44,14.24-2.54,9.63-.46-1-2.5-5.15-2-19C1226.69,221.38,1215.55,176.47,1216.86,164.79Z"/><path class="cls-5" d="M1236.16,153.42s-3.53-35-22.86-32.31c0,0-12.27-.22-6.89,39.08l1.19,7.65,32.4-5.06Z"/><path class="cls-1" d="M413.09,229.13c-.62,14.91,1.54,19.27,2,20.31,2.1,4.61,2.54-9.63,2.54-9.63,4.59,4.85.21,15.94.21,15.94l11.45-14-7.9-13.92s-5.47-4.2-8.31,1.3"/><path class="cls-1" d="M412.38,163s9.23,35.64,9.39,67.74c0,0-5.08,7.54-8.32,1.3,0,0-14-54.24-12.53-67.25C400.92,164.79,405.63,155.6,412.38,163Z"/><path class="cls-2" d="M400.92,164.79s4.71-9.19,11.46-1.79c0,0,8.79,33.94,9.36,65.42l7.56,13.33-11.45,14s4.38-11.09-.21-15.94c0,0-.44,14.24-2.54,9.63-.46-1-2.5-5.15-2.05-19C410.75,221.38,399.61,176.47,400.92,164.79Z"/><path class="cls-3" d="M420.22,153.42s-3.53-35-22.86-32.31c0,0-12.27-.22-6.89,39.08l1.19,7.65,32.4-5.06Z"/><path d="M405.25,401.8l.15,28.43-43.34,0s-2.71-13.08,8.52-16.65a18.68,18.68,0,0,0,11.32-11.14c.14-.33.27-.47.41-.52v-.08a7.63,7.63,0,0,1,7.68-7.61c2,0,4.55,0,7.56,0A7.64,7.64,0,0,1,405.25,401.8Z"/><path class="cls-3" d="M406.15,302.05l1.26-94.51A14.36,14.36,0,0,0,393.28,193h0a14.37,14.37,0,0,0-14.52,14.13L377.5,302a1.34,1.34,0,0,0,0,.2v.15l2,95.95a3.23,3.23,0,0,0,3.29,3.16L405,401a3.22,3.22,0,0,0,3.16-3.29Z"/><path class="cls-4" d="M438.31,346.18l27,8.79L451.73,396.1s-13.28-1.53-13.14-13.31a18.68,18.68,0,0,0-7-14.25c-.27-.23-.36-.4-.37-.55l-.07,0a7.63,7.63,0,0,1-4.82-9.67c.66-1.94,1.45-4.32,2.37-7.18A7.63,7.63,0,0,1,438.31,346.18Z"/><path class="cls-5" d="M445.82,345.53l-66.5-52.24,27.46-81.59a14.33,14.33,0,0,0-27.16-9.14l-28.71,85.33c-.23.25-.46.5-.67.77h0a14.35,14.35,0,0,0,1.63,19.43,14.09,14.09,0,0,0,3.52,2.83l72.73,57.14a3.24,3.24,0,0,0,4.53-.54l13.72-17.46A3.24,3.24,0,0,0,445.82,345.53Z"/><path class="cls-6" d="M377.22,127.87c3.09,2,12.74,1.69,15.37,2.31,11.46,2.75,16.36-13.25,16.36-13.25-11.62.68-8.71-10.5-8.71-10.5-5.74-10.5-11.66-.26-11.66-.26C387.66,119.31,377.22,127.87,377.22,127.87Z"/><path class="cls-6" d="M354.53,67.85c0,24,8.29,43.6,41.14,43.6h.11a39.17,39.17,0,0,0,15.67-3.26l8.4-51.69s1.43-31.79-30-31.79h-.06a40.24,40.24,0,0,0-22,11.08l-.06.06A44.63,44.63,0,0,0,354.53,67.85Z"/><path d="M394.48,25.14S441.1,25.92,437,77c0,.24,0,.49,0,.73l2.58,130.8a66.72,66.72,0,0,1-14.25,42.88A57.28,57.28,0,0,1,415,261.56a7.48,7.48,0,0,1-11.84-4.82l-14.34-88.13a7.4,7.4,0,0,1,.14-3.07l15.38-59.68a8.17,8.17,0,0,0,.17-.86C405.11,100.59,409.3,65.27,394.48,25.14Z"/><path class="cls-5" d="M377.22,127.87l-10.33,21.68a16,16,0,0,0,1.57,16.34c1.35,1.75,2.85,3.19,4.31,3.62,0,0,4.45,24.28-2,37.39l31.9.6-4.2-51.4L398,127.87S384.48,129.59,377.22,127.87Z"/><path d="M357.28,44.91S363.7,64.53,398.4,56c0,0,8.76,15.05.91,27,0,0-3.74,6.23-4.95,27.12q-.25,4.26-.34,9.39l-4.51,8.5,19.76-11.19,1.73-9.91L419.85,56s1.51-31.28-31.64-31.28h-.06c-.92,0-12.19.57-23.15,10.9l-.07.06A51.64,51.64,0,0,0,357.28,44.91Z"/><path d="M365.52,70.91a11,11,0,0,0,4-.13l-.59,0a10.65,10.65,0,0,1-2.21-.48,12.21,12.21,0,0,1-2.06-.87.87.87,0,0,1-.18-.11,1.58,1.58,0,0,0-2.42.35,5.92,5.92,0,0,0-1.1,2.58,10.13,10.13,0,0,0,.3,5.33,4.43,4.43,0,0,0,1,1.69,1.61,1.61,0,0,0,2.65-.24,6.11,6.11,0,0,0,1.06-2.52,10.43,10.43,0,0,0-.13-4.78C365.69,71.43,365.61,71.18,365.52,70.91Z"/><path class="cls-7" d="M367,79.81a4.69,4.69,0,0,1-3.55,1.48,5,5,0,0,1-1.94-.4,5.06,5.06,0,0,1-1.61-1.08c.62.2,1.2.39,1.79.52a7.64,7.64,0,0,0,1.77.21,7.1,7.1,0,0,0,1.77-.18A10,10,0,0,0,367,79.81Z"/><path class="cls-8" d="M373.22,65a34.58,34.58,0,0,0-13.93-1.36"/><path d="M361.61,96.48c.68-.09,1.4-.22,2.1-.36s1.41-.32,2.1-.5a25.45,25.45,0,0,0,4.11-1.46,25.53,25.53,0,0,1-3.74,2.39c-.65.35-1.32.68-2,1s-1.36.61-2.09.88Z"/><path class="cls-9" d="M409.21,72.85s.57-2.76,1.39-1.73a3.13,3.13,0,0,1,.49,1.46,13.15,13.15,0,0,1-1.85,8.6"/><path class="cls-10" d="M409.21,72.85a4.59,4.59,0,0,1,.34-1.69,1.22,1.22,0,0,1,.3-.42.65.65,0,0,1,.72-.08,1.66,1.66,0,0,1,.66.82,5.89,5.89,0,0,1,.39,1.73,14.06,14.06,0,0,1,.06,1.72,10,10,0,0,1-2.44,6.25,18.84,18.84,0,0,0,1.44-6.3,14.23,14.23,0,0,0,0-1.6,6.75,6.75,0,0,0-.18-1.53,1.25,1.25,0,0,0-.25-.52s0,0-.06,0a.71.71,0,0,0-.22.21A7.26,7.26,0,0,0,409.21,72.85Z"/><path d="M401.38,134.4a1.13,1.13,0,0,0,0-2.25,1.13,1.13,0,0,0,0,2.25Z"/><path class="cls-11" d="M359.07,221.53c-8.51,12.26-9,17.1-9.18,18.23-.7,5,7.3-6.78,7.3-6.78,1.28,6.56-8.36,13.58-8.36,13.58L366,240.87l.8-16s-2.38-6.48-7.72-3.35"/><path class="cls-11" d="M393.89,165.31s-11.3,35-28.36,62.23c0,0-8.33,3.65-7.71-3.36,0,0,17.23-53.3,25.43-63.5C383.25,160.68,392.15,155.44,393.89,165.31Z"/><path class="cls-2" d="M383.25,160.68s8.9-5.24,10.64,4.63c0,0-10.76,33.36-27.14,60.25L366,240.87l-17.16,5.69s9.64-7,8.36-13.58c0,0-8,11.8-7.3,6.78.15-1.1.64-5.69,8.44-17.15C361.25,213.73,375.88,169.84,383.25,160.68Z"/><path class="cls-5" d="M405.64,161.42s15.78-31.48-2-39.54c0,0-10.25-6.75-26.75,29.31l-3.09,7.11,30.07,13.07Z"/><path class="cls-1" d="M683.32,224.24c3.06,14.61,6.22,18.31,6.93,19.2,3.17,3.95.1-10,.1-10,5.65,3.58,4.12,15.4,4.12,15.4l7.66-16.38-11.07-11.56s-6.34-2.72-7.74,3.3"/><path class="cls-1" d="M666.4,160.32s17.69,32.28,25.72,63.36c0,0-3.07,8.56-7.73,3.3,0,0-26.89-49.14-28.66-62.11C655.73,164.87,658,154.8,666.4,160.32Z"/><path class="cls-2" d="M655.73,164.87s2.3-10.07,10.67-4.55c0,0,16.85,30.74,25.13,61.11l10.6,11.07-7.66,16.38s1.53-11.82-4.12-15.4c0,0,3.07,13.91-.1,10-.69-.87-3.69-4.37-6.65-17.92C679.15,217.3,657.32,176.51,655.73,164.87Z"/><path class="cls-5" d="M671.65,149.1s-12-33.09-30.1-25.71c0,0-11.94,2.8,2.91,39.57l3,7.13,30.16-12.86Z"/><path d="M636,401.62l.1,28.44L592.77,430s-2.69-13.08,8.54-16.64a18.67,18.67,0,0,0,11.34-11.12c.13-.33.27-.47.41-.52v-.08a7.61,7.61,0,0,1,7.69-7.59c2,0,4.55,0,7.56,0A7.64,7.64,0,0,1,636,401.62Z"/><path class="cls-3" d="M642.35,194.12h0A14.36,14.36,0,0,0,626,206.07l-14.61,93.74c0,.07,0,.13,0,.2s-.05.43-.06.65-.06.71-.07,1.06v0l-.87,96a3.22,3.22,0,0,0,3.19,3.25l22.2.21A3.24,3.24,0,0,0,639,398l.86-94.89,14.43-92.6A14.37,14.37,0,0,0,642.35,194.12Z"/><path class="cls-4" d="M746.06,351.66l26.9,9.22-14.28,40.91s-13.25-1.74-12.93-13.52A18.67,18.67,0,0,0,739,373.91a.87.87,0,0,1-.36-.56l-.07,0a7.62,7.62,0,0,1-4.66-9.75c.69-1.93,1.51-4.3,2.48-7.14A7.64,7.64,0,0,1,746.06,351.66Z"/><path class="cls-5" d="M748.41,349.07l-70-56.83L653,204.11A14.32,14.32,0,0,0,625.47,212l25.1,87.19a14.31,14.31,0,0,0,5.09,11.45,14.59,14.59,0,0,0,2.36,1.94l72.33,58.7a3.23,3.23,0,0,0,4.53-.47l14-17.24A3.25,3.25,0,0,0,748.41,349.07Z"/><path class="cls-6" d="M624.28,128.79c3.08,2,12.73,1.69,15.37,2.31C651.1,133.86,656,117.85,656,117.85c-11.62.68-8.72-10.5-8.72-10.5-5.73-10.5-11.65-.26-11.65-.26C634.72,120.23,624.28,128.79,624.28,128.79Z"/><path class="cls-6" d="M601.59,68.77c0,24,8.29,43.6,41.14,43.6h.11a39,39,0,0,0,15.67-3.26l8.4-51.69s1.43-31.79-30-31.79h-.06a40.21,40.21,0,0,0-22,11.08l-.06.06A44.65,44.65,0,0,0,601.59,68.77Z"/><path d="M641.53,26.07s46.62.77,42.48,51.87a5.93,5.93,0,0,0,0,.73l2.58,130.8a66.8,66.8,0,0,1-14.25,42.89,57.29,57.29,0,0,1-10.27,10.12,7.47,7.47,0,0,1-11.83-4.82l-14.34-88.12a7.39,7.39,0,0,1,.14-3.07l15.38-59.69a8.52,8.52,0,0,0,.17-.85C652.17,101.51,656.36,66.19,641.53,26.07Z"/><path class="cls-5" d="M624.28,128.79,614,150.48a16,16,0,0,0,1.57,16.33c1.35,1.76,2.84,3.2,4.31,3.62,0,0,4.45,24.28-2,37.39l31.9.6L645.5,157,645,128.79S631.54,130.51,624.28,128.79Z"/><path d="M604.34,45.83s6.42,19.62,41.12,11.08c0,0,8.76,15,.9,27,0,0-3.74,6.23-4.94,27.11-.17,2.85-.29,6-.34,9.39l-4.51,8.5,19.76-11.18,1.72-9.92,8.85-50.87s1.52-31.28-31.63-31.28h-.06c-.92,0-12.2.57-23.16,10.91l-.06.05A51.57,51.57,0,0,0,604.34,45.83Z"/><path d="M612.58,71.84a11,11,0,0,0,4-.14l-.59,0a10.65,10.65,0,0,1-2.21-.48,12.65,12.65,0,0,1-2.06-.86,1.88,1.88,0,0,1-.18-.12,1.59,1.59,0,0,0-2.42.35,5.8,5.8,0,0,0-1.1,2.58,10.27,10.27,0,0,0,.29,5.34,4.48,4.48,0,0,0,1,1.68,1.61,1.61,0,0,0,2.65-.24,6,6,0,0,0,1.05-2.52,10.52,10.52,0,0,0-.12-4.77C612.75,72.35,612.66,72.1,612.58,71.84Z"/><path class="cls-7" d="M614,80.73a4.72,4.72,0,0,1-3.55,1.49,5.21,5.21,0,0,1-3.56-1.49,17.08,17.08,0,0,0,1.8.52,7.93,7.93,0,0,0,3.54,0A11.29,11.29,0,0,0,614,80.73Z"/><path class="cls-8" d="M620.27,65.88a34.33,34.33,0,0,0-13.93-1.36"/><path d="M608.66,97.41c.68-.1,1.4-.23,2.1-.37s1.41-.31,2.11-.5A26.41,26.41,0,0,0,617,95.09a26.33,26.33,0,0,1-3.74,2.38c-.66.35-1.33.68-2,1s-1.36.61-2.09.89Z"/><path class="cls-9" d="M656.26,73.77s.58-2.76,1.4-1.73a3,3,0,0,1,.48,1.46,13.17,13.17,0,0,1-1.84,8.61"/><path class="cls-10" d="M656.26,73.77a4.63,4.63,0,0,1,.34-1.69,1.42,1.42,0,0,1,.31-.42.65.65,0,0,1,.71-.08,1.64,1.64,0,0,1,.67.82,6.23,6.23,0,0,1,.39,1.73,12.36,12.36,0,0,1,.05,1.72,10.08,10.08,0,0,1-2.43,6.26,19.12,19.12,0,0,0,1.43-6.3,14.41,14.41,0,0,0,0-1.61,7.37,7.37,0,0,0-.18-1.53,1.46,1.46,0,0,0-.26-.52s0,0-.06,0a1.36,1.36,0,0,0-.22.21A7.26,7.26,0,0,0,656.26,73.77Z"/><path d="M645.83,134.47a1.5,1.5,0,0,0,0-3,1.5,1.5,0,0,0,0,3Z"/><path d="M648.44,135.32a1.13,1.13,0,0,0,0-2.25,1.13,1.13,0,0,0,0,2.25Z"/><path class="cls-11" d="M594.31,216.12c-9.85,11.21-10.91,16-11.2,17.06-1.26,4.91,8-5.9,8-5.9.52,6.67-9.86,12.54-9.86,12.54l17.7-3.7,2.61-15.79s-1.62-6.71-7.28-4.21"/><path class="cls-11" d="M635.31,164.24s-15.21,33.51-35.26,58.59c0,0-8.7,2.67-7.29-4.22,0,0,23.2-51,32.51-60.18C625.27,158.43,634.71,154.23,635.31,164.24Z"/><path class="cls-2" d="M625.27,158.43s9.44-4.2,10,5.81c0,0-14.49,31.92-33.83,56.76L599,236.12l-17.7,3.7s10.38-5.87,9.86-12.54c0,0-9.29,10.81-8,5.9.28-1.07,1.29-5.57,10.34-16.07C597.36,208.62,616.91,166.69,625.27,158.43Z"/><path class="cls-5" d="M647.43,161.71s19.27-29.47,2.52-39.5c0,0-9.41-7.88-29.92,26.06L616.15,155l28.39,16.42Z"/></g></svg>